<?xml version="1.0" encoding="utf-8"?>
<!-- Generator: Adobe Illustrator 18.0.0, SVG Export Plug-In . SVG Version: 6.00 Build 0)  -->
<svg version="1.1" id="Layer_1" xmlns="http://www.w3.org/2000/svg" xmlns:xlink="http://www.w3.org/1999/xlink" x="0px" y="0px"
	 width="22px" height="28px" viewBox="0 0 22 28" enable-background="new 0 0 22 28" xml:space="preserve">
<path fill-rule="evenodd" clip-rule="evenodd" fill="#0C64D4" d="M11,28C4.9,28,0,23.1,0,17V0h22v17C22,23.1,17.1,28,11,28z M20,2H2
	v14.3h4.8h0.1C7.3,14.4,9,13,11,13c2.3,0,4.2,1.8,4.2,4.1c0,2.3-1.9,4.1-4.2,4.1c-2,0-3.7-1.4-4.1-3.2H2c0.4,4.5,4.3,8,9,8
	c5,0,9-4,9-8.9c0-2.6-1.1-4.7-2.9-6.1H20V2z M8.5,17.2c0,1.4,1.1,2.5,2.5,2.5s2.5-1.1,2.5-2.5c0-1.4-1.1-2.5-2.5-2.5
	S8.5,15.8,8.5,17.2z M7,9V7h8v2.8C13.8,9.3,12.4,9,11,9C9.5,9,8.2,9,7,9z"/>
</svg>
