<?xml version="1.0" encoding="UTF-8" standalone="no"?>
<!DOCTYPE svg  PUBLIC '-//W3C//DTD SVG 1.1//EN'  'http://www.w3.org/Graphics/SVG/1.1/DTD/svg11.dtd'>
<svg xmlns="http://www.w3.org/2000/svg">
<defs>
<font id="Georgia-Regular" horiz-adv-x="1024">
<font-face underline-position="-131" font-weight="400" descent="-410" panose-1="2 4 5 2 5 4 5 2 3 3" units-per-em="2048" unicode-range="U+0020-F00E" bbox="-355 -444 2360 1868" x-height="986" underline-thickness="101" font-family="Georgia" ascent="1638" cap-height="1419"/>
<missing-glyph horiz-adv-x="2048"/>
<glyph glyph-name=".notdef" horiz-adv-x="2048"/>
<glyph glyph-name=".null" horiz-adv-x="0"/>
<glyph glyph-name="nonmarkingreturn" horiz-adv-x="2048"/>
<glyph glyph-name="space" horiz-adv-x="494" unicode=" "/>
<glyph glyph-name="space" horiz-adv-x="494" unicode=" "/>
<glyph glyph-name="exclam" horiz-adv-x="678" unicode="!" d="M481 115q0 -56 -40.5 -95.5t-96.5 -39.5t-96.5 39.5t-40.5 95.5t40.5 96.5t96.5 40.5t96.5 -40.5t40.5 -96.5zM472 1321q0 -50 -33 -336t-58 -553h-78q-22 267 -54.5 553t-32.5 336q0 57 36 96t92 39t92 -38.5t36 -96.5z"/>
<glyph glyph-name="quotedbl" horiz-adv-x="843" unicode='&quot;' d="M343 1417q0 -40 -26 -154t-58 -296h-61q-27 170 -53.5 290.5t-26.5 159.5q0 46 28 79t85 33q54 0 83 -33t29 -79zM725 1417q0 -40 -26 -154t-58 -296h-62q-23 148 -51.5 282t-28.5 168q0 46 28 79t85 33q55 0 84 -33t29 -79z"/>
<glyph glyph-name="numbersign" horiz-adv-x="1317" unicode="#" d="M807 747h-222l-74 -255h221zM1163 745h-249l-72 -251h261v-123h-296l-107 -371h-111l107 371h-217l-107 -371h-111l107 371h-214v123h249l73 251h-262v123h296l105 362h111l-105 -362h217l105 362h111l-105 -362h214v-123z"/>
<glyph glyph-name="dollar" horiz-adv-x="1249" unicode="$" d="M915 284q0 82 -42.5 142.5t-144.5 100.5q-13 5 -24.5 9t-22.5 8v-483q117 7 175.5 66.5t58.5 156.5zM599 775v440q-97 0 -163 -55t-66 -135q0 -87 41 -139t124 -86q12 -5 30 -12t34 -13zM1018 580q40 -39 62.5 -91t22.5 -124q0 -157 -120 -263.5t-302 -118.5v-282h-82 v280q-198 4 -321 94.5t-123 224.5q0 59 26 90.5t73 31.5q53 0 83 -26.5t30 -62.5q0 -27 -19 -81.5t-24 -74.5q29 -52 100.5 -84t174.5 -33v506q-44 16 -76.5 28t-85.5 34q-115 47 -180 123.5t-65 198.5q0 144 120 243t287 102v229h82v-229q99 -2 175 -29t124 -67t72.5 -88 t24.5 -93t-21 -76.5t-69 -31.5q-49 0 -81.5 25t-32.5 56q0 37 8 73.5t14 64.5q-3 6 -20 21.5t-40 28.5q-25 14 -66 25t-88 11v-464q39 -14 65.5 -24.5t65.5 -25.5q62 -24 114 -52.5t92 -68.5z"/>
<glyph glyph-name="percent" horiz-adv-x="1674" unicode="%" d="M1499 1424l-1179 -1424h-138l1176 1424h141zM1396 338q0 130 -43 213t-127 83q-86 0 -128.5 -83t-42.5 -213q0 -133 43 -214.5t127 -81.5t127.5 81.5t43.5 214.5zM1565 338q0 -176 -95 -273t-245 -97t-244.5 97t-94.5 273q0 166 92.5 268t247.5 102q153 0 246 -102 t93 -268zM619 1083q0 130 -43 213t-127 83q-86 0 -128.5 -83t-42.5 -213q0 -133 43 -214.5t127 -81.5t127.5 81.5t43.5 214.5zM788 1083q0 -176 -95 -273t-245 -97t-244.5 97t-94.5 273q0 166 92.5 268t247.5 102q153 0 246 -102t93 -268z"/>
<glyph glyph-name="ampersand" horiz-adv-x="1455" unicode="&amp;" d="M825 228q-93 118 -209.5 258.5t-186.5 237.5q-81 -56 -114.5 -131.5t-33.5 -172.5q0 -136 77.5 -225.5t207.5 -89.5q73 0 143.5 31.5t115.5 91.5zM747 1153q0 102 -45 156.5t-128 54.5q-47 0 -78 -19t-53 -48q-20 -28 -29 -60t-9 -57q0 -69 36 -139.5t112 -170.5 q103 58 148.5 125.5t45.5 157.5zM1454 828q-59 -5 -119 -23.5t-92 -58.5q-21 -24 -42.5 -71t-51.5 -111t-61 -126t-80 -124q40 -48 98 -104.5t99 -81.5q40 -23 113.5 -39t120.5 -18v-71h-412l-149 170q-33 -36 -75.5 -74.5t-89.5 -66.5q-52 -30 -104.5 -47t-123.5 -17 q-74 0 -147 21.5t-133 68.5q-58 46 -94 118t-36 172q0 124 65.5 224.5t244.5 213.5q-81 107 -126 185t-45 175q0 69 27.5 126.5t77.5 100.5q46 39 112 61t134 22q80 0 140.5 -25.5t98.5 -66.5q35 -38 53.5 -88t18.5 -100q0 -120 -74.5 -206.5t-205.5 -155.5 q94 -127 184 -231.5t173 -205.5q67 107 104 201.5t37 166.5q0 32 -46.5 50.5t-128.5 35.5v71h535v-71z"/>
<glyph glyph-name="quotesingle" horiz-adv-x="441" unicode="&apos;" d="M333 1417q0 -40 -26 -154t-58 -296h-61q-27 170 -53.5 290.5t-26.5 159.5q0 46 28 79t85 33q54 0 83 -33t29 -79z"/>
<glyph glyph-name="parenleft" horiz-adv-x="768" unicode="(" d="M701 -328q-273 34 -428.5 275t-155.5 649q0 415 155.5 657.5t428.5 278.5v-83q-192 -35 -292 -245t-100 -610q0 -381 98 -592.5t294 -247.5v-82z"/>
<glyph glyph-name="parenright" horiz-adv-x="768" unicode=")" d="M651 596q0 -408 -155.5 -649t-428.5 -275v82q196 36 294 247.5t98 592.5q0 400 -100 610t-292 245v83q273 -36 428.5 -278.5t155.5 -657.5z"/>
<glyph glyph-name="asterisk" horiz-adv-x="967" unicode="*" d="M882 1099q0 -37 -21 -54t-54 -17q-22 0 -105.5 21.5t-187.5 33.5q45 -62 84 -103.5t65 -69.5q27 -29 42 -51t15 -47q0 -27 -24 -47t-51 -20q-18 0 -34 10.5t-27 29.5q-16 29 -31.5 93t-68.5 188q-48 -119 -67 -188.5t-33 -92.5q-13 -20 -26.5 -30t-34.5 -10 q-28 0 -51.5 19t-23.5 48q0 24 14 45t43 53q25 26 66.5 71t82.5 102q-98 -10 -182.5 -32.5t-110.5 -22.5q-33 0 -54 16.5t-21 54.5q0 34 21 52.5t54 18.5q30 0 105.5 -21t187.5 -32q-39 53 -82 100.5t-67 72.5q-28 30 -42.5 51.5t-14.5 46.5q0 27 24 47t51 20q18 0 33.5 -10 t27.5 -30q14 -24 37 -107.5t63 -173.5q45 102 65.5 178.5t34.5 102.5q11 19 26.5 29.5t34.5 10.5q28 0 51.5 -19t23.5 -48q0 -41 -55.5 -96t-150.5 -175q108 12 187.5 32.5t105.5 20.5q33 0 54 -18t21 -53z"/>
<glyph glyph-name="plus" horiz-adv-x="1317" unicode="+" d="M1173 497h-451v-451h-127v451h-451v125h451v451h127v-451h451v-125z"/>
<glyph glyph-name="comma" horiz-adv-x="552" unicode="," d="M429 35q0 -72 -32.5 -136t-74.5 -110q-43 -48 -91 -85t-88 -58l-46 67q48 30 86 60t62 60q30 35 51 76t27 93h-51q-67 0 -104.5 35t-37.5 94q0 42 34 81.5t93 39.5q86 0 129 -57.5t43 -159.5z"/>
<glyph glyph-name="hyphen" horiz-adv-x="766" unicode="-" d="M681 465h-596v157h596v-157z"/>
<glyph glyph-name="hyphen" horiz-adv-x="766" unicode="­" d="M681 465h-596v157h596v-157z"/>
<glyph glyph-name="period" horiz-adv-x="552" unicode="." d="M415 115q0 -56 -40.5 -95.5t-96.5 -39.5t-96.5 39.5t-40.5 95.5t40.5 96.5t96.5 40.5t96.5 -40.5t40.5 -96.5z"/>
<glyph glyph-name="slash" horiz-adv-x="960" unicode="/" d="M870 1523l-691 -1947h-130l689 1947h132z"/>
<glyph glyph-name="zero" horiz-adv-x="1257" unicode="0" d="M933 537q0 238 -81.5 369t-221.5 131q-142 0 -224 -131t-82 -369q0 -226 78.5 -363.5t225.5 -137.5t226 137.5t79 363.5zM1027 934q64 -77 95.5 -180.5t31.5 -216.5q0 -136 -39 -243.5t-107 -178.5q-70 -73 -166 -110t-214 -37q-129 0 -230 43t-164 118 q-66 78 -98.5 182.5t-32.5 225.5q0 119 31.5 219t98.5 181q64 78 165 123t231 45q137 0 235 -46t163 -125z"/>
<glyph glyph-name="one" horiz-adv-x="880" unicode="1" d="M809 0h-674v71q30 2 93.5 8.5t87.5 13.5q31 10 47.5 32.5t16.5 67.5v702h-249v84h55q108 0 193.5 40t122.5 86h83q-3 -65 -6 -152t-3 -156v-593q0 -35 15.5 -62.5t44.5 -40.5q26 -11 85 -20t88 -10v-71z"/>
<glyph glyph-name="two" horiz-adv-x="1144" unicode="2" d="M1047 0h-937v136q27 31 75 69.5t114 83.5q40 27 96 59t127 70q79 42 121.5 74t77.5 79q23 31 37 77.5t14 132.5q0 125 -67 183.5t-172 58.5q-65 0 -123 -25.5t-87 -70.5q7 -32 17.5 -76t10.5 -86q0 -38 -31.5 -67.5t-93.5 -29.5q-50 0 -77 34.5t-27 92.5q0 54 30 108.5 t86 100.5q55 45 136 73t175 28q205 0 325.5 -91.5t120.5 -244.5q0 -73 -21.5 -133t-69.5 -106q-53 -51 -124 -87.5t-217 -101.5q-87 -39 -162 -81.5t-123 -82.5h769v-177z"/>
<glyph glyph-name="three" horiz-adv-x="1130" unicode="3" d="M487 -365q-94 0 -172 23.5t-134 63.5t-86.5 92t-30.5 107q0 49 24 88.5t77 39.5q60 0 91.5 -29.5t31.5 -67.5q0 -32 -10.5 -81t-16.5 -70q7 -9 25.5 -24t45.5 -27q32 -15 67 -24t99 -9q60 0 115.5 20t97.5 64q44 46 68.5 107.5t24.5 161.5q0 54 -11.5 107t-42.5 92 t-84.5 60.5t-135.5 21.5h-131v115h87q138 0 199 76t61 229q0 125 -59 188.5t-167 63.5q-52 0 -85.5 -12.5t-54.5 -24.5q-25 -14 -41 -31t-24 -25q7 -32 17 -78.5t10 -88.5q0 -37 -31.5 -66.5t-92.5 -29.5q-53 0 -77.5 38t-24.5 88q0 52 29 106t86 101t139 76t189 29 q123 0 203.5 -36.5t126.5 -88.5q45 -51 62 -107t17 -96q0 -50 -14 -100.5t-46 -93.5q-35 -47 -92.5 -85.5t-144.5 -62.5v-16q56 -5 119.5 -25t114.5 -59q53 -41 87 -105.5t34 -163.5q0 -192 -154 -311.5t-385 -119.5z"/>
<glyph glyph-name="four" horiz-adv-x="1157" unicode="4" d="M689 221v655l-540 -655h540zM1084 90h-203v-455h-192v455h-640v154l701 855h131v-878h203v-131z"/>
<glyph glyph-name="five" horiz-adv-x="1082" unicode="5" d="M843 469q66 -52 109.5 -134t43.5 -205q0 -215 -147 -355t-373 -140q-175 0 -296 83t-121 193q0 51 25 89t77 38q60 0 91.5 -31.5t31.5 -68.5q0 -32 -11 -80t-17 -71q8 -7 26 -19t43 -23q26 -11 63.5 -19.5t87.5 -8.5q64 0 121 26t96 77q43 56 64.5 127.5t21.5 181.5 q0 141 -78.5 233.5t-206.5 92.5q-80 0 -149.5 -30t-124.5 -100l-67 26l85 722h716v-178h-635l-52 -424q45 32 118.5 63.5t161.5 31.5q73 0 151.5 -22.5t144.5 -74.5z"/>
<glyph glyph-name="six" horiz-adv-x="1159" unicode="6" d="M858 434q0 162 -74.5 260t-199.5 98q-75 0 -139.5 -28t-124.5 -94q-1 -12 -3 -55.5t-2 -68.5q0 -234 76.5 -366.5t201.5 -132.5q119 0 192 103.5t73 283.5zM1075 461q0 -104 -37.5 -195t-100.5 -155q-73 -73 -161.5 -108t-184.5 -35q-111 0 -201 41t-153 116 q-64 76 -99 186t-35 247q0 357 212.5 602t569.5 294l18 -90l-90 -16q-217 -70 -335.5 -218t-153.5 -359q86 75 170 106t177 31q167 0 285.5 -128t118.5 -319z"/>
<glyph glyph-name="seven" horiz-adv-x="1029" unicode="7" d="M1029 1008l-713 -1373h-125l671 1270h-393q-87 0 -136 -2t-90 -19q-31 -13 -55.5 -66.5t-37.5 -136.5h-61v392h940v-65z"/>
<glyph glyph-name="eight" horiz-adv-x="1221" unicode="8" d="M917 329q0 63 -27 110.5t-78 86.5q-49 38 -136.5 79.5t-189.5 84.5q-96 -52 -141 -132.5t-45 -183.5q0 -147 86.5 -237.5t230.5 -90.5q138 0 219 80t81 203zM875 1102q0 122 -72.5 198.5t-185.5 76.5t-185 -73.5t-72 -182.5q0 -105 82 -178t292 -156q75 48 108 127 t33 188zM1117 376q0 -168 -145 -289t-381 -121q-221 0 -354 111t-133 286q0 129 78.5 215.5t232.5 146.5q-127 71 -190 156t-63 192q0 163 138.5 273t331.5 110t312.5 -104t119.5 -261q0 -101 -66 -191.5t-194 -148.5q166 -71 239.5 -157t73.5 -218z"/>
<glyph glyph-name="nine" horiz-adv-x="1159" unicode="9" d="M844 528q0 234 -76.5 366.5t-201.5 132.5q-119 0 -192 -102.5t-73 -282.5q0 -162 74.5 -260t199.5 -98q78 0 143 28.5t121 91.5q0 4 1.5 16t1.5 34q0 14 1 34t1 40zM1056 516q0 -174 -55 -327.5t-158 -269.5q-101 -114 -246.5 -189.5t-325.5 -99.5l-18 90l90 16 q215 68 336 209t156 358q-82 -70 -163.5 -102.5t-183.5 -32.5q-163 0 -283.5 127t-120.5 320q0 207 139.5 349t344.5 142q223 0 355.5 -159t132.5 -431z"/>
<glyph glyph-name="colon" horiz-adv-x="640" unicode=":" d="M457 115q0 -56 -40.5 -95.5t-96.5 -39.5t-96.5 39.5t-40.5 95.5t40.5 96.5t96.5 40.5t96.5 -40.5t40.5 -96.5zM457 853q0 -56 -40.5 -96t-96.5 -40t-96.5 40t-40.5 96t40 96.5t97 40.5t97 -40.5t40 -96.5z"/>
<glyph glyph-name="less" horiz-adv-x="1317" unicode="&lt;" d="M1118 22l-925 481v113l925 481v-137l-769 -400l769 -401v-137z"/>
<glyph glyph-name="equal" horiz-adv-x="1317" unicode="=" d="M1163 311h-1009v125h1009v-125zM1163 683h-1009v125h1009v-125z"/>
<glyph glyph-name="greater" horiz-adv-x="1317" unicode="&gt;" d="M1124 503l-925 -481v137l769 401l-769 400v137l925 -481v-113z"/>
<glyph glyph-name="question" horiz-adv-x="980" unicode="?" d="M531 115q0 -56 -40.5 -95.5t-96.5 -39.5t-96.5 39.5t-40.5 95.5t40.5 96.5t96.5 40.5t96.5 -40.5t40.5 -96.5zM771 1329q55 -58 81.5 -130.5t26.5 -157.5q0 -185 -118 -302t-324 -141v-221h-92v379q63 5 125 20.5t111 50.5q51 37 79.5 89.5t28.5 146.5q0 150 -63.5 230 t-185.5 80q-46 0 -80.5 -13.5t-50.5 -25.5q5 -24 13.5 -69t8.5 -69q0 -37 -32 -67.5t-93 -30.5q-54 0 -77 37t-23 86q0 40 22 78.5t69 74.5q40 32 108.5 55t142.5 23q106 0 188 -33.5t135 -89.5z"/>
<glyph glyph-name="at" horiz-adv-x="1902" unicode="@" d="M1182 742q-14 81 -45 118t-91 37q-64 0 -117.5 -51.5t-90.5 -122.5q-39 -74 -60.5 -161.5t-21.5 -161.5q0 -85 20.5 -130.5t67.5 -45.5q68 0 122 47t101 133zM1530 -119q-100 -87 -237.5 -140.5t-306.5 -53.5q-151 0 -297 48.5t-263 147.5q-116 99 -187 246.5t-71 347.5 q0 171 64 332t183 287q115 123 284.5 198.5t369.5 75.5q173 0 300 -55.5t208 -146.5q81 -90 121.5 -207t40.5 -244q0 -244 -134 -412.5t-339 -168.5q-85 0 -144 42.5t-66 119.5l-7 2q-48 -73 -109.5 -116.5t-124.5 -43.5q-41 0 -83.5 13.5t-75.5 44.5q-33 33 -52.5 86 t-19.5 131q0 73 33.5 163.5t90.5 172.5q57 83 147.5 144t195.5 61q56 0 99.5 -31.5t53.5 -92.5h6l43 112h149l-189 -538q-9 -25 -14.5 -57.5t-5.5 -51.5q0 -51 26 -74.5t67 -23.5q155 0 259 145.5t104 383.5q0 118 -37 218.5t-113 177.5q-73 76 -184 120t-254 44 q-136 0 -265 -53t-235 -156q-103 -100 -167 -249t-64 -337q0 -181 50 -318.5t141 -230.5q89 -90 210 -135t262 -45q159 0 283 43t223 125z"/>
<glyph glyph-name="A" horiz-adv-x="1374" unicode="A" d="M849 580l-215 550l-211 -550h426zM1421 0h-591v71q78 5 129.5 20t51.5 37q0 9 -2 22t-6 23l-118 318h-497q-28 -70 -45.5 -122t-31.5 -96q-13 -43 -18 -70t-5 -44q0 -40 63 -62t142 -26v-71h-534v71q26 2 65 11.5t64 25.5q40 27 62 56.5t43 81.5q107 267 236 600t230 593 h80l473 -1224q15 -39 34 -63t53 -47q23 -14 60 -23.5t62 -10.5v-71z"/>
<glyph glyph-name="B" horiz-adv-x="1339" unicode="B" d="M1001 422q0 126 -84.5 207t-241.5 81q-64 0 -108 -1.5t-66 -2.5v-500q0 -63 51 -95t142 -32q149 0 228 87t79 256zM863 875q37 43 51.5 94t14.5 121q0 117 -64 183.5t-202 66.5q-32 0 -80.5 -1.5t-81.5 -2.5v-545h127q82 0 140.5 21t94.5 63zM1104 661q62 -42 103 -110 t41 -165q0 -99 -43 -172t-112 -120q-67 -46 -151.5 -70t-174.5 -24h-672v71q24 2 70 8.5t66 15.5q31 14 44 37.5t13 60.5v1020q0 34 -11.5 60t-45.5 42q-30 15 -67 23t-62 10v71h655q76 0 145.5 -15t132.5 -53q59 -35 97 -95t38 -146q0 -75 -27 -133.5t-76 -100.5 q-46 -40 -105.5 -67.5t-128.5 -42.5v-9q61 -7 136.5 -30.5t134.5 -65.5z"/>
<glyph glyph-name="C" horiz-adv-x="1315" unicode="C" d="M723 -33q-127 0 -243.5 50t-206.5 144q-89 94 -142 229.5t-53 305.5t52 308.5t144 238.5q91 99 215 153t265 54q105 0 190 -26t162 -73l41 68h80l9 -506h-82q-16 74 -48 160.5t-75 146.5q-48 68 -114 106.5t-151 38.5q-97 0 -180.5 -43t-144.5 -127q-58 -81 -91 -206 t-33 -279q0 -136 34.5 -249.5t98.5 -199.5q64 -85 151.5 -133t195.5 -48q81 0 149 25.5t118 67.5q50 44 88 100t62 122l75 -36q-86 -211 -228 -301.5t-338 -90.5z"/>
<glyph glyph-name="D" horiz-adv-x="1534" unicode="D" d="M1212 702q0 143 -38 258.5t-111 201.5q-69 82 -169.5 129t-223.5 47q-41 0 -92.5 -1.5t-76.5 -2.5v-1091q0 -91 53 -126t163 -35q127 0 222 45t154 125q62 84 90.5 194.5t28.5 255.5zM1457 701q0 -181 -68 -314t-177 -218q-110 -85 -247 -127t-283 -42h-588v71 q29 0 75.5 5.5t61.5 12.5q30 13 43.5 38.5t13.5 61.5v1024q0 34 -11.5 61t-45.5 43q-31 15 -67 22t-62 9v71h620q128 0 252 -39.5t216 -106.5q125 -89 196 -233t71 -339z"/>
<glyph glyph-name="E" horiz-adv-x="1338" unicode="E" d="M1291 418l-27 -418h-1178v71q30 2 80 8.5t65 13.5q32 15 44.5 39t12.5 61v1020q0 33 -11 58.5t-46 41.5q-27 13 -72.5 23t-72.5 12v71h1098v-342h-75q-20 76 -86.5 161.5t-126.5 93.5q-31 4 -74 6t-98 2h-223v-564h160q77 0 112.5 14.5t62.5 48.5q22 29 37.5 77.5 t20.5 91.5h75v-555h-75q-4 48 -21.5 101.5t-36.5 77.5q-31 39 -70.5 51t-104.5 12h-160v-426q0 -64 9 -101t35 -56t71 -24.5t128 -5.5h87t91 4q38 4 78.5 14.5t57.5 28.5q46 48 96.5 145.5t64.5 143.5h72z"/>
<glyph glyph-name="F" horiz-adv-x="1227" unicode="F" d="M1199 1064h-75q-21 79 -87.5 169t-127.5 99q-31 4 -73.5 6t-96.5 2h-238v-570h163q74 0 115 15.5t70 47.5q20 22 36.5 68.5t21.5 99.5h76v-557h-76q-3 44 -20.5 100t-37.5 81q-30 37 -75.5 50.5t-109.5 13.5h-163v-489q0 -33 13 -59t46 -42q15 -7 65 -17t76 -11v-71h-615 v71q30 2 80 6.5t65 11.5q30 13 43.5 38.5t13.5 61.5v1024q0 33 -11 58.5t-46 41.5q-27 13 -72.5 23t-72.5 12v71h1113v-355z"/>
<glyph glyph-name="G" horiz-adv-x="1485" unicode="G" d="M1471 567q-24 -3 -64.5 -9.5t-65.5 -18.5q-30 -15 -42.5 -42.5t-12.5 -64.5v-110q0 -120 1.5 -162t3.5 -69q-133 -60 -265 -92t-259 -32q-136 0 -262 51t-220 145q-95 95 -151 231t-56 304q0 162 53.5 300.5t151.5 240.5q95 100 226.5 155.5t281.5 55.5q120 0 209 -29 t157 -70l41 68h80l9 -496h-82q-21 82 -52 161.5t-80 142.5t-119.5 100.5t-168.5 37.5q-107 0 -191 -43.5t-146 -129.5q-61 -83 -94 -207t-33 -277q0 -135 32.5 -254.5t94.5 -206.5q62 -89 155 -140t211 -51q88 0 160.5 27t102.5 57q8 52 8.5 105t0.5 90v78q0 42 -11.5 74.5 t-47.5 47.5q-33 15 -89.5 22.5t-88.5 9.5v73h622v-73z"/>
<glyph glyph-name="H" horiz-adv-x="1669" unicode="H" d="M1567 0h-589v71q24 2 69.5 6t62.5 12q30 12 44 36.5t14 63.5v505h-667v-494q0 -35 11.5 -59t45.5 -42q17 -9 60.5 -18t68.5 -10v-71h-589v71q24 2 69.5 6t62.5 12q30 12 44 36.5t14 63.5v1024q0 32 -13 58.5t-45 41.5q-27 13 -65.5 23t-66.5 12v71h589v-71 q-28 -1 -68.5 -9t-60.5 -15q-34 -12 -45.5 -40t-11.5 -61v-440h667v430q0 32 -13 58.5t-45 41.5q-27 13 -65.5 23t-66.5 12v71h589v-71q-28 -1 -68.5 -9t-60.5 -15q-34 -12 -45.5 -40t-11.5 -61v-1023q0 -35 11.5 -59t45.5 -42q17 -9 60.5 -18t68.5 -10v-71z"/>
<glyph glyph-name="I" horiz-adv-x="798" unicode="I" d="M718 0h-639v71q27 2 78 6t72 12q33 13 48 35.5t15 62.5v1028q0 35 -11 58.5t-52 39.5q-30 12 -75.5 22.5t-74.5 12.5v71h639v-71q-31 -1 -74 -7.5t-75 -16.5q-38 -12 -51 -39t-13 -60v-1027q0 -33 14.5 -58.5t49.5 -40.5q21 -8 68.5 -17.5t80.5 -10.5v-71z"/>
<glyph glyph-name="J" horiz-adv-x="1060" unicode="J" d="M1006 1348q-28 -1 -69.5 -7.5t-70.5 -16.5q-34 -12 -46 -40t-12 -61v-841q0 -66 -26.5 -140t-77.5 -132q-59 -68 -140.5 -106t-186.5 -38q-163 0 -264.5 91.5t-101.5 246.5q0 68 35 120.5t102 52.5q60 0 96.5 -33.5t36.5 -88.5q0 -32 -13 -64t-29 -57q-15 -23 -34 -54 t-27 -56q21 -33 65.5 -58t119.5 -25q73 0 119.5 33.5t69.5 89.5q22 52 31.5 128t9.5 170v751q0 35 -11.5 58.5t-47.5 41.5q-31 16 -77.5 24.5t-76.5 10.5v71h626v-71z"/>
<glyph glyph-name="K" horiz-adv-x="1422" unicode="K" d="M1475 0h-398q-115 178 -255.5 353.5t-294.5 340.5h-26v-494q0 -33 12.5 -59t45.5 -42q16 -7 59.5 -17t72.5 -11v-71h-589v71q23 2 67 6t62 12q30 13 43.5 38.5t13.5 61.5v1024q0 34 -11.5 59t-45.5 41q-27 13 -64 23t-65 12v71h589v-71q-28 -1 -70 -9t-62 -15 q-34 -12 -46 -40t-12 -61v-490h20q90 76 177 158.5t158 164.5q79 91 115.5 145.5t36.5 96.5q0 15 -18.5 24.5t-42.5 15.5q-28 6 -50 7.5t-36 2.5v71h532v-71q-3 0 -13 -1t-23 -2q-14 -1 -28 -4t-36 -7q-35 -8 -72.5 -25.5t-61.5 -43.5q-103 -117 -215 -242t-222 -228 q152 -172 251.5 -296t211.5 -265q43 -54 86 -86.5t74 -48.5q26 -13 65 -20t65 -8v-71z"/>
<glyph glyph-name="L" horiz-adv-x="1236" unicode="L" d="M1237 422l-30 -422h-1109v71q24 2 69.5 7t63.5 13q30 13 43.5 38t13.5 64v1016q0 34 -11.5 60t-45.5 42q-23 12 -64.5 23.5t-68.5 13.5v71h599v-71q-28 -1 -72.5 -10t-64.5 -16q-34 -12 -46.5 -41t-12.5 -62v-953q0 -66 6.5 -102.5t30.5 -56.5q23 -18 68.5 -23.5 t127.5 -5.5q37 0 77 2t76 8q35 6 64.5 16.5t43.5 26.5q41 46 95.5 139.5t75.5 151.5h71z"/>
<glyph glyph-name="M" horiz-adv-x="1899" unicode="M" d="M1806 0h-627v71q34 1 87.5 7t73.5 17q31 19 45.5 43.5t14.5 61.5v1032h-15l-484 -1209h-50l-461 1234h-13v-847q0 -123 15.5 -187t47.5 -92q22 -21 91 -40t90 -20v-71h-573v71q45 4 94.5 15t76.5 33q35 28 48 86t13 194v726q0 63 -15 103t-43 65q-31 27 -76 40t-89 15v71 h484l406 -1064l347 890q19 49 32.5 102.5t14.5 71.5h463v-71q-28 -1 -71.5 -9t-63.5 -15q-34 -12 -46 -40t-12 -61v-1023q0 -35 12 -59t46 -42q18 -10 64 -18.5t73 -9.5v-71z"/>
<glyph glyph-name="N" horiz-adv-x="1571" unicode="N" d="M1554 1348q-28 -1 -86 -16t-83 -31q-36 -25 -48.5 -96t-12.5 -180v-1039h-87l-860 1161v-732q0 -123 15.5 -189t47.5 -94q23 -22 95 -41t95 -20v-71h-582v71q27 2 91 19.5t80 31.5q35 28 48 85.5t13 196.5v699q0 46 -16 92t-43 71q-36 33 -97.5 56.5t-99.5 25.5v71h405 l798 -1082v675q0 124 -16 190.5t-46 88.5q-28 19 -91.5 37t-96.5 20v71h577v-71z"/>
<glyph glyph-name="O" horiz-adv-x="1524" unicode="O" d="M1095 245q56 91 81.5 206t25.5 257q0 146 -28.5 268t-83.5 208q-55 85 -138 132.5t-190 47.5q-120 0 -204 -55t-137 -147q-50 -88 -74.5 -206t-24.5 -248q0 -144 26 -260t82 -206q54 -88 136 -137.5t196 -49.5q107 0 193 50t140 140zM1244 1251q94 -98 147 -236.5 t53 -306.5q0 -169 -54 -307t-150 -235q-93 -96 -216 -148t-262 -52q-148 0 -273.5 55.5t-215.5 154.5q-90 97 -141.5 235.5t-51.5 296.5q0 173 54 308.5t149 234.5q94 98 218.5 150t260.5 52q141 0 266 -53t216 -149z"/>
<glyph glyph-name="P" horiz-adv-x="1249" unicode="P" d="M880 827q34 48 45 99.5t11 92.5q0 57 -13.5 116t-46.5 103q-35 47 -92 73t-142 26h-141v-627h102q108 0 175.5 33.5t101.5 83.5zM1184 1069q0 -111 -43.5 -196.5t-120.5 -141.5q-76 -56 -167 -82t-193 -26h-159v-430q0 -35 11.5 -61.5t47.5 -40.5q18 -7 63.5 -13t83.5 -7 v-71h-609v71q24 2 69.5 7t63.5 13q30 13 43.5 38t13.5 64v1024q0 35 -10 63t-47 42q-38 13 -75.5 18.5t-64.5 7.5v71h648q198 0 321.5 -95.5t123.5 -254.5z"/>
<glyph glyph-name="Q" horiz-adv-x="1524" unicode="Q" d="M1095 245q56 91 81.5 206t25.5 257q0 146 -28.5 268t-83.5 208q-55 85 -138 132.5t-190 47.5q-120 0 -204 -55t-137 -147q-50 -88 -74.5 -206t-24.5 -248q0 -144 26 -260t82 -206q54 -88 136 -137.5t196 -49.5q107 0 193 50t140 140zM1244 1251q94 -98 147 -236.5 t53 -306.5q0 -134 -35 -248t-99 -204q-61 -86 -145 -150t-188 -101q2 -110 79 -197.5t166 -87.5q82 0 125 5.5t71 10.5v-79q-45 -13 -112.5 -27.5t-187.5 -14.5q-67 0 -131 19.5t-116 62.5t-86.5 109t-44.5 162q-143 5 -265 61.5t-209 154.5q-88 99 -137 232.5t-49 291.5 q0 173 54 308.5t149 234.5q94 98 218.5 150t260.5 52q141 0 266 -53t216 -149z"/>
<glyph glyph-name="R" horiz-adv-x="1437" unicode="R" d="M954 1058q0 129 -74 204.5t-209 75.5h-170v-609h131q138 0 230 88.5t92 240.5zM1480 0h-382q-127 199 -229.5 344t-222.5 299h-145v-450q0 -35 11 -61.5t47 -40.5q18 -7 63 -13t76 -7v-71h-600v71q24 2 69.5 7t63.5 13q30 13 43.5 38t13.5 64v1026q0 35 -10 62t-47 41 q-25 9 -65 16.5t-68 9.5v71h655q90 0 169 -18.5t143 -59.5q62 -40 99 -104.5t37 -155.5q0 -82 -25 -145t-74 -109q-45 -43 -108 -74.5t-139 -53.5q105 -139 174.5 -234t170.5 -231q44 -60 79.5 -88.5t70.5 -46.5q26 -13 65 -20t65 -8v-71z"/>
<glyph glyph-name="S" horiz-adv-x="1149" unicode="S" d="M981 651q45 -50 66.5 -109.5t21.5 -138.5q0 -188 -139 -310t-345 -122q-95 0 -190 29.5t-164 71.5l-43 -73h-80l-14 486h81q25 -90 58.5 -162.5t88.5 -135.5q52 -59 121.5 -94t161.5 -35q69 0 120.5 18t83.5 51t47.5 77.5t15.5 102.5q0 85 -48 158.5t-143 111.5 q-65 26 -149 57.5t-145 59.5q-120 54 -186.5 141.5t-66.5 228.5q0 81 33 151t94 125q58 52 137 81.5t165 29.5q98 0 175.5 -30t141.5 -70l41 68h80l8 -471h-81q-22 81 -49.5 155t-71.5 134q-43 58 -105 92.5t-152 34.5q-95 0 -162 -61t-67 -149q0 -92 43 -152.5t125 -99.5 q73 -35 143.5 -60.5t136.5 -54.5q60 -26 115.5 -59t96.5 -77z"/>
<glyph glyph-name="T" horiz-adv-x="1267" unicode="T" d="M1251 1034h-69q-9 36 -32.5 85.5t-52.5 93.5q-30 46 -65.5 80.5t-68.5 39.5q-31 4 -78 6t-87 2h-58v-1135q0 -33 14 -60.5t49 -42.5q18 -7 75.5 -19t89.5 -13v-71h-670v71q28 2 85.5 8t79.5 15q33 13 48.5 37.5t15.5 65.5v1144h-58q-31 0 -77 -1.5t-88 -6.5 q-33 -4 -68.5 -39.5t-65.5 -80.5t-53 -95.5t-32 -83.5h-70v385h1236v-385z"/>
<glyph glyph-name="U" horiz-adv-x="1549" unicode="U" d="M1533 1348q-28 -1 -82 -12t-88 -33q-34 -23 -47 -95t-13 -176v-617q0 -118 -49 -205t-129 -143q-79 -54 -166.5 -77.5t-167.5 -23.5q-128 0 -228 33.5t-168 90.5q-67 57 -101 130.5t-34 153.5v839q0 35 -11.5 58.5t-46.5 43.5q-25 14 -64 22.5t-64 10.5v71h591v-71 q-28 -1 -70.5 -9t-62.5 -15q-34 -12 -45.5 -40t-11.5 -61v-784q0 -57 12.5 -119.5t49.5 -116.5q39 -55 106 -90t184 -35q110 0 184.5 35t117.5 92q41 54 58 113t17 119v582q0 111 -16 181.5t-47 92.5q-35 25 -95.5 39t-92.5 16v71h580v-71z"/>
<glyph glyph-name="V" horiz-adv-x="1365" unicode="V" d="M1407 1348q-26 -1 -63 -11.5t-61 -25.5q-34 -21 -54.5 -54t-40.5 -78q-67 -159 -201 -495.5t-276 -701.5h-83q-144 387 -278 746t-182 485q-12 31 -32 54.5t-53 44.5q-27 17 -60 25.5t-61 10.5v71h587v-71q-75 -4 -126.5 -15t-51.5 -39q0 -11 4 -26t7 -24 q37 -98 120 -319.5t236 -630.5q76 185 175 437t133 346q33 91 38.5 126t5.5 57q0 23 -20.5 38.5t-54.5 26.5q-33 10 -67 15t-69 8v71h528v-71z"/>
<glyph glyph-name="W" horiz-adv-x="1998" unicode="W" d="M2028 1348q-25 -1 -58 -11.5t-61 -27.5q-35 -22 -56.5 -50.5t-37.5 -79.5q-71 -231 -165 -539.5t-203 -657.5h-92l-358 1092l-373 -1092h-88q-99 350 -205 726.5t-142 504.5q-9 31 -26.5 55t-47.5 44q-25 17 -58.5 25.5t-60.5 10.5v71h579v-71q-76 -4 -129.5 -15 t-53.5 -37q0 -10 3 -26.5t5 -26.5q23 -88 81.5 -290.5t173.5 -606.5l354 1053h98l357 -1076q72 248 124 433.5t86 317.5q24 93 30 127.5t6 58.5q0 34 -46.5 57t-150.5 31v71h515v-71z"/>
<glyph glyph-name="X" horiz-adv-x="1455" unicode="X" d="M1457 0h-664v71q82 2 132.5 15.5t50.5 41.5q0 15 -23 62t-59 105q-40 64 -95 150.5t-109 165.5q-88 -116 -200 -279.5t-112 -192.5q0 -33 30.5 -48.5t134.5 -19.5v-71h-530v71q26 2 66.5 7.5t66.5 18.5q52 28 83.5 60.5t63.5 76.5q64 88 164 219.5t177 239.5 q-58 85 -148 215.5t-192 279.5q-43 63 -67.5 89t-65.5 45q-24 11 -66.5 17.5t-67.5 8.5v71h657v-71q-58 -2 -120.5 -14.5t-62.5 -38.5q0 -19 25 -66.5t59 -101.5q35 -56 78 -124t105 -157q113 153 195 276t82 160q0 32 -37.5 47t-126.5 19v71h529v-71q-25 -1 -65.5 -7.5 t-67.5 -18.5q-52 -25 -77.5 -54t-68.5 -84q-80 -103 -147.5 -193.5t-162.5 -220.5q80 -114 178.5 -259t188.5 -277q31 -45 71 -85.5t65 -55.5q24 -14 64.5 -17.5t68.5 -4.5v-71z"/>
<glyph glyph-name="Y" horiz-adv-x="1260" unicode="Y" d="M1314 1348q-17 -1 -54 -13.5t-53 -24.5q-39 -24 -53 -37t-54 -68q-78 -110 -144 -223t-165 -287q-37 -64 -49 -103t-12 -113v-271q0 -36 14.5 -62.5t49.5 -42.5q21 -8 75 -19.5t87 -12.5v-71h-664v71q28 2 84 7.5t78 14.5q36 15 49.5 41t13.5 64v345q0 16 -19.5 58.5 t-46.5 94.5q-60 116 -133 251t-127 231q-33 57 -58.5 86t-58.5 51q-24 15 -57.5 23t-60.5 10v71h605v-71q-102 -2 -144 -14t-42 -34q0 -6 6 -21t17 -38q13 -26 31 -59.5t34 -64.5q47 -89 96 -177.5t128 -230.5q157 253 239.5 394.5t82.5 169.5q0 23 -17 37t-45 22 q-29 8 -63 10.5t-63 5.5v71h493v-71z"/>
<glyph glyph-name="Z" horiz-adv-x="1232" unicode="Z" d="M1214 443l-47 -443h-1140v35l893 1305h-327q-57 0 -95.5 -2t-70.5 -8q-66 -13 -148.5 -109t-124.5 -203h-70l43 401h1063v-35l-893 -1305h337q85 0 181 12t125 41q65 62 121 152t83 159h70z"/>
<glyph glyph-name="bracketleft" horiz-adv-x="768" unicode="[" d="M701 -310h-533v1829h533v-91h-355v-1646h355v-92z"/>
<glyph glyph-name="backslash" horiz-adv-x="960" unicode="\" d="M911 -424h-130l-691 1947h132z"/>
<glyph glyph-name="bracketright" horiz-adv-x="768" unicode="]" d="M600 -310h-533v92h355v1646h-355v91h533v-1829z"/>
<glyph glyph-name="asciicircum" horiz-adv-x="1317" unicode="^" d="M1126 796h-145l-321 524l-324 -524h-145l412 660h113z"/>
<glyph glyph-name="underscore" horiz-adv-x="1317" unicode="_" d="M1322 -282h-1327v101h1327v-101z"/>
<glyph glyph-name="grave" d="M739 1142l-38 -32q-103 82 -184 143.5t-120 93.5q-38 32 -53.5 52t-15.5 61q0 29 23 53.5t59 24.5q39 0 67 -18t60 -70q34 -55 80 -125.5t122 -182.5z" unicode="`"/>
<glyph glyph-name="a" horiz-adv-x="1032" unicode="a" d="M657 546q-85 -25 -149 -49t-119 -60q-50 -34 -79 -80.5t-29 -110.5q0 -83 43.5 -122t110.5 -39q71 0 125 34.5t91 81.5zM1006 18q-47 -17 -82.5 -27.5t-80.5 -10.5q-78 0 -124.5 36.5t-59.5 106.5h-6q-65 -72 -139.5 -110t-179.5 -38q-111 0 -182.5 68t-71.5 178 q0 57 16 102t48 81q25 30 66 53.5t77 37.5q45 17 182.5 63t185.5 72v99q0 13 -5.5 50t-23.5 70q-20 37 -56.5 64.5t-103.5 27.5q-46 0 -85.5 -15.5t-55.5 -32.5q0 -20 9.5 -59t9.5 -72q0 -35 -31.5 -64t-87.5 -29q-50 0 -73.5 35.5t-23.5 79.5q0 46 32.5 88t84.5 75 q45 28 109 47.5t125 19.5q84 0 146.5 -11.5t113.5 -49.5q51 -37 77.5 -100.5t26.5 -163.5q0 -143 -3 -253.5t-3 -241.5q0 -39 13.5 -62t41.5 -39q15 -9 47.5 -10t66.5 -1v-64z"/>
<glyph glyph-name="b" horiz-adv-x="1147" unicode="b" d="M864 487q0 74 -16 151t-50 134q-34 58 -89 94t-132 36q-70 0 -122.5 -27.5t-94.5 -74.5v-574q6 -24 23.5 -56t47.5 -61q30 -28 68 -45.5t93 -17.5q122 0 197 118t75 323zM1073 494q0 -222 -140 -373t-325 -151q-81 0 -159.5 25t-147.5 67l-74 -115l-62 14q5 74 7 178 t2 201v976q0 34 -15.5 68t-39.5 49q-19 13 -63.5 19.5t-71.5 8.5v64l362 23l14 -15v-650l7 -2q62 66 135.5 99t144.5 33q182 0 304 -144t122 -375z"/>
<glyph glyph-name="c" horiz-adv-x="930" unicode="c" d="M528 -26q-214 0 -335 142t-121 381q0 104 32.5 194.5t94.5 164.5q59 71 148 114.5t194 43.5q145 0 236 -69.5t91 -189.5q0 -50 -24 -88.5t-79 -38.5q-59 0 -91.5 30t-32.5 67q0 45 12 92.5t14 69.5q-18 31 -53.5 41.5t-76.5 10.5q-48 0 -91.5 -20.5t-84.5 -75.5 q-37 -50 -60 -135t-23 -203q0 -186 82.5 -303.5t216.5 -117.5q97 0 162.5 47t121.5 141l64 -42q-66 -118 -174 -187t-223 -69z"/>
<glyph glyph-name="d" horiz-adv-x="1176" unicode="d" d="M791 191v577q-8 26 -26 56t-45 55q-29 25 -68 41.5t-91 16.5q-60 0 -110.5 -31t-89.5 -89q-37 -56 -58.5 -142.5t-21.5 -191.5q0 -84 16 -152.5t54 -127.5q35 -56 89.5 -90t129.5 -34q80 0 132.5 35t88.5 77zM1152 18l-344 -22l-15 14v92l-8 2q-52 -58 -128.5 -95 t-157.5 -37q-84 0 -162.5 37.5t-136.5 105.5q-59 69 -93.5 166t-34.5 214q0 107 37 203t102 168q61 67 149.5 107t180.5 40q69 0 135.5 -17.5t114.5 -44.5v343q0 42 -14 76.5t-39 52.5q-28 19 -75.5 27.5t-102.5 12.5v62l403 23l15 -15v-1330q0 -35 13.5 -59.5t39.5 -41.5 q19 -12 55 -15t66 -4v-65z"/>
<glyph glyph-name="e" horiz-adv-x="990" unicode="e" d="M727 608q0 56 -9.5 120t-30.5 107q-23 46 -63 75t-103 29q-105 0 -174.5 -87.5t-75.5 -243.5h456zM948 232q-62 -118 -166 -188t-239 -70q-119 0 -208.5 42t-147.5 114t-86.5 168t-28.5 203q0 96 30.5 188.5t89.5 166.5q57 71 141.5 114.5t189.5 43.5q108 0 185 -34 t125 -93q46 -56 68.5 -132t22.5 -165v-66h-653q0 -97 18.5 -176t58.5 -139q39 -58 102 -91.5t150 -33.5q89 0 153.5 41.5t124.5 149.5z"/>
<glyph glyph-name="f" horiz-adv-x="666" unicode="f" d="M806 1429q0 -45 -24 -76t-73 -31q-31 0 -54.5 13t-43.5 35t-37 50t-29 45q-67 -3 -103.5 -93.5t-36.5 -288.5v-101h254v-96h-254v-708q0 -35 13.5 -57t42.5 -33q24 -9 64 -14.5t69 -7.5v-66h-520v66q23 2 47.5 4t42.5 8q28 9 41.5 31.5t13.5 58.5v718h-195v96h195v63 q0 225 116.5 364.5t291.5 139.5q89 0 134 -35t45 -85z"/>
<glyph glyph-name="g" horiz-adv-x="1043" unicode="g" d="M839 -140q0 56 -26 92t-79 49q-28 4 -115 9t-202 5q-108 -21 -153.5 -70.5t-45.5 -127.5q0 -35 15 -67t52 -59q35 -26 94 -42.5t144 -16.5q147 0 231.5 56.5t84.5 171.5zM647 687q0 117 -47.5 186.5t-133.5 69.5q-47 0 -80.5 -19.5t-54.5 -55.5q-20 -33 -28.5 -79.5 t-8.5 -95.5q0 -111 48.5 -181t125.5 -70q86 0 132.5 69.5t46.5 175.5zM917 102q40 -38 63 -86t23 -119t-31 -133.5t-94 -108.5q-67 -47 -160 -73t-230 -26q-224 0 -335 65.5t-111 191.5q0 102 80 161t204 64v14q-30 9 -62 22.5t-55 31.5q-26 21 -42 49.5t-16 70.5 q0 53 37.5 97.5t113.5 76.5v15q-96 45 -149 115.5t-53 163.5q0 140 104.5 230t267.5 90q45 0 89.5 -9t90.5 -23h344v-96h-232v-6q37 -43 55 -95t18 -102q0 -130 -105.5 -220t-245.5 -90h-121q-23 -8 -48 -29t-25 -57q0 -37 21 -56.5t51 -26.5q29 -8 67.5 -10t79.5 -3 q44 -1 120.5 -6t108.5 -6q46 -2 92.5 -22t84.5 -55z"/>
<glyph glyph-name="h" horiz-adv-x="1192" unicode="h" d="M1143 0h-484v66q23 2 51 4t46 8q28 9 41.5 31.5t13.5 58.5v507q0 105 -49.5 162t-120.5 57q-52 0 -96.5 -16.5t-79.5 -40.5q-34 -25 -52 -50t-28 -42v-567q0 -34 13.5 -56t41.5 -34q22 -10 45.5 -15t51.5 -7v-66h-484v66q23 2 48 4.5t42 7.5q28 9 42 31.5t14 58.5v1148 q0 34 -15.5 68t-40.5 51q-18 13 -63.5 18.5t-73.5 7.5v64l365 23l14 -15v-688h4q33 33 60 58.5t71 53.5q38 24 89.5 40t115.5 16q132 0 203 -83.5t71 -240.5v-513q0 -35 12.5 -56.5t41.5 -33.5q23 -9 41.5 -13.5t48.5 -6.5v-66z"/>
<glyph glyph-name="i" horiz-adv-x="600" unicode="i" d="M425 1387q0 -57 -37.5 -99.5t-92.5 -42.5q-51 0 -88.5 40.5t-37.5 92.5q0 55 37.5 96t88.5 41q57 0 93.5 -38.5t36.5 -89.5zM551 0h-477v66q23 2 47.5 4t42.5 8q28 9 41.5 31.5t13.5 58.5v609q0 32 -14.5 58.5t-40.5 44.5q-19 12 -55 20.5t-66 10.5v65l348 22l14 -14 v-804q0 -35 13.5 -58t42.5 -34q22 -9 43 -14.5t47 -7.5v-66z"/>
<glyph glyph-name="j" horiz-adv-x="598" unicode="j" d="M446 1388q0 -57 -37.5 -99.5t-92.5 -42.5q-51 0 -88.5 40.5t-37.5 92.5q0 55 37.5 96t88.5 41q57 0 93.5 -38.5t36.5 -89.5zM431 60q0 -110 -32 -206.5t-85 -159.5q-57 -67 -128.5 -102.5t-157.5 -35.5q-89 0 -134 35.5t-45 83.5q0 43 24 75.5t70 32.5q31 0 55 -13 t42 -34q16 -18 32.5 -44.5t31.5 -51.5q76 0 108.5 92t32.5 295v742q0 32 -15.5 61.5t-40.5 47.5q-16 11 -76.5 22t-91.5 14v62l396 22l14 -14v-924z"/>
<glyph glyph-name="k" horiz-adv-x="1097" unicode="k" d="M1117 0h-298q-78 113 -167 242t-185 251l-82 -77v-234q0 -36 13 -59.5t42 -34.5q24 -10 46 -15t51 -7v-66h-484v66q23 2 48 4.5t42 7.5q28 9 42 31.5t14 58.5v1146q0 37 -15.5 69.5t-40.5 49.5q-21 16 -65.5 21t-71.5 7v64l365 23l14 -15v-1043q78 78 168.5 167.5 t152.5 159.5q8 9 17.5 23.5t9.5 23.5q0 27 -43.5 40t-83.5 18v64h434v-62q-84 -25 -148.5 -62.5t-98.5 -67.5q-24 -20 -68 -65t-123 -118q82 -101 184.5 -242t149.5 -204q44 -59 79 -77t102 -22v-66z"/>
<glyph glyph-name="l" horiz-adv-x="586" unicode="l" d="M534 0h-481v66q23 2 49 4.5t43 7.5q28 9 42 31.5t14 58.5v1142q0 36 -15.5 67.5t-40.5 49.5q-18 12 -66 22t-77 12v64l371 23l14 -15v-1353q0 -35 13 -57.5t42 -34.5q22 -10 43.5 -15t48.5 -7v-66z"/>
<glyph glyph-name="m" horiz-adv-x="1804" unicode="m" d="M1761 0h-481v66q23 2 46.5 4t41.5 8q28 9 41.5 31.5t13.5 58.5v509q0 104 -47.5 160.5t-118.5 56.5q-49 0 -92 -15t-79 -42q-29 -22 -48.5 -47.5t-29.5 -42.5v-569q0 -35 12 -57.5t41 -34.5q23 -9 41.5 -13.5t48.5 -6.5v-66h-471v66q23 2 44.5 4t39.5 8q28 9 41.5 31.5 t13.5 58.5v509q0 104 -47.5 160.5t-118.5 56.5q-49 0 -92 -15.5t-79 -42.5q-29 -22 -49 -49.5t-30 -41.5v-565q0 -34 14 -57t42 -35q21 -10 43 -15t49 -7v-66h-479v66q23 2 47.5 4t42.5 8q28 9 41.5 31.5t13.5 58.5v613q0 32 -14.5 57.5t-40.5 43.5q-19 12 -47 19.5t-58 9.5 v65l330 22l14 -14v-141h7q25 25 61 59t67 55q35 24 87.5 40t113.5 16q96 0 165 -51.5t99 -124.5q36 35 63.5 61.5t72.5 56.5q38 26 89.5 42t114.5 16q125 0 198 -82t73 -252v-501q0 -35 12 -57.5t41 -34.5q23 -9 45.5 -13.5t50.5 -6.5v-66z"/>
<glyph glyph-name="n" horiz-adv-x="1210" unicode="n" d="M1161 0h-483v66q23 2 50.5 4t45.5 8q28 9 41.5 31.5t13.5 58.5v507q0 105 -49.5 162t-120.5 57q-53 0 -97 -16.5t-78 -40.5q-33 -23 -52.5 -49.5t-28.5 -42.5v-567q0 -34 14 -56t42 -34q21 -10 45.5 -15t50.5 -7v-66h-483v66q23 2 47.5 4t42.5 8q28 9 41.5 31.5 t13.5 58.5v609q0 34 -14.5 62.5t-40.5 46.5q-19 12 -45 17.5t-56 7.5v65l328 22l14 -14v-139h5q24 24 60 57.5t68 54.5q37 24 88 40t115 16q142 0 210.5 -88.5t68.5 -235.5v-513q0 -35 12 -56.5t41 -33.5q24 -10 41.5 -14t48.5 -6v-66z"/>
<glyph glyph-name="o" horiz-adv-x="1104" unicode="o" d="M826 501q0 75 -15 158.5t-45 141.5q-32 62 -84 99.5t-127 37.5q-77 0 -131.5 -38t-88.5 -104q-32 -61 -45 -139t-13 -151q0 -96 15.5 -177.5t49.5 -145.5t85.5 -100.5t127.5 -36.5q125 0 198 121t73 334zM1033 503q0 -104 -33 -204.5t-94 -170.5q-69 -80 -160 -119 t-204 -39q-94 0 -179 35.5t-151 103.5q-65 67 -103.5 163.5t-38.5 216.5q0 231 134.5 378t352.5 147q207 0 341.5 -139.5t134.5 -371.5z"/>
<glyph glyph-name="p" horiz-adv-x="1170" unicode="p" d="M810 160q40 62 59 144t19 183q0 74 -16 151t-50 134q-34 58 -89 94t-132 36q-74 0 -126 -32.5t-90 -77.5v-583q9 -27 29.5 -56t45.5 -50q31 -25 67 -40.5t88 -15.5q56 0 108 29.5t87 83.5zM973 869q59 -70 91.5 -162.5t32.5 -211.5q0 -117 -39 -213.5t-103 -164.5 q-67 -69 -149 -106t-174 -37q-89 0 -146 20t-93 47h-8v-296q0 -36 14 -60t43 -35q24 -9 68.5 -17.5t73.5 -9.5v-67h-551v67q31 2 60 5t52 10q30 10 42 35t12 59v1049q0 30 -15 58t-39 45q-18 12 -50 18.5t-62 8.5v65l336 22l14 -12v-111l8 -2q52 60 129 100t153 40 q92 0 168.5 -39t131.5 -105z"/>
<glyph glyph-name="q" horiz-adv-x="1146" unicode="q" d="M791 183v589q-8 25 -27 55.5t-45 53.5q-28 24 -68.5 40t-93.5 16q-117 0 -196.5 -121t-79.5 -333q0 -84 15.5 -152t53.5 -127q36 -56 91 -89.5t139 -33.5q72 0 123 30.5t88 71.5zM1154 -444h-533v67q31 2 61 5t54 10q31 10 43 35t12 59v364l-6 2q-16 -18 -45.5 -41.5 t-61.5 -38.5q-40 -21 -77 -32.5t-93 -11.5q-90 0 -169.5 37.5t-138.5 106.5q-59 68 -93.5 167.5t-34.5 218.5q0 113 40 205.5t106 161.5q63 65 151.5 103.5t175.5 38.5q65 0 115.5 -12.5t86.5 -29.5q31 -13 62 -33.5t44 -27.5l85 130l57 -8q-4 -74 -10.5 -182t-6.5 -189 v-912q0 -35 13 -60.5t42 -38.5q24 -10 61 -17.5t60 -9.5v-67z"/>
<glyph glyph-name="r" horiz-adv-x="839" unicode="r" d="M827 859q0 -51 -25 -90.5t-77 -39.5q-56 0 -85.5 29t-29.5 64q0 22 3.5 40t6.5 36q-47 0 -110 -38t-107 -108v-574q0 -35 13.5 -57t42.5 -33q25 -10 64.5 -15t68.5 -7v-66h-520v66q23 2 47.5 4t42.5 8q28 9 41.5 31.5t13.5 58.5v609q0 31 -14.5 61t-40.5 48 q-19 12 -45 17.5t-56 7.5v65l328 22l14 -14v-139h5q62 81 138 123t139 42t102.5 -41t39.5 -110z"/>
<glyph glyph-name="s" horiz-adv-x="885" unicode="s" d="M723 483q41 -36 63 -83t22 -115q0 -137 -102.5 -224t-265.5 -87q-86 0 -158.5 31t-103.5 57l-20 -65h-75l-10 343h69q8 -39 34 -91t63 -94q39 -44 93.5 -74t122.5 -30q96 0 148 43.5t52 124.5q0 42 -16.5 72.5t-48.5 53.5q-33 23 -81 41.5t-107 36.5q-47 14 -104.5 38.5 t-98.5 57.5q-44 35 -72 86t-28 120q0 121 90 205t241 84q58 0 118.5 -15t98.5 -36l23 52h72l15 -317h-69q-21 106 -90.5 172.5t-169.5 66.5q-82 0 -129 -41t-47 -99q0 -45 15.5 -75t46.5 -51q30 -20 75.5 -37.5t112.5 -39.5q66 -21 124.5 -49t96.5 -62z"/>
<glyph glyph-name="t" horiz-adv-x="707" unicode="t" d="M681 43q-65 -27 -123 -45.5t-142 -18.5q-124 0 -174.5 62.5t-50.5 176.5v668h-178v96h182v307h182v-307h283v-96h-281v-551q0 -62 4.5 -103.5t21.5 -72.5q16 -29 48 -44t86 -15q25 0 73.5 4.5t68.5 11.5v-73z"/>
<glyph glyph-name="u" horiz-adv-x="1178" unicode="u" d="M1129 18l-321 -22l-15 14v125h-6q-24 -25 -54 -53.5t-69 -51.5q-45 -27 -87 -41t-119 -14q-131 0 -199.5 85.5t-68.5 248.5v472q0 36 -13.5 60.5t-39.5 42.5q-18 12 -45 17.5t-57 7.5v65l329 24l15 -14v-685q0 -107 48 -161t115 -54q55 0 98 17t72 40q27 21 47.5 44.5 t31.5 43.5v559q0 33 -14 58.5t-39 43.5q-18 12 -53.5 14.5t-79.5 4.5v65l358 24l15 -14v-783q0 -34 14 -58t39 -41q18 -11 43 -14.5t55 -4.5v-65z"/>
<glyph glyph-name="v" horiz-adv-x="1017" unicode="v" d="M1046 925q-45 -8 -85.5 -32.5t-69.5 -86.5q-59 -134 -122 -279.5t-131 -305.5q-20 -46 -42.5 -109t-41.5 -121h-78q-95 235 -175 428.5t-166 396.5q-20 46 -64.5 71.5t-89.5 32.5v66h456v-70q-30 -1 -75 -12.5t-45 -31.5q0 -3 5 -15.5t10 -28.5q41 -102 116 -285 t122 -295q36 86 90.5 214t117.5 286q10 27 19 50.5t9 47.5q0 17 -16.5 30.5t-39.5 23.5t-45 15t-36 7v64h377v-61z"/>
<glyph glyph-name="w" horiz-adv-x="1510" unicode="w" d="M1541 922q-42 -4 -90.5 -35t-70.5 -93q-50 -147 -94.5 -278.5t-99.5 -295.5q-18 -52 -36.5 -112t-33.5 -115h-86l-265 726l-267 -726h-82q-75 222 -146.5 440.5t-126.5 380.5q-16 47 -61 74t-87 32v66h440v-70q-33 -1 -71.5 -11t-38.5 -33q0 -4 3.5 -17t8.5 -28 q32 -105 72.5 -234.5t104.5 -336.5l252 710h96l257 -700q43 134 85.5 259.5t74.5 235.5q7 26 13.5 47.5t6.5 42.5q0 18 -16 32t-39 23q-20 8 -43.5 12t-34.5 4v64h375v-64z"/>
<glyph glyph-name="x" horiz-adv-x="1034" unicode="x" d="M1022 0h-452v66q45 5 76.5 10t31.5 26q0 9 -10 28t-20 35q-25 39 -68.5 104.5t-106.5 156.5q-52 -65 -96 -126.5t-92 -130.5q-7 -10 -14.5 -25t-7.5 -24q0 -22 28.5 -36.5t85.5 -19.5v-64h-365v62q68 20 109.5 48.5t76.5 70.5q31 40 86.5 110t143.5 190 q-51 73 -124.5 178.5t-121.5 175.5q-26 38 -59.5 61.5t-94.5 23.5v66h429v-66q-32 0 -63 -4t-31 -18q0 -9 6 -20t15 -24q22 -34 68.5 -105t100.5 -150q35 48 81.5 112t85.5 122q4 7 8 17.5t4 20.5q0 21 -34.5 33.5t-65.5 17.5v64h364v-62q-77 -20 -120 -47.5t-73 -63.5 q-33 -41 -78.5 -101t-127.5 -168q91 -128 148 -210t115 -169q29 -44 64.5 -69.5t97.5 -29.5v-66z"/>
<glyph glyph-name="y" horiz-adv-x="1008" unicode="y" d="M-3 -322q0 50 27.5 81.5t68.5 31.5q32 0 55 -12t41 -31q15 -15 32 -41t27 -43q50 27 119.5 141t100.5 200q-95 237 -172 424t-161 387q-19 46 -64 71.5t-90 32.5v66h450v-70q-30 -1 -72 -12.5t-42 -26.5q0 -6 4.5 -20t10.5 -29q38 -99 116 -285.5t121 -298.5 q45 107 93.5 221.5t108.5 270.5q7 19 20 52.5t13 57.5q0 26 -45.5 48.5t-86.5 27.5v64h366v-62q-30 -5 -79 -34.5t-73 -83.5q-119 -276 -211.5 -503t-140.5 -334q-63 -140 -112.5 -218.5t-96.5 -123.5q-46 -42 -83.5 -56.5t-77.5 -14.5q-78 0 -122.5 37t-44.5 85z"/>
<glyph glyph-name="z" horiz-adv-x="909" unicode="z" d="M853 0h-798v53l558 852h-138q-87 0 -136 -3t-90 -20q-28 -11 -52.5 -63t-42.5 -136h-61v303h754v-41l-567 -864q36 -1 79 -1.5t93 -0.5q40 0 83.5 1t111.5 5q40 2 60.5 27t31.5 57q11 29 26.5 80t27.5 99h60v-348z"/>
<glyph glyph-name="braceleft" horiz-adv-x="881" unicode="{" d="M814 -333q-105 0 -189 14.5t-141 54.5q-58 41 -87.5 109.5t-29.5 181.5q0 60 7.5 129.5t7.5 124.5q0 72 -21 119.5t-62 76.5q-40 29 -99 42t-128 18v129q70 6 130.5 20.5t97.5 41.5q43 31 62.5 78.5t19.5 115.5q0 57 -7.5 126t-7.5 129q0 104 29.5 175t87.5 113 q57 41 142 56.5t188 15.5v-82q-40 -2 -93 -10.5t-84 -25.5q-36 -20 -58.5 -63.5t-22.5 -117.5v-234q0 -105 -25 -174t-74 -112q-45 -40 -107 -63.5t-138 -37.5v-31q72 -14 135.5 -37t109.5 -64q47 -42 73 -111t26 -175v-233q0 -71 21 -115t60 -67q37 -21 86.5 -28t90.5 -9 v-80z"/>
<glyph glyph-name="bar" horiz-adv-x="768" unicode="|" d="M448 -424h-127v1947h127v-1947z"/>
<glyph glyph-name="braceright" horiz-adv-x="881" unicode="}" d="M809 537q-69 -5 -128.5 -18.5t-98.5 -41.5q-41 -29 -62 -76.5t-21 -119.5q0 -55 7.5 -124.5t7.5 -129.5q0 -113 -29.5 -181.5t-87.5 -109.5q-56 -39 -140.5 -54t-189.5 -15v80q41 2 91 9t86 28q39 23 60 67t21 115v233q0 106 26 175t73 111q46 41 109.5 64t135.5 37v31 q-76 14 -138 37.5t-107 63.5q-49 43 -74 112t-25 174v234q0 74 -22.5 117.5t-58.5 63.5q-31 17 -84 25.5t-93 10.5v82q103 0 188 -15.5t142 -56.5q58 -42 87.5 -113t29.5 -175q0 -60 -7.5 -129t-7.5 -126q0 -68 19.5 -115.5t62.5 -78.5q37 -26 97.5 -41t130.5 -21v-129z"/>
<glyph glyph-name="asciitilde" horiz-adv-x="1317" unicode="~" d="M1187 714q-14 -37 -46.5 -92.5t-72.5 -95.5q-49 -49 -103.5 -77.5t-118.5 -28.5q-72 0 -132 21.5t-110 46.5q-51 26 -100.5 47t-99.5 21q-67 0 -110.5 -46t-85.5 -130l-78 31q13 38 46.5 92t73.5 96q39 42 99.5 74t121.5 32q74 0 133.5 -21.5t110.5 -46.5 q54 -27 98.5 -47.5t99.5 -20.5q70 0 114.5 49t81.5 127z"/>
<glyph glyph-name="exclamdown" horiz-adv-x="678" unicode="¡" d="M472 103q0 -57 -36 -96t-92 -39t-92 38.5t-36 96.5q0 65 32 332.5t55 556.5h78q23 -242 57 -537t34 -352zM481 1309q0 -56 -40.5 -95.5t-96.5 -39.5t-96.5 39.5t-40.5 95.5t40.5 96.5t96.5 40.5t96.5 -40.5t40.5 -96.5z"/>
<glyph glyph-name="cent" horiz-adv-x="1137" unicode="¢" d="M569 100v839q-44 -11 -84 -41.5t-71 -80.5t-50.5 -129.5t-19.5 -180.5q0 -160 59 -266t166 -141zM1040 234q-59 -100 -161.5 -172.5t-227.5 -80.5v-280h-82v281q-205 18 -316.5 160.5t-111.5 356.5q0 193 119 339.5t309 171.5v265h82v-260q146 -1 244 -71.5t98 -188.5 q0 -61 -26.5 -94t-79.5 -33q-65 0 -93.5 30t-28.5 67q0 45 14.5 92t16.5 70q-17 26 -57 40t-88 17v-856q5 0 9 -0.5t11 -0.5q104 0 176.5 48.5t134.5 144.5z"/>
<glyph glyph-name="sterling" horiz-adv-x="1274" unicode="£" d="M299 177h866v-177h-1048v148q69 23 112.5 73t66.5 116q22 61 31 134.5t9 149.5h-167v96h167l-9 120t-6 132q0 212 126.5 349.5t328.5 137.5q88 0 154.5 -27t109.5 -67q44 -42 68 -94.5t24 -107.5q0 -50 -24 -87.5t-80 -37.5q-59 0 -93 29.5t-34 67.5q0 44 12.5 91 t17.5 69q-13 28 -55 56t-104 28q-35 0 -75.5 -10t-81.5 -43q-39 -32 -64 -91t-25 -149q0 -64 5 -177.5t5 -188.5h396v-96h-396q0 -136 -60 -247.5t-177 -187.5v-9z"/>
<glyph glyph-name="currency" horiz-adv-x="1170" unicode="¤" d="M747 559q0 68 -47.5 116.5t-114.5 48.5t-114.5 -48t-47.5 -117q0 -67 47.5 -116t114.5 -49t114.5 48t47.5 117zM1005 228l-86 -87l-188 184q-31 -19 -68.5 -30.5t-77.5 -11.5q-36 0 -75 11.5t-69 30.5l-189 -186l-85 90l184 186q-20 31 -31 69.5t-11 74.5q0 42 10.5 76 t31.5 68l-184 189l88 86l186 -185q25 17 69 29.5t75 12.5q40 0 78.5 -12t66.5 -29l185 184l90 -85l-186 -190q20 -31 31.5 -69.5t11.5 -74.5q0 -39 -12.5 -78t-30.5 -66z"/>
<glyph glyph-name="yen" horiz-adv-x="1259" unicode="¥" d="M1282 1348q-17 -1 -54 -13.5t-53 -24.5q-39 -24 -53.5 -36.5t-53.5 -68.5q-113 -168 -176.5 -277.5t-165.5 -284.5v-83h393v-96h-393v-257q0 -36 13 -62.5t45 -42.5q18 -8 66.5 -19t78.5 -12v-71h-610v71q24 2 74.5 7t70.5 14q29 13 43 38.5t14 66.5v267h-393v96h393v64 q-87 176 -148 286t-150 268q-33 57 -58.5 86t-58.5 51q-24 15 -57.5 23t-60.5 10v71h579v-71q-97 -4 -132 -14t-35 -34q0 -11 17 -46t59 -113t87.5 -159.5t124.5 -223.5q114 190 202.5 340t88.5 175q0 23 -15 37t-41 22q-27 8 -53 10.5t-60 5.5v71h472v-71z"/>
<glyph glyph-name="brokenbar" horiz-adv-x="768" unicode="¦" d="M448 -424h-127v810h127v-810zM448 723h-127v800h127v-800z"/>
<glyph glyph-name="section" d="M748 587q0 88 -77.5 156t-224.5 119q-92 -38 -132 -95.5t-40 -130.5q0 -98 75.5 -162t232.5 -127q92 52 129 110.5t37 129.5zM903 634q0 -100 -67 -186.5t-183 -129.5q110 -47 159 -113t49 -154q0 -65 -28 -122t-80 -98q-56 -43 -126 -66t-170 -23q-91 0 -147.5 17.5 t-90.5 44.5t-47.5 56t-13.5 54q0 44 25.5 72.5t73.5 28.5q34 0 57 -19t38 -44q16 -25 31 -61t27 -62q16 -4 34.5 -7t48.5 -3q91 0 153.5 55.5t62.5 125.5q0 61 -51.5 118.5t-227.5 124.5q-169 66 -239 151.5t-70 201.5q0 95 59 173t182 131q-107 51 -155.5 112.5 t-48.5 148.5q0 62 26 114t79 93q49 39 127 62.5t170 23.5q90 0 149 -18.5t91 -44.5t45 -56.5t13 -54.5q0 -46 -26 -72.5t-73 -26.5q-32 0 -55 18t-40 45q-19 31 -30.5 60t-27.5 63q-14 4 -38 7t-45 3q-92 0 -151.5 -52t-59.5 -127q0 -41 21 -71.5t60 -56.5 q39 -27 106.5 -56.5t118.5 -50.5q149 -62 217 -143.5t68 -185.5z" unicode="§"/>
<glyph glyph-name="dieresis" d="M415 1364q0 -51 -34.5 -87t-83.5 -36t-83.5 36t-34.5 87t34.5 87t83.5 36t83.5 -36t34.5 -87zM845 1364q0 -51 -34.5 -87t-83.5 -36t-83.5 36t-34.5 87t34.5 87t83.5 36t83.5 -36t34.5 -87z" unicode="¨"/>
<glyph glyph-name="copyright" horiz-adv-x="1929" unicode="©" d="M1375 404q-21 -52 -55.5 -106t-80.5 -93q-52 -44 -111 -69t-146 -25q-107 0 -197.5 33t-156.5 97q-65 63 -100.5 152t-35.5 199q0 105 38 196t108 160q67 66 164.5 105t208.5 39q58 0 122.5 -20t96.5 -44l45 66h59l5 -363h-54q-20 60 -41.5 108.5t-59.5 91.5 q-35 40 -86 64t-126 24q-120 0 -196.5 -111.5t-76.5 -305.5q0 -183 92.5 -289.5t231.5 -106.5q101 0 172 53.5t122 169.5zM1750 602q0 325 -229 560t-557 235t-556.5 -235t-228.5 -560t228.5 -560t556.5 -235t557 235t229 560zM1849 602q0 -366 -259.5 -624.5t-625.5 -258.5 t-625 258.5t-259 624.5t259 624.5t625 258.5t625.5 -258.5t259.5 -624.5z"/>
<glyph glyph-name="ordfeminine" d="M636 1075q-77 -23 -124.5 -39.5t-94.5 -44.5q-40 -24 -63 -59t-23 -82q0 -66 32 -97t85 -31q68 0 111 26.5t73 60.5zM933 648q-39 -13 -71.5 -22t-70.5 -9q-65 0 -103.5 31.5t-49.5 88.5h-5q-55 -58 -120 -91t-149 -33q-89 0 -148.5 57t-59.5 143q0 51 14 90t38 68 q24 26 55 41.5t64 28.5q70 28 162.5 56.5t145.5 56.5v55q0 10 -5.5 41t-19.5 56q-16 30 -48 52.5t-85 22.5q-33 0 -63.5 -12.5t-45.5 -27.5q2 -15 8.5 -45.5t6.5 -52.5q0 -29 -31 -50.5t-77 -21.5q-44 0 -62.5 30.5t-18.5 65.5q0 76 96 131t197 55q67 0 122.5 -10.5 t96.5 -38.5q43 -30 66.5 -80t23.5 -134q0 -116 -2.5 -200.5t-2.5 -191.5q0 -30 11.5 -49t35.5 -32q15 -8 41.5 -8.5t53.5 -0.5v-60z" unicode="ª"/>
<glyph glyph-name="guillemotleft" horiz-adv-x="1190" unicode="«" d="M616 160l-49 -40l-355 332q-9 8 -25.5 27t-16.5 49t15.5 48t29.5 32l352 329l49 -41l-259 -367zM997 160l-49 -40l-355 332q-9 8 -25.5 27t-16.5 49t16.5 49t28.5 31l352 329l49 -41l-259 -367z"/>
<glyph glyph-name="logicalnot" horiz-adv-x="1317" unicode="¬" d="M1163 76h-132v451h-887v125h1019v-576z"/>
<glyph glyph-name="registered" horiz-adv-x="1929" unicode="®" d="M1155 834q0 83 -50 126t-147 43h-116v-378h87q104 0 165 55t61 154zM1542 145h-287q-95 134 -165 223.5t-143 180.5h-105v-262q0 -22 8.5 -40.5t33.5 -27.5q11 -4 46 -9.5t53 -6.5v-58h-439v58q18 2 49 6t46 10q22 9 31.5 26t9.5 42v642q0 24 -7 41.5t-34 26.5 q-21 7 -48 12.5t-47 7.5v58h492q56 0 110 -12t98 -38q43 -26 70 -68.5t27 -102.5q0 -109 -59.5 -171t-175.5 -94q81 -98 136.5 -166.5t99.5 -123.5q28 -35 55 -52t52 -25q20 -7 48 -12.5t45 -6.5v-58zM1750 602q0 325 -229 560t-557 235t-556.5 -235t-228.5 -560t228.5 -560 t556.5 -235t557 235t229 560zM1849 602q0 -366 -259.5 -624.5t-625.5 -258.5t-625 258.5t-259 624.5t259 624.5t625 258.5t625.5 -258.5t259.5 -624.5z"/>
<glyph glyph-name="overscore" horiz-adv-x="1317" unicode="¯" d="M1322 1603h-1327v101h1327v-101z"/>
<glyph glyph-name="degree" horiz-adv-x="859" unicode="°" d="M607 1120q0 125 -49 191.5t-130 66.5q-82 0 -129 -67t-47 -180q0 -117 47 -185t133 -68q67 0 121 61.5t54 180.5zM755 1128q0 -137 -91.5 -231t-234.5 -94q-144 0 -234.5 95t-90.5 230q0 141 93 233t232 92q143 0 234.5 -94t91.5 -231z"/>
<glyph glyph-name="plusminus" horiz-adv-x="1317" unicode="±" d="M1168 0h-1019v125h446v402h-446v125h446v451h127v-451h446v-125h-446v-402h446v-125z"/>
<glyph glyph-name="twosuperior" d="M900 490h-753v111q39 65 119 128t193 134q35 22 77.5 58.5t65.5 67.5q30 40 45.5 83.5t15.5 109.5q0 96 -49 146t-129 50q-57 0 -97.5 -19.5t-58.5 -45.5q6 -24 13.5 -54.5t7.5 -63.5q0 -31 -27.5 -54t-80.5 -23q-48 0 -68.5 31.5t-20.5 70.5q0 91 104.5 162t242.5 71 q157 0 256 -75.5t99 -202.5q0 -75 -22.5 -130.5t-59.5 -94.5q-39 -41 -87.5 -71t-100.5 -55q-64 -31 -155.5 -83t-150.5 -107h621v-144z" unicode="²"/>
<glyph glyph-name="threesuperior" d="M795 927q37 -27 61 -70.5t24 -105.5q0 -126 -115 -211t-307 -85q-135 0 -233 58t-98 142q0 45 23.5 72.5t60.5 27.5q52 0 79 -22.5t27 -49.5q0 -22 -7.5 -52t-13.5 -50q25 -21 70 -37t98 -16q101 0 162.5 57.5t61.5 169.5q0 35 -8.5 68.5t-30.5 57.5t-62.5 38t-102.5 14 h-107v94h76q103 0 147.5 49t44.5 150q0 72 -41.5 113.5t-120.5 41.5q-45 0 -82 -15t-60 -44q5 -17 12 -50.5t7 -56.5q0 -26 -28.5 -48.5t-78.5 -22.5q-46 0 -66.5 28.5t-20.5 64.5q0 37 22 73t69 70q40 30 111 51.5t148 21.5q93 0 157.5 -24t102.5 -62q36 -37 48.5 -75.5 t12.5 -63.5q0 -30 -10.5 -65.5t-33.5 -63.5q-24 -29 -64.5 -55.5t-105.5 -44.5v-9q41 -4 90 -20.5t82 -42.5z" unicode="³"/>
<glyph glyph-name="acute" d="M696 1460q0 -38 -17.5 -62t-51.5 -51q-50 -40 -130.5 -102t-173.5 -135l-38 32q90 133 125.5 187.5t76.5 120.5q31 51 60 69.5t67 18.5q36 0 59 -24.5t23 -53.5z" unicode="´"/>
<glyph glyph-name="mu1" horiz-adv-x="1160" unicode="µ" d="M1133 19q-47 -17 -83.5 -27.5t-81.5 -10.5q-77 0 -128.5 39t-64.5 115h-6q-25 -26 -57.5 -58t-63.5 -50q-41 -24 -80 -36t-114 -12q-58 0 -111 24t-79 57h-6v-58q0 -68 26.5 -182t26.5 -162q0 -49 -31 -75.5t-68 -26.5q-40 0 -65.5 27t-25.5 73q0 59 18 154t24 146 q7 55 9.5 98.5t2.5 81.5v850h189v-677q0 -104 46.5 -160.5t117.5 -56.5q55 0 98.5 16t70.5 37q25 20 45 43t31 43v755h189v-784q0 -43 13 -68t43 -40q17 -9 49 -10t66 -1v-64z"/>
<glyph glyph-name="paragraph" d="M1000 1345h-111v-1561h-103v1561h-160v-1561h-103v922q-193 0 -308.5 92.5t-115.5 260.5q0 162 107 261t277 99h517v-74z" unicode="¶"/>
<glyph glyph-name="middot" horiz-adv-x="572" unicode="·" d="M425 559q0 -56 -40.5 -95.5t-96.5 -39.5t-96.5 39.5t-40.5 95.5t40.5 96.5t96.5 40.5t96.5 -40.5t40.5 -96.5z"/>
<glyph glyph-name="cedilla" d="M630 -129q34 -16 55 -45.5t21 -73.5q0 -58 -32 -98t-89 -62q-55 -20 -122 -28t-156 -8v72q41 0 89 1t82 9q40 9 62 27.5t22 52.5q0 49 -55 62t-110 13v224h79v-116q45 0 81 -5.5t73 -24.5z" unicode="¸"/>
<glyph glyph-name="onesuperior" d="M789 490h-565v71q30 1 84 4.5t74 10.5t32.5 23t12.5 42v631h-207v78h62q78 0 146 28.5t102 66.5h73q-2 -45 -4.5 -119.5t-2.5 -117.5v-559q0 -23 11.5 -41t31.5 -27q19 -8 68.5 -14t81.5 -6v-71z" unicode="¹"/>
<glyph glyph-name="ordmasculine" d="M673 785q24 47 37 111.5t13 139.5q0 63 -10.5 125t-34.5 110q-25 49 -65 78.5t-98 29.5q-61 0 -103 -30.5t-67 -81.5q-25 -48 -35 -110.5t-10 -116.5q0 -75 12 -139t38 -113t66.5 -78.5t97.5 -29.5q54 0 94 28t65 77zM908 1038q0 -185 -109 -308.5t-295 -123.5 q-161 0 -274.5 118t-113.5 303q0 187 111 306.5t290 119.5q174 0 282.5 -116t108.5 -299z" unicode="º"/>
<glyph glyph-name="guillemotright" horiz-adv-x="1190" unicode="»" d="M639 528q0 -32 -17 -50.5t-25 -25.5l-355 -332l-49 40l259 369l-259 367l49 41l352 -329q10 -9 27.5 -30.5t17.5 -49.5zM1020 528q0 -32 -17 -50.5t-25 -25.5l-355 -332l-49 40l259 369l-259 367l49 41l352 -329q11 -10 28 -32.5t17 -47.5z"/>
<glyph glyph-name="onequarter" horiz-adv-x="2150" unicode="¼" d="M700 490h-565v71q30 1 84 4.5t74 10.5t32.5 23t12.5 42v631h-207v78h62q78 0 146 28.5t102 66.5h73q-2 -45 -4.5 -119.5t-2.5 -117.5v-559q0 -23 11.5 -41t31.5 -27q19 -8 68.5 -14t81.5 -6v-71zM1447 1419l-739 -1419h-135l737 1419h137zM1663 321v453l-393 -453h393z M1988 212h-159v-232h-166v232h-495v126l543 623h118v-640h159v-109z"/>
<glyph glyph-name="onehalf" horiz-adv-x="2150" unicode="½" d="M700 490h-565v71q30 1 84 4.5t74 10.5t32.5 23t12.5 42v631h-207v78h62q78 0 146 28.5t102 66.5h73q-2 -45 -4.5 -119.5t-2.5 -117.5v-559q0 -23 11.5 -41t31.5 -27q19 -8 68.5 -14t81.5 -6v-71zM1437 1419l-739 -1419h-135l737 1419h137zM2044 0h-753v111q39 65 119 128 t193 134q35 22 77.5 58.5t65.5 67.5q30 40 45.5 83.5t15.5 109.5q0 96 -49 146t-129 50q-57 0 -97.5 -19.5t-58.5 -45.5q6 -24 13.5 -54.5t7.5 -63.5q0 -31 -27.5 -54t-80.5 -23q-48 0 -68.5 31.5t-20.5 70.5q0 91 104.5 162t242.5 71q157 0 256 -75.5t99 -202.5 q0 -75 -22.5 -130.5t-59.5 -94.5q-39 -41 -87.5 -71t-100.5 -55q-64 -31 -155.5 -83t-150.5 -107h621v-144z"/>
<glyph glyph-name="threequarters" horiz-adv-x="2150" unicode="¾" d="M785 927q37 -27 61 -70.5t24 -105.5q0 -126 -115 -211t-307 -85q-135 0 -233 58t-98 142q0 45 23.5 72.5t60.5 27.5q52 0 79 -22.5t27 -49.5q0 -22 -7.5 -52t-13.5 -50q25 -21 70 -37t98 -16q101 0 162.5 57.5t61.5 169.5q0 35 -8.5 68.5t-30.5 57.5t-62.5 38t-102.5 14 h-107v94h76q103 0 147.5 49t44.5 150q0 72 -41.5 113.5t-120.5 41.5q-45 0 -82 -15t-60 -44q5 -17 12 -50.5t7 -56.5q0 -26 -28.5 -48.5t-78.5 -22.5q-46 0 -66.5 28.5t-20.5 64.5q0 37 22 73t69 70q40 30 111 51.5t148 21.5q93 0 157.5 -24t102.5 -62q36 -37 48.5 -75.5 t12.5 -63.5q0 -30 -10.5 -65.5t-33.5 -63.5q-24 -29 -64.5 -55.5t-105.5 -44.5v-9q41 -4 90 -20.5t82 -42.5zM1599 1419l-739 -1419h-135l737 1419h137zM1753 321v453l-393 -453h393zM2078 212h-159v-232h-166v232h-495v126l543 623h118v-640h159v-109z"/>
<glyph glyph-name="questiondown" horiz-adv-x="980" unicode="¿" d="M874 205q0 -40 -22 -78.5t-69 -74.5q-41 -31 -109 -54.5t-142 -23.5q-106 0 -187.5 33t-135.5 90q-55 58 -81.5 130.5t-26.5 157.5q0 185 118 302t324 141v221h92v-379q-63 -5 -125 -20.5t-111 -50.5q-51 -37 -79.5 -89.5t-28.5 -146.5q0 -150 63.5 -230t185.5 -80 q46 0 80.5 13.5t50.5 25.5q-5 24 -13.5 69t-8.5 69q0 37 32 67.5t93 30.5q54 0 77 -37t23 -86zM723 1311q0 -56 -40.5 -96.5t-96.5 -40.5t-96.5 40.5t-40.5 96.5t40.5 95.5t96.5 39.5t96.5 -39.5t40.5 -95.5z"/>
<glyph glyph-name="Agrave" horiz-adv-x="1374" unicode="À" d="M849 580l-215 550l-211 -550h426zM1421 0h-591v71q78 5 129.5 20t51.5 37q0 9 -2 22t-6 23l-118 318h-497q-28 -70 -45.5 -122t-31.5 -96q-13 -43 -18 -70t-5 -44q0 -40 63 -62t142 -26v-71h-534v71q26 2 65 11.5t64 25.5q40 27 62 56.5t43 81.5q107 267 236 600t230 593 h80l473 -1224q15 -39 34 -63t53 -47q23 -14 60 -23.5t62 -10.5v-71zM939 1546l-31 -39q-117 58 -209.5 102t-136.5 66q-49 25 -70.5 48.5t-21.5 64.5q0 35 25 57.5t67 22.5q30 0 55.5 -13.5t59.5 -49.5q46 -48 103.5 -105.5t158.5 -153.5z"/>
<glyph glyph-name="Aacute" horiz-adv-x="1374" unicode="Á" d="M849 580l-215 550l-211 -550h426zM1421 0h-591v71q78 5 129.5 20t51.5 37q0 9 -2 22t-6 23l-118 318h-497q-28 -70 -45.5 -122t-31.5 -96q-13 -43 -18 -70t-5 -44q0 -40 63 -62t142 -26v-71h-534v71q26 2 65 11.5t64 25.5q40 27 62 56.5t43 81.5q107 267 236 600t230 593 h80l473 -1224q15 -39 34 -63t53 -47q23 -14 60 -23.5t62 -10.5v-71zM893 1675q-44 -22 -136.5 -66.5t-209.5 -101.5l-31 39q91 87 148.5 143.5t113.5 115.5q32 34 58.5 48.5t56.5 14.5q38 0 65 -23t27 -57q0 -43 -26 -68t-66 -45z"/>
<glyph glyph-name="Acircumflex" horiz-adv-x="1374" unicode="Â" d="M849 580l-215 550l-211 -550h426zM1421 0h-591v71q78 5 129.5 20t51.5 37q0 9 -2 22t-6 23l-118 318h-497q-28 -70 -45.5 -122t-31.5 -96q-13 -43 -18 -70t-5 -44q0 -40 63 -62t142 -26v-71h-534v71q26 2 65 11.5t64 25.5q40 27 62 56.5t43 81.5q107 267 236 600t230 593 h80l473 -1224q15 -39 34 -63t53 -47q23 -14 60 -23.5t62 -10.5v-71zM1026 1539l-48 -32l-279 212l-275 -212l-48 32l234 284q18 22 35.5 33.5t57.5 11.5q41 0 56.5 -11t30.5 -30z"/>
<glyph glyph-name="Atilde" horiz-adv-x="1374" unicode="Ã" d="M849 580l-215 550l-211 -550h426zM1421 0h-591v71q78 5 129.5 20t51.5 37q0 9 -2 22t-6 23l-118 318h-497q-28 -70 -45.5 -122t-31.5 -96q-13 -43 -18 -70t-5 -44q0 -40 63 -62t142 -26v-71h-534v71q26 2 65 11.5t64 25.5q40 27 62 56.5t43 81.5q107 267 236 600t230 593 h80l473 -1224q15 -39 34 -63t53 -47q23 -14 60 -23.5t62 -10.5v-71zM1087 1825q-10 -38 -30 -78t-55 -79q-36 -39 -75.5 -62.5t-94.5 -23.5q-57 0 -100 16.5t-74 34.5q-35 20 -66.5 36t-69.5 16q-31 0 -46.5 -8t-32.5 -27q-16 -18 -32 -47.5t-30 -53.5l-58 25q10 32 34 77 t52 79q30 36 73 61.5t90 25.5q56 0 96.5 -16.5t74.5 -35.5q38 -21 64 -36t64 -15q40 0 64.5 9.5t38.5 26.5q16 19 26.5 41t25.5 57z"/>
<glyph glyph-name="Adieresis" horiz-adv-x="1374" unicode="Ä" d="M849 580l-215 550l-211 -550h426zM1421 0h-591v71q78 5 129.5 20t51.5 37q0 9 -2 22t-6 23l-118 318h-497q-28 -70 -45.5 -122t-31.5 -96q-13 -43 -18 -70t-5 -44q0 -40 63 -62t142 -26v-71h-534v71q26 2 65 11.5t64 25.5q40 27 62 56.5t43 81.5q107 267 236 600t230 593 h80l473 -1224q15 -39 34 -63t53 -47q23 -14 60 -23.5t62 -10.5v-71zM588 1718q0 -51 -34.5 -87t-83.5 -36t-83.5 36t-34.5 87t34.5 87t83.5 36t83.5 -36t34.5 -87zM1038 1718q0 -51 -34.5 -87t-83.5 -36t-83.5 36t-34.5 87t34.5 87t83.5 36t83.5 -36t34.5 -87z"/>
<glyph glyph-name="Aring" horiz-adv-x="1374" unicode="Å" d="M829 1646q0 68 -33.5 113t-98.5 45q-63 0 -97.5 -43t-34.5 -115q0 -69 34 -115t98 -46t98 45.5t34 115.5zM849 580l-215 550l-211 -550h426zM1421 0h-591v71q78 5 129.5 20t51.5 37q0 9 -2 22t-6 23l-118 318h-497q-28 -70 -45.5 -122t-31.5 -96q-13 -42 -18 -69.5 t-5 -44.5q0 -40 63 -62t142 -26v-71h-534v71q26 2 65.5 11.5t63.5 25.5q40 27 62 56.5t43 81.5q102 255 226.5 577t234.5 602q-101 12 -158 71.5t-57 149.5q0 98 75 160t183 62q112 0 185 -60.5t73 -161.5q0 -86 -58 -147t-153 -73l468 -1211q15 -39 34 -63t53 -47 q22 -15 59.5 -24t62.5 -10v-71z"/>
<glyph glyph-name="AE" horiz-adv-x="1988" unicode="Æ" d="M948 690v641h-77l-354 -641h431zM1941 418l-27 -418h-1168v71q24 2 74.5 7.5t70.5 14.5q32 15 44.5 39t12.5 61v409h-480q-43 -71 -80.5 -139.5t-98.5 -192.5q-13 -25 -22 -51t-9 -49q0 -45 42.5 -69.5t125.5 -29.5v-71h-523v71q28 2 66.5 13t63.5 25q35 20 65.5 55.5 t55.5 79.5q154 265 303 529t309 553q-25 9 -77 14.5t-93 7.5v71h1238v-342h-75q-19 76 -86 161.5t-127 93.5q-31 4 -74 6t-98 2h-213v-564h150q76 0 112.5 14.5t62.5 48.5q22 29 37.5 77.5t20.5 91.5h75v-555h-75q-4 48 -21.5 101.5t-36.5 77.5q-31 39 -70 51t-105 12h-150 v-426q0 -64 9 -101t35 -56q27 -19 71.5 -24.5t127.5 -5.5h85.5t87.5 4q41 5 77.5 14.5t53.5 28.5q46 48 96.5 145.5t64.5 143.5h72z"/>
<glyph glyph-name="Ccedilla" horiz-adv-x="1315" unicode="Ç" d="M669 -30q-111 9 -213.5 58t-182.5 133q-89 94 -142 229.5t-53 305.5t52 308.5t144 238.5q91 99 215 153t265 54q105 0 190 -26t162 -73l41 68h80l9 -506h-82q-16 74 -48 160.5t-75 146.5q-48 68 -114 106.5t-151 38.5q-97 0 -180.5 -43t-144.5 -127q-58 -81 -91 -206 t-33 -279q0 -136 34.5 -249.5t98.5 -199.5q64 -85 151.5 -133t195.5 -48q81 0 149 25.5t118 67.5q50 44 88 100t62 122l75 -36q-82 -204 -218.5 -294.5t-322.5 -96.5v-67q45 0 81 -5.5t73 -24.5q34 -16 55 -45.5t21 -73.5q0 -58 -32 -98t-89 -62q-55 -20 -122 -28t-156 -8 v72q41 0 89 1t82 9q40 9 62 27.5t22 52.5q0 24 -15 39.5t-40 23.5q-20 7 -53.5 9.5t-56.5 2.5v177z"/>
<glyph glyph-name="Egrave" horiz-adv-x="1338" unicode="È" d="M1291 418l-27 -418h-1178v71q30 2 80 8.5t65 13.5q32 15 44.5 39t12.5 61v1020q0 33 -11 58.5t-46 41.5q-27 13 -72.5 23t-72.5 12v71h1098v-342h-75q-20 76 -86.5 161.5t-126.5 93.5q-31 4 -74 6t-98 2h-223v-564h160q77 0 112.5 14.5t62.5 48.5q22 29 37.5 77.5 t20.5 91.5h75v-555h-75q-4 48 -21.5 101.5t-36.5 77.5q-31 39 -70.5 51t-104.5 12h-160v-426q0 -64 9 -101t35 -56t71 -24.5t128 -5.5h87t91 4q38 4 78.5 14.5t57.5 28.5q46 48 96.5 145.5t64.5 143.5h72zM846 1546l-31 -39q-117 58 -209.5 102t-136.5 66q-49 25 -70.5 48.5 t-21.5 64.5q0 35 25 57.5t67 22.5q30 0 55.5 -13.5t59.5 -49.5q46 -48 103.5 -105.5t158.5 -153.5z"/>
<glyph glyph-name="Eacute" horiz-adv-x="1338" unicode="É" d="M1291 418l-27 -418h-1178v71q30 2 80 8.5t65 13.5q32 15 44.5 39t12.5 61v1020q0 33 -11 58.5t-46 41.5q-27 13 -72.5 23t-72.5 12v71h1098v-342h-75q-20 76 -86.5 161.5t-126.5 93.5q-31 4 -74 6t-98 2h-223v-564h160q77 0 112.5 14.5t62.5 48.5q22 29 37.5 77.5 t20.5 91.5h75v-555h-75q-4 48 -21.5 101.5t-36.5 77.5q-31 39 -70.5 51t-104.5 12h-160v-426q0 -64 9 -101t35 -56t71 -24.5t128 -5.5h87t91 4q38 4 78.5 14.5t57.5 28.5q46 48 96.5 145.5t64.5 143.5h72zM871 1675q-44 -22 -136.5 -66.5t-209.5 -101.5l-31 39 q91 87 148.5 143.5t113.5 115.5q32 34 58.5 48.5t56.5 14.5q38 0 65 -23t27 -57q0 -43 -26 -68t-66 -45z"/>
<glyph glyph-name="Ecircumflex" horiz-adv-x="1338" unicode="Ê" d="M1291 418l-27 -418h-1178v71q30 2 80 8.5t65 13.5q32 15 44.5 39t12.5 61v1020q0 33 -11 58.5t-46 41.5q-27 13 -72.5 23t-72.5 12v71h1098v-342h-75q-20 76 -86.5 161.5t-126.5 93.5q-31 4 -74 6t-98 2h-223v-564h160q77 0 112.5 14.5t62.5 48.5q22 29 37.5 77.5 t20.5 91.5h75v-555h-75q-4 48 -21.5 101.5t-36.5 77.5q-31 39 -70.5 51t-104.5 12h-160v-426q0 -64 9 -101t35 -56t71 -24.5t128 -5.5h87t91 4q38 4 78.5 14.5t57.5 28.5q46 48 96.5 145.5t64.5 143.5h72zM1004 1539l-48 -32l-279 212l-275 -212l-48 32l234 284 q18 22 35.5 33.5t57.5 11.5q41 0 56.5 -11t30.5 -30z"/>
<glyph glyph-name="Edieresis" horiz-adv-x="1338" unicode="Ë" d="M1291 418l-27 -418h-1178v71q30 2 80 8.5t65 13.5q32 15 44.5 39t12.5 61v1020q0 33 -11 58.5t-46 41.5q-27 13 -72.5 23t-72.5 12v71h1098v-342h-75q-20 76 -86.5 161.5t-126.5 93.5q-31 4 -74 6t-98 2h-223v-564h160q77 0 112.5 14.5t62.5 48.5q22 29 37.5 77.5 t20.5 91.5h75v-555h-75q-4 48 -21.5 101.5t-36.5 77.5q-31 39 -70.5 51t-104.5 12h-160v-426q0 -64 9 -101t35 -56t71 -24.5t128 -5.5h87t91 4q38 4 78.5 14.5t57.5 28.5q46 48 96.5 145.5t64.5 143.5h72zM581 1730q0 -51 -34.5 -87t-83.5 -36t-83.5 36t-34.5 87t34.5 87 t83.5 36t83.5 -36t34.5 -87zM1031 1730q0 -51 -34.5 -87t-83.5 -36t-83.5 36t-34.5 87t34.5 87t83.5 36t83.5 -36t34.5 -87z"/>
<glyph glyph-name="Igrave" horiz-adv-x="798" unicode="Ì" d="M718 0h-639v71q27 2 78 6t72 12q33 13 48 35.5t15 62.5v1028q0 35 -11 58.5t-52 39.5q-30 12 -75.5 22.5t-74.5 12.5v71h639v-71q-31 -1 -74 -7.5t-75 -16.5q-38 -12 -51 -39t-13 -60v-1027q0 -33 14.5 -58.5t49.5 -40.5q21 -8 68.5 -17.5t80.5 -10.5v-71zM674 1546 l-31 -39q-117 58 -209.5 102t-136.5 66q-49 25 -70.5 48.5t-21.5 64.5q0 35 25 57.5t67 22.5q30 0 55.5 -13.5t59.5 -49.5q46 -48 103.5 -105.5t158.5 -153.5z"/>
<glyph glyph-name="Iacute" horiz-adv-x="798" unicode="Í" d="M718 0h-639v71q27 2 78 6t72 12q33 13 48 35.5t15 62.5v1028q0 35 -11 58.5t-52 39.5q-30 12 -75.5 22.5t-74.5 12.5v71h639v-71q-31 -1 -74 -7.5t-75 -16.5q-38 -12 -51 -39t-13 -60v-1027q0 -33 14.5 -58.5t49.5 -40.5q21 -8 68.5 -17.5t80.5 -10.5v-71zM544 1675 q-44 -22 -136.5 -66.5t-209.5 -101.5l-31 39q91 87 148.5 143.5t113.5 115.5q32 34 58.5 48.5t56.5 14.5q38 0 65 -23t27 -57q0 -43 -26 -68t-66 -45z"/>
<glyph glyph-name="Icircumflex" horiz-adv-x="798" unicode="Î" d="M718 0h-639v71q27 2 78 6t72 12q33 13 48 35.5t15 62.5v1028q0 35 -11 58.5t-52 39.5q-30 12 -75.5 22.5t-74.5 12.5v71h639v-71q-31 -1 -74 -7.5t-75 -16.5q-38 -12 -51 -39t-13 -60v-1027q0 -33 14.5 -58.5t49.5 -40.5q21 -8 68.5 -17.5t80.5 -10.5v-71zM724 1539 l-48 -32l-279 212l-275 -212l-48 32l234 284q18 22 35.5 33.5t57.5 11.5q41 0 56.5 -11t30.5 -30z"/>
<glyph glyph-name="Idieresis" horiz-adv-x="798" unicode="Ï" d="M718 0h-639v71q27 2 78 6t72 12q33 13 48 35.5t15 62.5v1028q0 35 -11 58.5t-52 39.5q-30 12 -75.5 22.5t-74.5 12.5v71h639v-71q-31 -1 -74 -7.5t-75 -16.5q-38 -12 -51 -39t-13 -60v-1027q0 -33 14.5 -58.5t49.5 -40.5q21 -8 68.5 -17.5t80.5 -10.5v-71zM302 1730 q0 -51 -34.5 -87t-83.5 -36t-83.5 36t-34.5 87t34.5 87t83.5 36t83.5 -36t34.5 -87zM732 1730q0 -51 -34.5 -87t-83.5 -36t-83.5 36t-34.5 87t34.5 87t83.5 36t83.5 -36t34.5 -87z"/>
<glyph glyph-name="Eth" horiz-adv-x="1534" unicode="Ð" d="M1212 702q0 143 -38 258.5t-111 201.5q-69 82 -169.5 129t-223.5 47q-41 0 -92.5 -1.5t-76.5 -2.5v-535h301v-98h-301v-458q0 -91 53 -126t163 -35q127 0 222 45t154 125q62 84 90.5 194.5t28.5 255.5zM1457 701q0 -181 -68 -314t-177 -218q-110 -85 -247 -127t-283 -42 h-588v71q29 0 75.5 5.5t61.5 12.5q30 13 43.5 38.5t13.5 61.5v512h-186v98h186v414q0 34 -11.5 61t-45.5 43q-31 15 -67 22t-62 9v71h620q128 0 252 -39.5t216 -106.5q125 -89 196 -233t71 -339z"/>
<glyph glyph-name="Ntilde" horiz-adv-x="1571" unicode="Ñ" d="M1554 1348q-28 -1 -86 -16t-83 -31q-36 -25 -48.5 -96t-12.5 -180v-1039h-87l-860 1161v-732q0 -123 15.5 -189t47.5 -94q23 -22 95 -41t95 -20v-71h-582v71q27 2 91 19.5t80 31.5q35 28 48 85.5t13 196.5v699q0 46 -16 92t-43 71q-36 33 -97.5 56.5t-99.5 25.5v71h405 l798 -1082v675q0 124 -16 190.5t-46 88.5q-28 19 -91.5 37t-96.5 20v71h577v-71zM1194 1835q-10 -38 -30 -78t-55 -79q-36 -39 -75.5 -62.5t-94.5 -23.5q-57 0 -100 16.5t-74 34.5q-35 20 -66.5 36t-69.5 16q-31 0 -46.5 -8t-32.5 -27q-16 -18 -32 -47.5t-30 -53.5l-58 25 q10 32 34 77t52 79q30 36 73 61.5t90 25.5q56 0 96.5 -16.5t74.5 -35.5q38 -21 64 -36t64 -15q40 0 64.5 9.5t38.5 26.5q16 19 26.5 41t25.5 57z"/>
<glyph glyph-name="Ograve" horiz-adv-x="1524" unicode="Ò" d="M1095 245q56 91 81.5 206t25.5 257q0 146 -28.5 268t-83.5 208q-55 85 -138 132.5t-190 47.5q-120 0 -204 -55t-137 -147q-50 -88 -74.5 -206t-24.5 -248q0 -144 26 -260t82 -206q54 -88 136 -137.5t196 -49.5q107 0 193 50t140 140zM1244 1251q94 -98 147 -236.5 t53 -306.5q0 -169 -54 -307t-150 -235q-93 -96 -216 -148t-262 -52q-148 0 -273.5 55.5t-215.5 154.5q-90 97 -141.5 235.5t-51.5 296.5q0 173 54 308.5t149 234.5q94 98 218.5 150t260.5 52q141 0 266 -53t216 -149zM1031 1546l-31 -39q-117 58 -209.5 102t-136.5 66 q-49 25 -70.5 48.5t-21.5 64.5q0 35 25 57.5t67 22.5q30 0 55.5 -13.5t59.5 -49.5q46 -48 103.5 -105.5t158.5 -153.5z"/>
<glyph glyph-name="Oacute" horiz-adv-x="1524" unicode="Ó" d="M1095 245q56 91 81.5 206t25.5 257q0 146 -28.5 268t-83.5 208q-55 85 -138 132.5t-190 47.5q-120 0 -204 -55t-137 -147q-50 -88 -74.5 -206t-24.5 -248q0 -144 26 -260t82 -206q54 -88 136 -137.5t196 -49.5q107 0 193 50t140 140zM1244 1251q94 -98 147 -236.5 t53 -306.5q0 -169 -54 -307t-150 -235q-93 -96 -216 -148t-262 -52q-148 0 -273.5 55.5t-215.5 154.5q-90 97 -141.5 235.5t-51.5 296.5q0 173 54 308.5t149 234.5q94 98 218.5 150t260.5 52q141 0 266 -53t216 -149zM913 1675q-44 -22 -136.5 -66.5t-209.5 -101.5l-31 39 q91 87 148.5 143.5t113.5 115.5q32 34 58.5 48.5t56.5 14.5q38 0 65 -23t27 -57q0 -43 -26 -68t-66 -45z"/>
<glyph glyph-name="Ocircumflex" horiz-adv-x="1524" unicode="Ô" d="M1095 245q56 91 81.5 206t25.5 257q0 146 -28.5 268t-83.5 208q-55 85 -138 132.5t-190 47.5q-120 0 -204 -55t-137 -147q-50 -88 -74.5 -206t-24.5 -248q0 -144 26 -260t82 -206q54 -88 136 -137.5t196 -49.5q107 0 193 50t140 140zM1244 1251q94 -98 147 -236.5 t53 -306.5q0 -169 -54 -307t-150 -235q-93 -96 -216 -148t-262 -52q-148 0 -273.5 55.5t-215.5 154.5q-90 97 -141.5 235.5t-51.5 296.5q0 173 54 308.5t149 234.5q94 98 218.5 150t260.5 52q141 0 266 -53t216 -149zM1087 1539l-48 -32l-279 212l-275 -212l-48 32l234 284 q18 22 35.5 33.5t57.5 11.5q41 0 56.5 -11t30.5 -30z"/>
<glyph glyph-name="Otilde" horiz-adv-x="1524" unicode="Õ" d="M1095 245q56 91 81.5 206t25.5 257q0 146 -28.5 268t-83.5 208q-55 85 -138 132.5t-190 47.5q-120 0 -204 -55t-137 -147q-50 -88 -74.5 -206t-24.5 -248q0 -144 26 -260t82 -206q54 -88 136 -137.5t196 -49.5q107 0 193 50t140 140zM1244 1251q94 -98 147 -236.5 t53 -306.5q0 -169 -54 -307t-150 -235q-93 -96 -216 -148t-262 -52q-148 0 -273.5 55.5t-215.5 154.5q-90 97 -141.5 235.5t-51.5 296.5q0 173 54 308.5t149 234.5q94 98 218.5 150t260.5 52q141 0 266 -53t216 -149zM1144 1835q-10 -38 -30 -78t-55 -79 q-36 -39 -75.5 -62.5t-94.5 -23.5q-57 0 -100 16.5t-74 34.5q-35 20 -66.5 36t-69.5 16q-31 0 -46.5 -8t-32.5 -27q-16 -18 -32 -47.5t-30 -53.5l-58 25q10 32 34 77t52 79q30 36 73 61.5t90 25.5q56 0 96.5 -16.5t74.5 -35.5q38 -21 64 -36t64 -15q40 0 64.5 9.5t38.5 26.5 q16 19 26.5 41t25.5 57z"/>
<glyph glyph-name="Odieresis" horiz-adv-x="1524" unicode="Ö" d="M1095 245q56 91 81.5 206t25.5 257q0 146 -28.5 268t-83.5 208q-55 85 -138 132.5t-190 47.5q-120 0 -204 -55t-137 -147q-50 -88 -74.5 -206t-24.5 -248q0 -144 26 -260t82 -206q54 -88 136 -137.5t196 -49.5q107 0 193 50t140 140zM1244 1251q94 -98 147 -236.5 t53 -306.5q0 -169 -54 -307t-150 -235q-93 -96 -216 -148t-262 -52q-148 0 -273.5 55.5t-215.5 154.5q-90 97 -141.5 235.5t-51.5 296.5q0 173 54 308.5t149 234.5q94 98 218.5 150t260.5 52q141 0 266 -53t216 -149zM655 1730q0 -51 -34.5 -87t-83.5 -36t-83.5 36t-34.5 87 t34.5 87t83.5 36t83.5 -36t34.5 -87zM1105 1730q0 -51 -34.5 -87t-83.5 -36t-83.5 36t-34.5 87t34.5 87t83.5 36t83.5 -36t34.5 -87z"/>
<glyph glyph-name="multiply" horiz-adv-x="1317" unicode="×" d="M1108 199l-89 -89l-361 363l-362 -364l-88 89l364 362l-364 361l89 88l361 -362l362 363l88 -88l-364 -362z"/>
<glyph glyph-name="Oslash" horiz-adv-x="1524" unicode="Ø" d="M1098 244q55 92 81 207t26 257q0 114 -16 214.5t-49 179.5l-714 -859q54 -88 138.5 -138.5t197.5 -50.5q109 0 194 48.5t142 141.5zM1098 1176q-58 93 -142 141t-194 48q-119 0 -203 -53.5t-140 -149.5q-50 -86 -75 -205.5t-25 -248.5q0 -116 16.5 -216t49.5 -177z M1444 708q0 -171 -55.5 -309.5t-148.5 -233.5q-93 -96 -216 -148t-262 -52q-128 0 -238 43t-195 117l-174 -210l-64 50l181 215q-90 99 -141 235.5t-51 292.5q0 173 54 308.5t149 234.5q94 99 219 151t260 52q122 0 232.5 -41.5t200.5 -119.5l151 183l65 -52l-158 -188 q88 -98 139.5 -230.5t51.5 -297.5z"/>
<glyph glyph-name="Ugrave" horiz-adv-x="1549" unicode="Ù" d="M1533 1348q-28 -1 -82 -12t-88 -33q-34 -23 -47 -95t-13 -176v-617q0 -118 -49 -205t-129 -143q-79 -54 -166.5 -77.5t-167.5 -23.5q-128 0 -228 33.5t-168 90.5q-67 57 -101 130.5t-34 153.5v839q0 35 -11.5 58.5t-46.5 43.5q-25 14 -64 22.5t-64 10.5v71h591v-71 q-28 -1 -70.5 -9t-62.5 -15q-34 -12 -45.5 -40t-11.5 -61v-784q0 -57 12.5 -119.5t49.5 -116.5q39 -55 106 -90t184 -35q110 0 184.5 35t117.5 92q41 54 58 113t17 119v582q0 111 -16 181.5t-47 92.5q-35 25 -95.5 39t-92.5 16v71h580v-71zM1021 1546l-31 -39 q-117 58 -209.5 102t-136.5 66q-49 25 -70.5 48.5t-21.5 64.5q0 35 25 57.5t67 22.5q30 0 55.5 -13.5t59.5 -49.5q46 -48 103.5 -105.5t158.5 -153.5z"/>
<glyph glyph-name="Uacute" horiz-adv-x="1549" unicode="Ú" d="M1533 1348q-28 -1 -82 -12t-88 -33q-34 -23 -47 -95t-13 -176v-617q0 -118 -49 -205t-129 -143q-79 -54 -166.5 -77.5t-167.5 -23.5q-128 0 -228 33.5t-168 90.5q-67 57 -101 130.5t-34 153.5v839q0 35 -11.5 58.5t-46.5 43.5q-25 14 -64 22.5t-64 10.5v71h591v-71 q-28 -1 -70.5 -9t-62.5 -15q-34 -12 -45.5 -40t-11.5 -61v-784q0 -57 12.5 -119.5t49.5 -116.5q39 -55 106 -90t184 -35q110 0 184.5 35t117.5 92q41 54 58 113t17 119v582q0 111 -16 181.5t-47 92.5q-35 25 -95.5 39t-92.5 16v71h580v-71zM960 1675q-44 -22 -136.5 -66.5 t-209.5 -101.5l-31 39q91 87 148.5 143.5t113.5 115.5q32 34 58.5 48.5t56.5 14.5q38 0 65 -23t27 -57q0 -43 -26 -68t-66 -45z"/>
<glyph glyph-name="Ucircumflex" horiz-adv-x="1549" unicode="Û" d="M1533 1348q-28 -1 -82 -12t-88 -33q-34 -23 -47 -95t-13 -176v-617q0 -118 -49 -205t-129 -143q-79 -54 -166.5 -77.5t-167.5 -23.5q-128 0 -228 33.5t-168 90.5q-67 57 -101 130.5t-34 153.5v839q0 35 -11.5 58.5t-46.5 43.5q-25 14 -64 22.5t-64 10.5v71h591v-71 q-28 -1 -70.5 -9t-62.5 -15q-34 -12 -45.5 -40t-11.5 -61v-784q0 -57 12.5 -119.5t49.5 -116.5q39 -55 106 -90t184 -35q110 0 184.5 35t117.5 92q41 54 58 113t17 119v582q0 111 -16 181.5t-47 92.5q-35 25 -95.5 39t-92.5 16v71h580v-71zM1135 1539l-48 -32l-279 212 l-275 -212l-48 32l234 284q18 22 35.5 33.5t57.5 11.5q41 0 56.5 -11t30.5 -30z"/>
<glyph glyph-name="Udieresis" horiz-adv-x="1549" unicode="Ü" d="M1533 1348q-28 -1 -82 -12t-88 -33q-34 -23 -47 -95t-13 -176v-617q0 -118 -49 -205t-129 -143q-79 -54 -166.5 -77.5t-167.5 -23.5q-128 0 -228 33.5t-168 90.5q-67 57 -101 130.5t-34 153.5v839q0 35 -11.5 58.5t-46.5 43.5q-25 14 -64 22.5t-64 10.5v71h591v-71 q-28 -1 -70.5 -9t-62.5 -15q-34 -12 -45.5 -40t-11.5 -61v-784q0 -57 12.5 -119.5t49.5 -116.5q39 -55 106 -90t184 -35q110 0 184.5 35t117.5 92q41 54 58 113t17 119v582q0 111 -16 181.5t-47 92.5q-35 25 -95.5 39t-92.5 16v71h580v-71zM708 1730q0 -51 -34.5 -87 t-83.5 -36t-83.5 36t-34.5 87t34.5 87t83.5 36t83.5 -36t34.5 -87zM1158 1730q0 -51 -34.5 -87t-83.5 -36t-83.5 36t-34.5 87t34.5 87t83.5 36t83.5 -36t34.5 -87z"/>
<glyph glyph-name="Yacute" horiz-adv-x="1260" unicode="Ý" d="M1314 1348q-17 -1 -54 -13.5t-53 -24.5q-39 -24 -53 -37t-54 -68q-78 -110 -144 -223t-165 -287q-37 -64 -49 -103t-12 -113v-271q0 -36 14.5 -62.5t49.5 -42.5q21 -8 75 -19.5t87 -12.5v-71h-664v71q28 2 84 7.5t78 14.5q36 15 49.5 41t13.5 64v345q0 16 -19.5 58.5 t-46.5 94.5q-60 116 -133 251t-127 231q-33 57 -58.5 86t-58.5 51q-24 15 -57.5 23t-60.5 10v71h605v-71q-102 -2 -144 -14t-42 -34q0 -6 6 -21t17 -38q13 -26 31 -59.5t34 -64.5q47 -89 96 -177.5t128 -230.5q157 253 239.5 394.5t82.5 169.5q0 23 -17 37t-45 22 q-29 8 -63 10.5t-63 5.5v71h493v-71zM871 1675q-44 -22 -136.5 -66.5t-209.5 -101.5l-31 39q91 87 148.5 143.5t113.5 115.5q32 34 58.5 48.5t56.5 14.5q38 0 65 -23t27 -57q0 -43 -26 -68t-66 -45z"/>
<glyph glyph-name="Thorn" horiz-adv-x="1258" unicode="Þ" d="M886 529q34 50 44.5 102t10.5 94q0 58 -14 118t-48 105q-37 48 -94.5 74.5t-142.5 26.5h-141v-638h109q108 0 175 34t101 84zM1189 757q0 -114 -44 -197t-116 -135q-72 -51 -163.5 -76.5t-195.5 -25.5h-169v-130q0 -35 11 -61.5t47 -40.5q18 -7 62.5 -13t82.5 -7v-71 h-606v71q24 2 69.5 7t63.5 13q30 13 43.5 38t13.5 64v1022q0 33 -11 58t-46 40q-29 13 -67.5 23t-67.5 12v71h597v-71q-29 -1 -71.5 -9t-62.5 -15q-34 -12 -46 -38.5t-12 -60.5v-93h252q189 0 312.5 -103t123.5 -272z"/>
<glyph glyph-name="germandbls" horiz-adv-x="1123" unicode="ß" d="M928 806q50 -52 83 -128.5t33 -179.5q0 -225 -125 -367t-309 -142q-32 0 -65 3t-56 8v81q23 -5 46 -7.5t43 -2.5q69 0 120 34t79 91q30 59 44 134.5t14 173.5q0 173 -74.5 280t-211.5 107h-20v85h36q39 0 80.5 15t74.5 46q35 34 55.5 84t20.5 119q0 113 -50 173.5 t-133 60.5q-117 0 -172.5 -107.5t-55.5 -306.5v-1060h-326v66q21 2 47 4.5t43 8.5q25 9 37 32.5t12 61.5v833q0 137 21 232.5t103 183.5q67 72 146 100t155 28q71 0 129.5 -16.5t110.5 -55.5q49 -37 78 -93t29 -139q0 -75 -27.5 -131.5t-67.5 -92.5t-86.5 -57t-85.5 -25v-9 q53 -11 113.5 -42t111.5 -83z"/>
<glyph glyph-name="agrave" horiz-adv-x="1032" unicode="à" d="M657 546q-85 -25 -149 -49t-119 -60q-50 -34 -79 -80.5t-29 -110.5q0 -83 43.5 -122t110.5 -39q71 0 125 34.5t91 81.5zM1006 18q-47 -17 -82.5 -27.5t-80.5 -10.5q-78 0 -124.5 36.5t-59.5 106.5h-6q-65 -72 -139.5 -110t-179.5 -38q-111 0 -182.5 68t-71.5 178 q0 57 16 102t48 81q25 30 66 53.5t77 37.5q45 17 182.5 63t185.5 72v99q0 13 -5.5 50t-23.5 70q-20 37 -56.5 64.5t-103.5 27.5q-46 0 -85.5 -15.5t-55.5 -32.5q0 -20 9.5 -59t9.5 -72q0 -35 -31.5 -64t-87.5 -29q-50 0 -73.5 35.5t-23.5 79.5q0 46 32.5 88t84.5 75 q45 28 109 47.5t125 19.5q84 0 146.5 -11.5t113.5 -49.5q51 -37 77.5 -100.5t26.5 -163.5q0 -143 -3 -253.5t-3 -241.5q0 -39 13.5 -62t41.5 -39q15 -9 47.5 -10t66.5 -1v-64zM694 1142l-38 -32q-103 82 -184 143.5t-120 93.5q-38 32 -53.5 52t-15.5 61q0 29 23 53.5 t59 24.5q39 0 67 -18t60 -70q34 -55 80 -125.5t122 -182.5z"/>
<glyph glyph-name="aacute" horiz-adv-x="1032" unicode="á" d="M657 546q-85 -25 -149 -49t-119 -60q-50 -34 -79 -80.5t-29 -110.5q0 -83 43.5 -122t110.5 -39q71 0 125 34.5t91 81.5zM1006 18q-47 -17 -82.5 -27.5t-80.5 -10.5q-78 0 -124.5 36.5t-59.5 106.5h-6q-65 -72 -139.5 -110t-179.5 -38q-111 0 -182.5 68t-71.5 178 q0 57 16 102t48 81q25 30 66 53.5t77 37.5q45 17 182.5 63t185.5 72v99q0 13 -5.5 50t-23.5 70q-20 37 -56.5 64.5t-103.5 27.5q-46 0 -85.5 -15.5t-55.5 -32.5q0 -20 9.5 -59t9.5 -72q0 -35 -31.5 -64t-87.5 -29q-50 0 -73.5 35.5t-23.5 79.5q0 46 32.5 88t84.5 75 q45 28 109 47.5t125 19.5q84 0 146.5 -11.5t113.5 -49.5q51 -37 77.5 -100.5t26.5 -163.5q0 -143 -3 -253.5t-3 -241.5q0 -39 13.5 -62t41.5 -39q15 -9 47.5 -10t66.5 -1v-64zM738 1460q0 -38 -17.5 -62t-51.5 -51q-50 -40 -130.5 -102t-173.5 -135l-38 32 q90 133 125.5 187.5t76.5 120.5q31 51 60 69.5t67 18.5q36 0 59 -24.5t23 -53.5z"/>
<glyph glyph-name="acircumflex" horiz-adv-x="1032" unicode="â" d="M657 546q-85 -25 -149 -49t-119 -60q-50 -34 -79 -80.5t-29 -110.5q0 -83 43.5 -122t110.5 -39q71 0 125 34.5t91 81.5zM1006 18q-47 -17 -82.5 -27.5t-80.5 -10.5q-78 0 -124.5 36.5t-59.5 106.5h-6q-65 -72 -139.5 -110t-179.5 -38q-111 0 -182.5 68t-71.5 178 q0 57 16 102t48 81q25 30 66 53.5t77 37.5q45 17 182.5 63t185.5 72v99q0 13 -5.5 50t-23.5 70q-20 37 -56.5 64.5t-103.5 27.5q-46 0 -85.5 -15.5t-55.5 -32.5q0 -20 9.5 -59t9.5 -72q0 -35 -31.5 -64t-87.5 -29q-50 0 -73.5 35.5t-23.5 79.5q0 46 32.5 88t84.5 75 q45 28 109 47.5t125 19.5q84 0 146.5 -11.5t113.5 -49.5q51 -37 77.5 -100.5t26.5 -163.5q0 -143 -3 -253.5t-3 -241.5q0 -39 13.5 -62t41.5 -39q15 -9 47.5 -10t66.5 -1v-64zM817 1156l-48 -32l-279 273l-275 -273l-48 32l237 347q17 25 32.5 35t57.5 10q40 0 55 -10.5 t29 -30.5z"/>
<glyph glyph-name="atilde" horiz-adv-x="1032" unicode="ã" d="M657 546q-85 -25 -149 -49t-119 -60q-50 -34 -79 -80.5t-29 -110.5q0 -83 43.5 -122t110.5 -39q71 0 125 34.5t91 81.5zM1006 18q-47 -17 -82.5 -27.5t-80.5 -10.5q-78 0 -124.5 36.5t-59.5 106.5h-6q-65 -72 -139.5 -110t-179.5 -38q-111 0 -182.5 68t-71.5 178 q0 57 16 102t48 81q25 30 66 53.5t77 37.5q45 17 182.5 63t185.5 72v99q0 13 -5.5 50t-23.5 70q-20 37 -56.5 64.5t-103.5 27.5q-46 0 -85.5 -15.5t-55.5 -32.5q0 -20 9.5 -59t9.5 -72q0 -35 -31.5 -64t-87.5 -29q-50 0 -73.5 35.5t-23.5 79.5q0 46 32.5 88t84.5 75 q45 28 109 47.5t125 19.5q84 0 146.5 -11.5t113.5 -49.5q51 -37 77.5 -100.5t26.5 -163.5q0 -143 -3 -253.5t-3 -241.5q0 -39 13.5 -62t41.5 -39q15 -9 47.5 -10t66.5 -1v-64zM888 1467q-10 -38 -30 -78t-55 -79q-36 -39 -75.5 -62.5t-94.5 -23.5q-57 0 -100 16.5t-74 34.5 q-35 20 -66.5 36t-69.5 16q-31 0 -46.5 -8t-32.5 -27q-16 -18 -32 -47.5t-30 -53.5l-58 25q10 32 34 77t52 79q30 36 73 61.5t90 25.5q56 0 96.5 -16.5t74.5 -35.5q38 -21 64 -36t64 -15q40 0 64.5 9.5t38.5 26.5q16 19 26.5 41t25.5 57z"/>
<glyph glyph-name="adieresis" horiz-adv-x="1032" unicode="ä" d="M657 546q-85 -25 -149 -49t-119 -60q-50 -34 -79 -80.5t-29 -110.5q0 -83 43.5 -122t110.5 -39q71 0 125 34.5t91 81.5zM1006 18q-47 -17 -82.5 -27.5t-80.5 -10.5q-78 0 -124.5 36.5t-59.5 106.5h-6q-65 -72 -139.5 -110t-179.5 -38q-111 0 -182.5 68t-71.5 178 q0 57 16 102t48 81q25 30 66 53.5t77 37.5q45 17 182.5 63t185.5 72v99q0 13 -5.5 50t-23.5 70q-20 37 -56.5 64.5t-103.5 27.5q-46 0 -85.5 -15.5t-55.5 -32.5q0 -20 9.5 -59t9.5 -72q0 -35 -31.5 -64t-87.5 -29q-50 0 -73.5 35.5t-23.5 79.5q0 46 32.5 88t84.5 75 q45 28 109 47.5t125 19.5q84 0 146.5 -11.5t113.5 -49.5q51 -37 77.5 -100.5t26.5 -163.5q0 -143 -3 -253.5t-3 -241.5q0 -39 13.5 -62t41.5 -39q15 -9 47.5 -10t66.5 -1v-64zM396 1364q0 -51 -34.5 -87t-83.5 -36t-83.5 36t-34.5 87t34.5 87t83.5 36t83.5 -36t34.5 -87z M826 1364q0 -51 -34.5 -87t-83.5 -36t-83.5 36t-34.5 87t34.5 87t83.5 36t83.5 -36t34.5 -87z"/>
<glyph glyph-name="aring" horiz-adv-x="1032" unicode="å" d="M657 546q-85 -25 -149 -49t-119 -60q-50 -34 -79 -80.5t-29 -110.5q0 -83 43.5 -122t110.5 -39q71 0 125 34.5t91 81.5zM1006 18q-47 -17 -82.5 -27.5t-80.5 -10.5q-78 0 -124.5 36.5t-59.5 106.5h-6q-65 -72 -139.5 -110t-179.5 -38q-111 0 -182.5 68t-71.5 178 q0 57 16 102t48 81q25 30 66 53.5t77 37.5q45 17 182.5 63t185.5 72v99q0 13 -5.5 50t-23.5 70q-20 37 -56.5 64.5t-103.5 27.5q-46 0 -85.5 -15.5t-55.5 -32.5q0 -20 9.5 -59t9.5 -72q0 -35 -31.5 -64t-87.5 -29q-50 0 -73.5 35.5t-23.5 79.5q0 46 32.5 88t84.5 75 q45 28 109 47.5t125 19.5q84 0 146.5 -11.5t113.5 -49.5q51 -37 77.5 -100.5t26.5 -163.5q0 -143 -3 -253.5t-3 -241.5q0 -39 13.5 -62t41.5 -39q15 -9 47.5 -10t66.5 -1v-64zM625 1337q0 68 -33.5 113t-98.5 45q-63 0 -97.5 -43t-34.5 -115q0 -69 34 -114t98 -45t98 44 t34 115zM751 1337q0 -98 -71 -160.5t-187 -62.5q-117 0 -187.5 61t-70.5 162q0 98 75 160t183 62q112 0 185 -60.5t73 -161.5z"/>
<glyph glyph-name="ae" horiz-adv-x="1509" unicode="æ" d="M644 194v343q-80 -16 -141 -37t-115 -58q-51 -35 -79 -83t-28 -111q0 -83 39.5 -122.5t104.5 -39.5q76 0 130 32.5t89 75.5zM1246 631q0 40 -8 102t-25 100q-21 46 -59.5 76t-102.5 30q-100 0 -162.5 -90.5t-63.5 -217.5h421zM1468 233q-58 -123 -159.5 -191t-224.5 -68 q-127 0 -215 45.5t-157 142.5h-6q-77 -100 -163.5 -144t-203.5 -44q-113 0 -185.5 66.5t-72.5 179.5q0 61 17 107.5t46 81.5q28 33 64.5 55t74.5 38q138 55 214 77t145 43v107q0 14 -5.5 49t-23.5 72q-18 36 -52.5 63.5t-92.5 27.5q-50 0 -89.5 -15.5t-55.5 -32.5 q0 -20 9.5 -59t9.5 -72q0 -35 -31.5 -64t-87.5 -29q-50 0 -73.5 35.5t-23.5 79.5q0 48 32 88.5t83 73.5q46 30 111.5 49t119.5 19q100 0 181 -25t130 -96q51 53 125.5 87t154.5 34q104 0 176 -33.5t116 -88.5q46 -56 67 -128.5t21 -156.5v-58h-618q0 -228 74.5 -346.5 t231.5 -118.5q104 0 164 51.5t103 140.5z"/>
<glyph glyph-name="ccedilla" horiz-adv-x="930" unicode="ç" d="M459 -22q-182 23 -284.5 162t-102.5 357q0 104 32.5 194.5t94.5 164.5q59 71 148 114.5t194 43.5q145 0 236 -69.5t91 -189.5q0 -50 -24 -88.5t-79 -38.5q-59 0 -91.5 30t-32.5 67q0 45 12 92.5t14 69.5q-18 31 -53.5 41.5t-76.5 10.5q-48 0 -91.5 -20.5t-84.5 -75.5 q-37 -50 -60 -135t-23 -203q0 -186 82.5 -303.5t216.5 -117.5q97 0 162.5 47t121.5 141l64 -42q-64 -115 -169.5 -184t-217.5 -72v-73q45 0 81 -5.5t73 -24.5q34 -16 55 -45.5t21 -73.5q0 -58 -32 -98t-89 -62q-55 -20 -122 -28t-156 -8v72q41 0 89 1t82 9q40 9 62 27.5 t22 52.5q0 24 -15 39.5t-40 23.5q-20 7 -53.5 9.5t-56.5 2.5v185z"/>
<glyph glyph-name="egrave" horiz-adv-x="990" unicode="è" d="M727 608q0 56 -9.5 120t-30.5 107q-23 46 -63 75t-103 29q-105 0 -174.5 -87.5t-75.5 -243.5h456zM948 232q-62 -118 -166 -188t-239 -70q-119 0 -208.5 42t-147.5 114t-86.5 168t-28.5 203q0 96 30.5 188.5t89.5 166.5q57 71 141.5 114.5t189.5 43.5q108 0 185 -34 t125 -93q46 -56 68.5 -132t22.5 -165v-66h-653q0 -97 18.5 -176t58.5 -139q39 -58 102 -91.5t150 -33.5q89 0 153.5 41.5t124.5 149.5zM695 1142l-38 -32q-103 82 -184 143.5t-120 93.5q-38 32 -53.5 52t-15.5 61q0 29 23 53.5t59 24.5q39 0 67 -18t60 -70q34 -55 80 -125.5 t122 -182.5z"/>
<glyph glyph-name="eacute" horiz-adv-x="990" unicode="é" d="M727 608q0 56 -9.5 120t-30.5 107q-23 46 -63 75t-103 29q-105 0 -174.5 -87.5t-75.5 -243.5h456zM948 232q-62 -118 -166 -188t-239 -70q-119 0 -208.5 42t-147.5 114t-86.5 168t-28.5 203q0 96 30.5 188.5t89.5 166.5q57 71 141.5 114.5t189.5 43.5q108 0 185 -34 t125 -93q46 -56 68.5 -132t22.5 -165v-66h-653q0 -97 18.5 -176t58.5 -139q39 -58 102 -91.5t150 -33.5q89 0 153.5 41.5t124.5 149.5zM763 1460q0 -38 -17.5 -62t-51.5 -51q-50 -40 -130.5 -102t-173.5 -135l-38 32q90 133 125.5 187.5t76.5 120.5q31 51 60 69.5t67 18.5 q36 0 59 -24.5t23 -53.5z"/>
<glyph glyph-name="ecircumflex" horiz-adv-x="990" unicode="ê" d="M727 608q0 56 -9.5 120t-30.5 107q-23 46 -63 75t-103 29q-105 0 -174.5 -87.5t-75.5 -243.5h456zM948 232q-62 -118 -166 -188t-239 -70q-119 0 -208.5 42t-147.5 114t-86.5 168t-28.5 203q0 96 30.5 188.5t89.5 166.5q57 71 141.5 114.5t189.5 43.5q108 0 185 -34 t125 -93q46 -56 68.5 -132t22.5 -165v-66h-653q0 -97 18.5 -176t58.5 -139q39 -58 102 -91.5t150 -33.5q89 0 153.5 41.5t124.5 149.5zM847 1150l-48 -32l-279 273l-275 -273l-48 32l237 347q17 25 32.5 35t57.5 10q40 0 55 -10.5t29 -30.5z"/>
<glyph glyph-name="edieresis" horiz-adv-x="990" unicode="ë" d="M727 608q0 56 -9.5 120t-30.5 107q-23 46 -63 75t-103 29q-105 0 -174.5 -87.5t-75.5 -243.5h456zM948 232q-62 -118 -166 -188t-239 -70q-119 0 -208.5 42t-147.5 114t-86.5 168t-28.5 203q0 96 30.5 188.5t89.5 166.5q57 71 141.5 114.5t189.5 43.5q108 0 185 -34 t125 -93q46 -56 68.5 -132t22.5 -165v-66h-653q0 -97 18.5 -176t58.5 -139q39 -58 102 -91.5t150 -33.5q89 0 153.5 41.5t124.5 149.5zM432 1364q0 -51 -34.5 -87t-83.5 -36t-83.5 36t-34.5 87t34.5 87t83.5 36t83.5 -36t34.5 -87zM862 1364q0 -51 -34.5 -87t-83.5 -36 t-83.5 36t-34.5 87t34.5 87t83.5 36t83.5 -36t34.5 -87z"/>
<glyph glyph-name="igrave" horiz-adv-x="600" unicode="ì" d="M551 0h-477v66q23 2 47.5 4t42.5 8q28 9 41.5 31.5t13.5 58.5v609q0 32 -14.5 58.5t-40.5 44.5q-19 12 -55 20.5t-66 10.5v65l348 22l14 -14v-804q0 -35 13.5 -58t42.5 -34q22 -9 43 -14.5t47 -7.5v-66zM452 1142l-38 -32q-103 82 -184 143.5t-120 93.5q-38 32 -53.5 52 t-15.5 61q0 29 23 53.5t59 24.5q39 0 67 -18t60 -70q34 -55 80 -125.5t122 -182.5z"/>
<glyph glyph-name="iacute" horiz-adv-x="600" unicode="í" d="M551 0h-477v66q23 2 47.5 4t42.5 8q28 9 41.5 31.5t13.5 58.5v609q0 32 -14.5 58.5t-40.5 44.5q-19 12 -55 20.5t-66 10.5v65l348 22l14 -14v-804q0 -35 13.5 -58t42.5 -34q22 -9 43 -14.5t47 -7.5v-66zM511 1460q0 -38 -17.5 -62t-51.5 -51q-50 -40 -130.5 -102 t-173.5 -135l-38 32q90 133 125.5 187.5t76.5 120.5q31 51 60 69.5t67 18.5q36 0 59 -24.5t23 -53.5z"/>
<glyph glyph-name="icircumflex" horiz-adv-x="600" unicode="î" d="M560 1150l-48 -29l-244 270l-240 -270l-48 29l202 343q11 20 30 34.5t60 14.5q44 0 60.5 -16t23.5 -29zM551 0h-477v66q23 2 47.5 4t42.5 8q28 9 41.5 31.5t13.5 58.5v609q0 32 -14.5 58.5t-40.5 44.5q-19 12 -55 20.5t-66 10.5v65l348 22l14 -14v-804q0 -35 13.5 -58 t42.5 -34q22 -9 43 -14.5t47 -7.5v-66z"/>
<glyph glyph-name="idieresis" horiz-adv-x="600" unicode="ï" d="M216 1364q0 -51 -33 -87t-82 -36t-82 36t-33 87t33 87t82 36t82 -36t33 -87zM566 1364q0 -51 -33 -87t-82 -36t-82 36t-33 87t33 87t82 36t82 -36t33 -87zM551 0h-477v66q23 2 47.5 4t42.5 8q28 9 41.5 31.5t13.5 58.5v609q0 32 -14.5 58.5t-40.5 44.5q-19 12 -55 20.5 t-66 10.5v65l348 22l14 -14v-804q0 -35 13.5 -58t42.5 -34q22 -9 43 -14.5t47 -7.5v-66z"/>
<glyph glyph-name="eth" horiz-adv-x="1089" unicode="ð" d="M746 190q30 63 44.5 146t14.5 176q0 177 -70 285.5t-190 108.5q-77 0 -128.5 -35.5t-83.5 -93.5q-28 -51 -42 -126t-14 -152q0 -228 70 -341t196 -113q71 0 122 40t81 105zM1014 611q0 -294 -128 -468t-354 -174q-89 0 -171.5 33.5t-148.5 100.5q-65 66 -103.5 163 t-38.5 220q0 221 127 360t327 139q94 0 165.5 -42.5t105.5 -96.5l8 2q-15 128 -64.5 238t-109.5 197l-231 -138l-50 78l228 131q-31 40 -75.5 77.5t-90.5 68.5l50 56q46 -23 110 -67t103 -81l203 123l51 -78l-190 -110q137 -146 207 -323t70 -409z"/>
<glyph glyph-name="ntilde" horiz-adv-x="1210" unicode="ñ" d="M1161 0h-483v66q23 2 50.5 4t45.5 8q28 9 41.5 31.5t13.5 58.5v507q0 105 -49.5 162t-120.5 57q-53 0 -97 -16.5t-78 -40.5q-33 -23 -52.5 -49.5t-28.5 -42.5v-567q0 -34 14 -56t42 -34q21 -10 45.5 -15t50.5 -7v-66h-483v66q23 2 47.5 4t42.5 8q28 9 41.5 31.5 t13.5 58.5v609q0 34 -14.5 62.5t-40.5 46.5q-19 12 -45 17.5t-56 7.5v65l328 22l14 -14v-139h5q24 24 60 57.5t68 54.5q37 24 88 40t115 16q142 0 210.5 -88.5t68.5 -235.5v-513q0 -35 12 -56.5t41 -33.5q24 -10 41.5 -14t48.5 -6v-66zM986 1467q-10 -38 -30 -78t-55 -79 q-36 -39 -75.5 -62.5t-94.5 -23.5q-57 0 -100 16.5t-74 34.5q-35 20 -66.5 36t-69.5 16q-31 0 -46.5 -8t-32.5 -27q-16 -18 -32 -47.5t-30 -53.5l-58 25q10 32 34 77t52 79q30 36 73 61.5t90 25.5q56 0 96.5 -16.5t74.5 -35.5q38 -21 64 -36t64 -15q40 0 64.5 9.5t38.5 26.5 q16 19 26.5 41t25.5 57z"/>
<glyph glyph-name="ograve" horiz-adv-x="1104" unicode="ò" d="M826 501q0 75 -15 158.5t-45 141.5q-32 62 -84 99.5t-127 37.5q-77 0 -131.5 -38t-88.5 -104q-32 -61 -45 -139t-13 -151q0 -96 15.5 -177.5t49.5 -145.5t85.5 -100.5t127.5 -36.5q125 0 198 121t73 334zM1033 503q0 -104 -33 -204.5t-94 -170.5q-69 -80 -160 -119 t-204 -39q-94 0 -179 35.5t-151 103.5q-65 67 -103.5 163.5t-38.5 216.5q0 231 134.5 378t352.5 147q207 0 341.5 -139.5t134.5 -371.5zM786 1142l-38 -32q-103 82 -184 143.5t-120 93.5q-38 32 -53.5 52t-15.5 61q0 29 23 53.5t59 24.5q39 0 67 -18t60 -70 q34 -55 80 -125.5t122 -182.5z"/>
<glyph glyph-name="oacute" horiz-adv-x="1104" unicode="ó" d="M826 501q0 75 -15 158.5t-45 141.5q-32 62 -84 99.5t-127 37.5q-77 0 -131.5 -38t-88.5 -104q-32 -61 -45 -139t-13 -151q0 -96 15.5 -177.5t49.5 -145.5t85.5 -100.5t127.5 -36.5q125 0 198 121t73 334zM1033 503q0 -104 -33 -204.5t-94 -170.5q-69 -80 -160 -119 t-204 -39q-94 0 -179 35.5t-151 103.5q-65 67 -103.5 163.5t-38.5 216.5q0 231 134.5 378t352.5 147q207 0 341.5 -139.5t134.5 -371.5zM743 1460q0 -38 -17.5 -62t-51.5 -51q-50 -40 -130.5 -102t-173.5 -135l-38 32q90 133 125.5 187.5t76.5 120.5q31 51 60 69.5t67 18.5 q36 0 59 -24.5t23 -53.5z"/>
<glyph glyph-name="ocircumflex" horiz-adv-x="1104" unicode="ô" d="M826 501q0 75 -15 158.5t-45 141.5q-32 62 -84 99.5t-127 37.5q-77 0 -131.5 -38t-88.5 -104q-32 -61 -45 -139t-13 -151q0 -96 15.5 -177.5t49.5 -145.5t85.5 -100.5t127.5 -36.5q125 0 198 121t73 334zM1033 503q0 -104 -33 -204.5t-94 -170.5q-69 -80 -160 -119 t-204 -39q-94 0 -179 35.5t-151 103.5q-65 67 -103.5 163.5t-38.5 216.5q0 231 134.5 378t352.5 147q207 0 341.5 -139.5t134.5 -371.5zM884 1150l-48 -32l-279 273l-275 -273l-48 32l237 347q17 25 32.5 35t57.5 10q40 0 55 -10.5t29 -30.5z"/>
<glyph glyph-name="otilde" horiz-adv-x="1104" unicode="õ" d="M826 501q0 75 -15 158.5t-45 141.5q-32 62 -84 99.5t-127 37.5q-77 0 -131.5 -38t-88.5 -104q-32 -61 -45 -139t-13 -151q0 -96 15.5 -177.5t49.5 -145.5t85.5 -100.5t127.5 -36.5q125 0 198 121t73 334zM1033 503q0 -104 -33 -204.5t-94 -170.5q-69 -80 -160 -119 t-204 -39q-94 0 -179 35.5t-151 103.5q-65 67 -103.5 163.5t-38.5 216.5q0 231 134.5 378t352.5 147q207 0 341.5 -139.5t134.5 -371.5zM941 1467q-10 -38 -30 -78t-55 -79q-36 -39 -75.5 -62.5t-94.5 -23.5q-57 0 -100 16.5t-74 34.5q-35 20 -66.5 36t-69.5 16 q-31 0 -46.5 -8t-32.5 -27q-16 -18 -32 -47.5t-30 -53.5l-58 25q10 32 34 77t52 79q30 36 73 61.5t90 25.5q56 0 96.5 -16.5t74.5 -35.5q38 -21 64 -36t64 -15q40 0 64.5 9.5t38.5 26.5q16 19 26.5 41t25.5 57z"/>
<glyph glyph-name="odieresis" horiz-adv-x="1104" unicode="ö" d="M826 501q0 75 -15 158.5t-45 141.5q-32 62 -84 99.5t-127 37.5q-77 0 -131.5 -38t-88.5 -104q-32 -61 -45 -139t-13 -151q0 -96 15.5 -177.5t49.5 -145.5t85.5 -100.5t127.5 -36.5q125 0 198 121t73 334zM1033 503q0 -104 -33 -204.5t-94 -170.5q-69 -80 -160 -119 t-204 -39q-94 0 -179 35.5t-151 103.5q-65 67 -103.5 163.5t-38.5 216.5q0 231 134.5 378t352.5 147q207 0 341.5 -139.5t134.5 -371.5zM462 1364q0 -51 -34.5 -87t-83.5 -36t-83.5 36t-34.5 87t34.5 87t83.5 36t83.5 -36t34.5 -87zM892 1364q0 -51 -34.5 -87t-83.5 -36 t-83.5 36t-34.5 87t34.5 87t83.5 36t83.5 -36t34.5 -87z"/>
<glyph glyph-name="divide" horiz-adv-x="1317" unicode="÷" d="M788 153q0 -53 -38 -90t-91 -37t-91 37t-38 90t38 91t91 38t91 -38t38 -91zM1173 497h-1029v125h1029v-125zM788 966q0 -53 -38 -91t-91 -38t-91 38t-38 91t38 90t91 37t91 -37t38 -90z"/>
<glyph glyph-name="oslash" horiz-adv-x="1104" unicode="ø" d="M763 180q35 67 51 144t16 177q0 63 -8 128t-26 119l-456 -569q34 -62 85 -97.5t130 -35.5q70 0 122.5 36.5t85.5 97.5zM763 815q-33 58 -81.5 90.5t-126.5 32.5q-81 0 -135.5 -39.5t-87.5 -102.5q-32 -61 -45.5 -139t-13.5 -151q0 -69 8.5 -136t25.5 -122zM1033 503 q0 -104 -33 -204.5t-94 -170.5q-69 -80 -160 -119t-204 -39q-79 0 -152 27t-135 78q-43 -52 -83 -102t-43 -54l-58 43l133 163q-61 68 -97.5 158.5t-36.5 205.5q0 231 134.5 378t352.5 147q88 0 159 -25t130 -72l111 141l58 -44l-118 -145q64 -69 100 -162.5t36 -203.5z"/>
<glyph glyph-name="ugrave" horiz-adv-x="1178" unicode="ù" d="M1129 18l-321 -22l-15 14v125h-6q-24 -25 -54 -53.5t-69 -51.5q-45 -27 -87 -41t-119 -14q-131 0 -199.5 85.5t-68.5 248.5v472q0 36 -13.5 60.5t-39.5 42.5q-18 12 -45 17.5t-57 7.5v65l329 24l15 -14v-685q0 -107 48 -161t115 -54q55 0 98 17t72 40q27 21 47.5 44.5 t31.5 43.5v559q0 33 -14 58.5t-39 43.5q-18 12 -53.5 14.5t-79.5 4.5v65l358 24l15 -14v-783q0 -34 14 -58t39 -41q18 -11 43 -14.5t55 -4.5v-65zM769 1142l-38 -32q-103 82 -184 143.5t-120 93.5q-38 32 -53.5 52t-15.5 61q0 29 23 53.5t59 24.5q39 0 67 -18t60 -70 q34 -55 80 -125.5t122 -182.5z"/>
<glyph glyph-name="uacute" horiz-adv-x="1178" unicode="ú" d="M1129 18l-321 -22l-15 14v125h-6q-24 -25 -54 -53.5t-69 -51.5q-45 -27 -87 -41t-119 -14q-131 0 -199.5 85.5t-68.5 248.5v472q0 36 -13.5 60.5t-39.5 42.5q-18 12 -45 17.5t-57 7.5v65l329 24l15 -14v-685q0 -107 48 -161t115 -54q55 0 98 17t72 40q27 21 47.5 44.5 t31.5 43.5v559q0 33 -14 58.5t-39 43.5q-18 12 -53.5 14.5t-79.5 4.5v65l358 24l15 -14v-783q0 -34 14 -58t39 -41q18 -11 43 -14.5t55 -4.5v-65zM808 1460q0 -38 -17.5 -62t-51.5 -51q-50 -40 -130.5 -102t-173.5 -135l-38 32q90 133 125.5 187.5t76.5 120.5q31 51 60 69.5 t67 18.5q36 0 59 -24.5t23 -53.5z"/>
<glyph glyph-name="ucircumflex" horiz-adv-x="1178" unicode="û" d="M1129 18l-321 -22l-15 14v125h-6q-24 -25 -54 -53.5t-69 -51.5q-45 -27 -87 -41t-119 -14q-131 0 -199.5 85.5t-68.5 248.5v472q0 36 -13.5 60.5t-39.5 42.5q-18 12 -45 17.5t-57 7.5v65l329 24l15 -14v-685q0 -107 48 -161t115 -54q55 0 98 17t72 40q27 21 47.5 44.5 t31.5 43.5v559q0 33 -14 58.5t-39 43.5q-18 12 -53.5 14.5t-79.5 4.5v65l358 24l15 -14v-783q0 -34 14 -58t39 -41q18 -11 43 -14.5t55 -4.5v-65zM898 1150l-48 -32l-279 273l-275 -273l-48 32l237 347q17 25 32.5 35t57.5 10q40 0 55 -10.5t29 -30.5z"/>
<glyph glyph-name="udieresis" horiz-adv-x="1178" unicode="ü" d="M1129 18l-321 -22l-15 14v125h-6q-24 -25 -54 -53.5t-69 -51.5q-45 -27 -87 -41t-119 -14q-131 0 -199.5 85.5t-68.5 248.5v472q0 36 -13.5 60.5t-39.5 42.5q-18 12 -45 17.5t-57 7.5v65l329 24l15 -14v-685q0 -107 48 -161t115 -54q55 0 98 17t72 40q27 21 47.5 44.5 t31.5 43.5v559q0 33 -14 58.5t-39 43.5q-18 12 -53.5 14.5t-79.5 4.5v65l358 24l15 -14v-783q0 -34 14 -58t39 -41q18 -11 43 -14.5t55 -4.5v-65zM476 1364q0 -51 -34.5 -87t-83.5 -36t-83.5 36t-34.5 87t34.5 87t83.5 36t83.5 -36t34.5 -87zM906 1364q0 -51 -34.5 -87 t-83.5 -36t-83.5 36t-34.5 87t34.5 87t83.5 36t83.5 -36t34.5 -87z"/>
<glyph glyph-name="yacute" horiz-adv-x="1008" unicode="ý" d="M-3 -322q0 50 27.5 81.5t68.5 31.5q32 0 55 -12t41 -31q15 -15 32 -41t27 -43q50 27 119.5 141t100.5 200q-95 237 -172 424t-161 387q-19 46 -64 71.5t-90 32.5v66h450v-70q-30 -1 -72 -12.5t-42 -26.5q0 -6 4.5 -20t10.5 -29q38 -99 116 -285.5t121 -298.5 q45 107 93.5 221.5t108.5 270.5q7 19 20 52.5t13 57.5q0 26 -45.5 48.5t-86.5 27.5v64h366v-62q-30 -5 -79 -34.5t-73 -83.5q-119 -276 -211.5 -503t-140.5 -334q-63 -140 -112.5 -218.5t-96.5 -123.5q-46 -42 -83.5 -56.5t-77.5 -14.5q-78 0 -122.5 37t-44.5 85zM759 1460 q0 -38 -17.5 -62t-51.5 -51q-50 -40 -130.5 -102t-173.5 -135l-38 32q90 133 125.5 187.5t76.5 120.5q31 51 60 69.5t67 18.5q36 0 59 -24.5t23 -53.5z"/>
<glyph glyph-name="thorn" horiz-adv-x="1145" unicode="þ" d="M863 487q0 74 -16 151t-50 134q-34 58 -89 94t-132 36q-74 0 -126 -32.5t-90 -77.5v-583q9 -27 29.5 -56t45.5 -50q31 -25 67 -40.5t88 -15.5q56 0 108 29.5t87 83.5q40 62 59 144t19 183zM948 869q59 -70 91.5 -162.5t32.5 -211.5q0 -117 -38.5 -214t-103.5 -164 q-67 -69 -149 -106t-174 -37q-89 0 -146 20t-93 47h-8v-296q0 -36 14 -60t43 -35q23 -9 68 -17.5t74 -9.5v-67h-551v67q31 2 60 4.5t52 10.5q30 10 42 35t12 59v1584q-3 32 -17 67t-39 52q-18 12 -63.5 18t-73.5 8v64l365 23l14 -15v-656l6 -4q52 60 129 100t153 40 q92 0 168.5 -39.5t131.5 -104.5z"/>
<glyph glyph-name="dotlessi" horiz-adv-x="600" unicode="ı" d="M551 0h-477v66q23 2 47.5 4t42.5 8q28 9 41.5 31.5t13.5 58.5v609q0 32 -14.5 58.5t-40.5 44.5q-19 12 -55 20.5t-66 10.5v65l348 22l14 -14v-804q0 -35 13.5 -58t42.5 -34q22 -9 43 -14.5t47 -7.5v-66z"/>
<glyph glyph-name="OE" horiz-adv-x="2044" unicode="Œ" d="M1216 269q0 -62 9 -100.5t35 -56.5q27 -19 71.5 -24.5t127.5 -5.5h85.5t87.5 4q41 5 77.5 15t53.5 28q46 48 96.5 145.5t64.5 143.5h72l-27 -418h-1154q-213 0 -392.5 99.5t-265.5 266.5q-36 70 -56.5 158t-20.5 195q0 178 66 310.5t177 220.5q108 86 247 127.5t280 41.5 h1039v-342h-75q-19 75 -86 161t-127 94q-31 4 -74 6t-98 2h-213v-564h150q72 0 108 12.5t67 50.5q22 29 37.5 77.5t20.5 91.5h75v-555h-75q-4 48 -21.5 101.5t-36.5 77.5q-29 37 -68.5 50t-106.5 13h-150v-426zM1003 87v1244q-41 2 -84.5 3.5t-70.5 1.5q-116 0 -209 -34.5 t-166 -111.5q-70 -73 -110.5 -192t-40.5 -281q0 -284 149.5 -459.5t392.5 -175.5q27 0 62.5 1.5t76.5 3.5z"/>
<glyph glyph-name="oe" horiz-adv-x="1672" unicode="œ" d="M788 490q0 84 -11 168t-38 144q-28 62 -77 99.5t-123 37.5q-77 0 -127.5 -39.5t-81.5 -103.5q-29 -60 -41.5 -138t-12.5 -153q0 -99 15.5 -182t45.5 -143q32 -63 81.5 -99t120.5 -36q119 0 184 109.5t65 335.5zM1410 608q0 58 -6 115.5t-28 106.5q-21 48 -60.5 78.5 t-103.5 30.5q-102 0 -166 -96.5t-64 -234.5h428zM1631 233q-58 -123 -159.5 -191t-224.5 -68q-113 0 -208 51.5t-153 143.5q-62 -92 -152.5 -145.5t-203.5 -53.5q-90 0 -173.5 35.5t-147.5 103.5q-64 67 -101.5 163.5t-37.5 216.5q0 110 31 204t94 168q60 71 150.5 112 t203.5 41q114 0 205 -57.5t140 -134.5q53 84 139.5 138t190.5 54t174.5 -32.5t117.5 -89.5q46 -56 68 -132.5t22 -163.5v-72h-624q3 -221 81.5 -330.5t230.5 -109.5q104 0 164 51.5t103 140.5z"/>
<glyph glyph-name="Scaron" horiz-adv-x="1149" unicode="Š" d="M981 651q45 -50 66.5 -109.5t21.5 -138.5q0 -188 -139 -310t-345 -122q-95 0 -190 29.5t-164 71.5l-43 -73h-80l-14 486h81q25 -90 58.5 -162.5t88.5 -135.5q52 -59 121.5 -94t161.5 -35q69 0 120.5 18t83.5 51t47.5 77.5t15.5 102.5q0 85 -48 158.5t-143 111.5 q-65 26 -149 57.5t-145 59.5q-120 54 -186.5 141.5t-66.5 228.5q0 81 33 151t94 125q58 52 137 81.5t165 29.5q98 0 175.5 -30t141.5 -70l41 68h80l8 -471h-81q-22 81 -49.5 155t-71.5 134q-43 58 -105 92.5t-152 34.5q-95 0 -162 -61t-67 -149q0 -92 43 -152.5t125 -99.5 q73 -35 143.5 -60.5t136.5 -54.5q60 -26 115.5 -59t96.5 -77zM908 1836l-234 -284q-21 -26 -32.5 -35.5t-60.5 -9.5q-41 0 -56.5 11t-30.5 30l-236 288l48 32l279 -214l275 214z"/>
<glyph glyph-name="scaron" horiz-adv-x="885" unicode="š" d="M723 483q41 -36 63 -83t22 -115q0 -137 -102.5 -224t-265.5 -87q-86 0 -158.5 31t-103.5 57l-20 -65h-75l-10 343h69q8 -39 34 -91t63 -94q39 -44 93.5 -74t122.5 -30q96 0 148 43.5t52 124.5q0 42 -16.5 72.5t-48.5 53.5q-33 23 -81 41.5t-107 36.5q-47 14 -104.5 38.5 t-98.5 57.5q-44 35 -72 86t-28 120q0 121 90 205t241 84q58 0 118.5 -15t98.5 -36l23 52h72l15 -317h-69q-21 106 -90.5 172.5t-169.5 66.5q-82 0 -129 -41t-47 -99q0 -45 15.5 -75t46.5 -51q30 -20 75.5 -37.5t112.5 -39.5q66 -21 124.5 -49t96.5 -62zM775 1510l-239 -351 q-17 -22 -29 -31.5t-55 -9.5q-45 0 -59.5 11t-30.5 34l-237 347l48 32l275 -273l279 273z"/>
<glyph glyph-name="Ydieresis" horiz-adv-x="1260" unicode="Ÿ" d="M1314 1348q-17 -1 -54 -13.5t-53 -24.5q-39 -24 -53 -37t-54 -68q-78 -110 -144 -223t-165 -287q-37 -64 -49 -103t-12 -113v-271q0 -36 14.5 -62.5t49.5 -42.5q21 -8 75 -19.5t87 -12.5v-71h-664v71q28 2 84 7.5t78 14.5q36 15 49.5 41t13.5 64v345q0 16 -19.5 58.5 t-46.5 94.5q-60 116 -133 251t-127 231q-33 57 -58.5 86t-58.5 51q-24 15 -57.5 23t-60.5 10v71h605v-71q-102 -2 -144 -14t-42 -34q0 -6 6 -21t17 -38q13 -26 31 -59.5t34 -64.5q47 -89 96 -177.5t128 -230.5q157 253 239.5 394.5t82.5 169.5q0 23 -17 37t-45 22 q-29 8 -63 10.5t-63 5.5v71h493v-71zM562 1730q0 -51 -34.5 -87t-83.5 -36t-83.5 36t-34.5 87t34.5 87t83.5 36t83.5 -36t34.5 -87zM1012 1730q0 -51 -34.5 -87t-83.5 -36t-83.5 36t-34.5 87t34.5 87t83.5 36t83.5 -36t34.5 -87z"/>
<glyph glyph-name="circumflex" d="M837 1150l-48 -32l-279 273l-275 -273l-48 32l237 347q17 25 32.5 35t57.5 10q40 0 55 -10.5t29 -30.5z" unicode="ˆ"/>
<glyph glyph-name="caron" d="M837 1510l-239 -351q-17 -22 -29 -31.5t-55 -9.5q-45 0 -59.5 11t-30.5 34l-237 347l48 32l275 -273l279 273z" unicode="ˇ"/>
<glyph glyph-name="ring" d="M644 1337q0 68 -33.5 113t-98.5 45q-63 0 -97.5 -43t-34.5 -115q0 -69 34 -114t98 -45t98 44t34 115zM770 1337q0 -98 -71 -160.5t-187 -62.5q-117 0 -187.5 61t-70.5 162q0 98 75 160t183 62q112 0 185 -60.5t73 -161.5z" unicode="˚"/>
<glyph glyph-name="tilde" d="M894 1467q-10 -38 -30 -78t-55 -79q-36 -39 -75.5 -62.5t-94.5 -23.5q-57 0 -100 16.5t-74 34.5q-35 20 -66.5 36t-69.5 16q-31 0 -46.5 -8t-32.5 -27q-16 -18 -32 -47.5t-30 -53.5l-58 25q10 32 34 77t52 79q30 36 73 61.5t90 25.5q56 0 96.5 -16.5t74.5 -35.5 q38 -21 64 -36t64 -15q40 0 64.5 9.5t38.5 26.5q16 19 26.5 41t25.5 57z" unicode="˜"/>
<glyph glyph-name="Alpha" horiz-adv-x="1374" unicode="Α" d="M849 580l-215 550l-211 -550h426zM1421 0h-591v71q78 5 129.5 20t51.5 37q0 9 -2 22t-6 23l-118 318h-497q-28 -70 -45.5 -122t-31.5 -96q-13 -43 -18 -70t-5 -44q0 -40 63 -62t142 -26v-71h-534v71q26 2 65 11.5t64 25.5q40 27 62 56.5t43 81.5q107 267 236 600t230 593 h80l473 -1224q15 -39 34 -63t53 -47q23 -14 60 -23.5t62 -10.5v-71z"/>
<glyph glyph-name="Beta" horiz-adv-x="1339" unicode="Β" d="M1001 422q0 126 -84.5 207t-241.5 81q-64 0 -108 -1.5t-66 -2.5v-500q0 -63 51 -95t142 -32q149 0 228 87t79 256zM863 875q37 43 51.5 94t14.5 121q0 117 -64 183.5t-202 66.5q-32 0 -80.5 -1.5t-81.5 -2.5v-545h127q82 0 140.5 21t94.5 63zM1104 661q62 -42 103 -110 t41 -165q0 -99 -43 -172t-112 -120q-67 -46 -151.5 -70t-174.5 -24h-672v71q24 2 70 8.5t66 15.5q31 14 44 37.5t13 60.5v1020q0 34 -11.5 60t-45.5 42q-30 15 -67 23t-62 10v71h655q76 0 145.5 -15t132.5 -53q59 -35 97 -95t38 -146q0 -75 -27 -133.5t-76 -100.5 q-46 -40 -105.5 -67.5t-128.5 -42.5v-9q61 -7 136.5 -30.5t134.5 -65.5z"/>
<glyph glyph-name="Gamma" horiz-adv-x="1195" unicode="Γ" d="M1179 1022h-75q-10 39 -27 83t-51 100q-32 52 -65.5 86t-77.5 40q-34 5 -83.5 7t-94.5 2h-204v-1138q0 -34 16 -59.5t48 -41.5q20 -9 72.5 -19t85.5 -11v-71h-637v71q30 2 80 6.5t65 11.5q30 13 43.5 38.5t13.5 61.5v1024q0 33 -11 58.5t-46 41.5q-27 13 -72.5 23 t-72.5 12v71h1093v-397z"/>
<glyph glyph-name="Delta" horiz-adv-x="1353" unicode="Δ" d="M1052 172l-424 992l-451 -992h875zM1334 0h-1315v50l640 1389h78l597 -1389v-50z"/>
<glyph glyph-name="Epsilon" horiz-adv-x="1338" unicode="Ε" d="M1291 418l-27 -418h-1178v71q30 2 80 8.5t65 13.5q32 15 44.5 39t12.5 61v1020q0 33 -11 58.5t-46 41.5q-27 13 -72.5 23t-72.5 12v71h1098v-342h-75q-20 76 -86.5 161.5t-126.5 93.5q-31 4 -74 6t-98 2h-223v-564h160q77 0 112.5 14.5t62.5 48.5q22 29 37.5 77.5 t20.5 91.5h75v-555h-75q-4 48 -21.5 101.5t-36.5 77.5q-31 39 -70.5 51t-104.5 12h-160v-426q0 -64 9 -101t35 -56t71 -24.5t128 -5.5h87t91 4q38 4 78.5 14.5t57.5 28.5q46 48 96.5 145.5t64.5 143.5h72z"/>
<glyph glyph-name="Zeta" horiz-adv-x="1232" unicode="Ζ" d="M1214 443l-47 -443h-1140v35l893 1305h-327q-57 0 -95.5 -2t-70.5 -8q-66 -13 -148.5 -109t-124.5 -203h-70l43 401h1063v-35l-893 -1305h337q85 0 181 12t125 41q65 62 121 152t83 159h70z"/>
<glyph glyph-name="Eta" horiz-adv-x="1669" unicode="Η" d="M1567 0h-589v71q24 2 69.5 6t62.5 12q30 12 44 36.5t14 63.5v505h-667v-494q0 -35 11.5 -59t45.5 -42q17 -9 60.5 -18t68.5 -10v-71h-589v71q24 2 69.5 6t62.5 12q30 12 44 36.5t14 63.5v1024q0 32 -13 58.5t-45 41.5q-27 13 -65.5 23t-66.5 12v71h589v-71 q-28 -1 -68.5 -9t-60.5 -15q-34 -12 -45.5 -40t-11.5 -61v-440h667v430q0 32 -13 58.5t-45 41.5q-27 13 -65.5 23t-66.5 12v71h589v-71q-28 -1 -68.5 -9t-60.5 -15q-34 -12 -45.5 -40t-11.5 -61v-1023q0 -35 11.5 -59t45.5 -42q17 -9 60.5 -18t68.5 -10v-71z"/>
<glyph glyph-name="Theta" horiz-adv-x="1524" unicode="Θ" d="M1046 481h-66q-8 43 -18 72.5t-23 48.5q-11 18 -53 24.5t-124 6.5q-104 0 -135 -7.5t-42 -23.5q-16 -23 -25 -53.5t-16 -67.5h-66v455h66q7 -40 16.5 -68t24.5 -51q11 -18 45.5 -24.5t131.5 -6.5q90 0 128 6.5t49 24.5q18 28 26.5 57t14.5 62h66v-455zM1097 244 q56 91 82 206t26 258q0 145 -29 268.5t-85 207.5q-56 86 -138.5 133t-190.5 47q-120 0 -204.5 -55t-137.5 -147q-52 -89 -76.5 -207t-24.5 -247q0 -147 28 -264.5t81 -201.5q55 -88 137.5 -137.5t196.5 -49.5q111 0 196.5 51t138.5 138zM1244 1251q94 -98 147 -236.5 t53 -306.5q0 -169 -54 -307t-150 -235q-93 -96 -216 -148t-262 -52q-148 0 -273.5 55.5t-215.5 154.5q-90 97 -141.5 235.5t-51.5 296.5q0 173 54 308.5t149 234.5q94 98 218.5 150t260.5 52q141 0 266 -53t216 -149z"/>
<glyph glyph-name="Iota" horiz-adv-x="798" unicode="Ι" d="M718 0h-639v71q27 2 78 6t72 12q33 13 48 35.5t15 62.5v1028q0 35 -11 58.5t-52 39.5q-30 12 -75.5 22.5t-74.5 12.5v71h639v-71q-31 -1 -74 -7.5t-75 -16.5q-38 -12 -51 -39t-13 -60v-1027q0 -33 14.5 -58.5t49.5 -40.5q21 -8 68.5 -17.5t80.5 -10.5v-71z"/>
<glyph glyph-name="Kappa" horiz-adv-x="1422" unicode="Κ" d="M1475 0h-398q-115 178 -255.5 353.5t-294.5 340.5h-26v-494q0 -33 12.5 -59t45.5 -42q16 -7 59.5 -17t72.5 -11v-71h-589v71q23 2 67 6t62 12q30 13 43.5 38.5t13.5 61.5v1024q0 34 -11.5 59t-45.5 41q-27 13 -64 23t-65 12v71h589v-71q-28 -1 -70 -9t-62 -15 q-34 -12 -46 -40t-12 -61v-490h20q90 76 177 158.5t158 164.5q79 91 115.5 145.5t36.5 96.5q0 15 -18.5 24.5t-42.5 15.5q-28 6 -50 7.5t-36 2.5v71h532v-71q-3 0 -13 -1t-23 -2q-14 -1 -28 -4t-36 -7q-35 -8 -72.5 -25.5t-61.5 -43.5q-103 -117 -215 -242t-222 -228 q152 -172 251.5 -296t211.5 -265q43 -54 86 -86.5t74 -48.5q26 -13 65 -20t65 -8v-71z"/>
<glyph glyph-name="Lambda" horiz-adv-x="1380" unicode="Λ" d="M1427 0h-591v71q88 7 134 22t46 35q0 9 -2 22t-6 23l-372 956q-86 -223 -192.5 -499t-132.5 -357q-13 -40 -18 -68t-5 -46q0 -37 55.5 -59t149.5 -29v-71h-534v71q26 2 65 11.5t64 25.5q40 27 62 56.5t43 81.5q119 296 242 611.5t227 581.5h80l476 -1224q15 -38 34 -62.5 t53 -47.5q23 -14 60 -23.5t62 -10.5v-71z"/>
<glyph glyph-name="Mu" horiz-adv-x="1899" unicode="Μ" d="M1806 0h-627v71q34 1 87.5 7t73.5 17q31 19 45.5 43.5t14.5 61.5v1032h-15l-484 -1209h-50l-461 1234h-13v-847q0 -123 15.5 -187t47.5 -92q22 -21 91 -40t90 -20v-71h-573v71q45 4 94.5 15t76.5 33q35 28 48 86t13 194v726q0 63 -15 103t-43 65q-31 27 -76 40t-89 15v71 h484l406 -1064l347 890q19 49 32.5 102.5t14.5 71.5h463v-71q-28 -1 -71.5 -9t-63.5 -15q-34 -12 -46 -40t-12 -61v-1023q0 -35 12 -59t46 -42q18 -10 64 -18.5t73 -9.5v-71z"/>
<glyph glyph-name="Nu" horiz-adv-x="1571" unicode="Ν" d="M1554 1348q-28 -1 -86 -16t-83 -31q-36 -25 -48.5 -96t-12.5 -180v-1039h-87l-860 1161v-732q0 -123 15.5 -189t47.5 -94q23 -22 95 -41t95 -20v-71h-582v71q27 2 91 19.5t80 31.5q35 28 48 85.5t13 196.5v699q0 46 -16 92t-43 71q-36 33 -97.5 56.5t-99.5 25.5v71h405 l798 -1082v675q0 124 -16 190.5t-46 88.5q-28 19 -91.5 37t-96.5 20v71h577v-71z"/>
<glyph glyph-name="Xi" horiz-adv-x="1420" unicode="Ξ" d="M1304 433l-47 -433h-1094l-47 433h70q15 -42 29.5 -81t41.5 -83q24 -37 60 -63.5t82 -26.5q75 -1 151 -3t156 -2q75 0 149 1.5t166 3.5q47 1 82.5 25.5t60.5 64.5q27 45 43.5 90t26.5 74h70zM1027 470h-70q-7 35 -17.5 68.5t-24.5 55.5q-14 24 -63 30t-142 6 q-96 0 -143.5 -6.5t-61.5 -29.5q-17 -28 -25.5 -57t-16.5 -67h-70v479h70q8 -42 16.5 -69t25.5 -55q13 -23 62 -29.5t143 -6.5q89 0 141 7t64 29q12 21 22.5 49.5t19.5 74.5h70v-479zM1274 989h-70q-11 31 -26.5 81t-33.5 83q-23 40 -51.5 64.5t-81.5 25.5q-96 2 -167.5 3.5 t-137.5 1.5q-93 0 -164 -2t-133 -3q-39 0 -72 -21t-60 -69q-20 -36 -35 -85.5t-26 -78.5h-70l27 430h1074z"/>
<glyph glyph-name="Omicron" horiz-adv-x="1524" unicode="Ο" d="M1095 245q56 91 81.5 206t25.5 257q0 146 -28.5 268t-83.5 208q-55 85 -138 132.5t-190 47.5q-120 0 -204 -55t-137 -147q-50 -88 -74.5 -206t-24.5 -248q0 -144 26 -260t82 -206q54 -88 136 -137.5t196 -49.5q107 0 193 50t140 140zM1244 1251q94 -98 147 -236.5 t53 -306.5q0 -169 -54 -307t-150 -235q-93 -96 -216 -148t-262 -52q-148 0 -273.5 55.5t-215.5 154.5q-90 97 -141.5 235.5t-51.5 296.5q0 173 54 308.5t149 234.5q94 98 218.5 150t260.5 52q141 0 266 -53t216 -149z"/>
<glyph glyph-name="Pi" horiz-adv-x="1655" unicode="Π" d="M1553 0h-589v71q24 2 69.5 6t62.5 12q30 12 44 36.5t14 63.5v1140h-653v-1129q0 -35 11.5 -59t45.5 -42q17 -9 60.5 -18t68.5 -10v-71h-589v71q24 2 69.5 6t62.5 12q30 12 44 36.5t14 63.5v1024q0 32 -13 58.5t-45 41.5q-27 13 -65.5 23t-66.5 12v71h1455v-71 q-28 -1 -68.5 -9t-60.5 -15q-34 -12 -45.5 -40t-11.5 -61v-1023q0 -35 11.5 -59t45.5 -42q17 -9 60.5 -18t68.5 -10v-71z"/>
<glyph glyph-name="Rho" horiz-adv-x="1249" unicode="Ρ" d="M880 827q34 48 45 99.5t11 92.5q0 57 -13.5 116t-46.5 103q-35 47 -92 73t-142 26h-141v-627h102q108 0 175.5 33.5t101.5 83.5zM1184 1069q0 -111 -43.5 -196.5t-120.5 -141.5q-76 -56 -167 -82t-193 -26h-159v-430q0 -35 11.5 -61.5t47.5 -40.5q18 -7 63.5 -13t83.5 -7 v-71h-609v71q24 2 69.5 7t63.5 13q30 13 43.5 38t13.5 64v1024q0 35 -10 63t-47 42q-38 13 -75.5 18.5t-64.5 7.5v71h648q198 0 321.5 -95.5t123.5 -254.5z"/>
<glyph glyph-name="Sigma" horiz-adv-x="1236" unicode="Σ" d="M1201 443l-47 -443h-1130v35l571 636l-555 713v35h1070v-377h-71q-22 100 -84.5 188.5t-129.5 99.5q-30 5 -85.5 7.5t-90.5 2.5h-309l445 -572v-16l-520 -576h653q45 0 80 27t60 69q23 38 41 84.5t32 86.5h70z"/>
<glyph glyph-name="Tau" horiz-adv-x="1267" unicode="Τ" d="M1251 1034h-69q-9 36 -32.5 85.5t-52.5 93.5q-30 46 -65.5 80.5t-68.5 39.5q-31 4 -78 6t-87 2h-58v-1135q0 -33 14 -60.5t49 -42.5q18 -7 75.5 -19t89.5 -13v-71h-670v71q28 2 85.5 8t79.5 15q33 13 48.5 37.5t15.5 65.5v1144h-58q-31 0 -77 -1.5t-88 -6.5 q-33 -4 -68.5 -39.5t-65.5 -80.5t-53 -95.5t-32 -83.5h-70v385h1236v-385z"/>
<glyph glyph-name="Upsilon" horiz-adv-x="1260" unicode="Υ" d="M1314 1348q-17 -1 -54 -13.5t-53 -24.5q-39 -24 -53 -37t-54 -68q-78 -110 -144 -223t-165 -287q-37 -64 -49 -103t-12 -113v-271q0 -36 14.5 -62.5t49.5 -42.5q21 -8 75 -19.5t87 -12.5v-71h-664v71q28 2 84 7.5t78 14.5q36 15 49.5 41t13.5 64v345q0 16 -19.5 58.5 t-46.5 94.5q-60 116 -133 251t-127 231q-33 57 -58.5 86t-58.5 51q-24 15 -57.5 23t-60.5 10v71h605v-71q-102 -2 -144 -14t-42 -34q0 -6 6 -21t17 -38q13 -26 31 -59.5t34 -64.5q47 -89 96 -177.5t128 -230.5q157 253 239.5 394.5t82.5 169.5q0 23 -17 37t-45 22 q-29 8 -63 10.5t-63 5.5v71h493v-71z"/>
<glyph glyph-name="Phi" horiz-adv-x="1570" unicode="Φ" d="M1325 351q-82 -64 -193.5 -98t-243.5 -34v-45q0 -35 11.5 -58t47.5 -37q18 -7 62.5 -12.5t82.5 -6.5v-70h-601v70q24 2 69.5 6.5t63.5 12.5q30 13 44 36t14 59v45q-132 0 -244.5 33t-195.5 99q-82 66 -128.5 163t-46.5 225q0 98 33.5 181t109.5 151q73 65 189 102.5 t273 37.5h10v27q0 33 -11.5 56t-46.5 38q-29 13 -67.5 21t-67.5 10v70h592v-70q-29 -1 -67 -5.5t-67 -14.5q-34 -12 -46.5 -36.5t-12.5 -58.5v-37h10q157 0 272 -37t190 -103q74 -66 108.5 -151t34.5 -181q0 -126 -48.5 -225t-129.5 -163zM1202 462q39 67 51.5 135.5 t12.5 117.5q0 64 -17 143t-53 136q-38 60 -103 99t-162 39h-42v-832q109 0 188.5 43.5t124.5 118.5zM367 462q51 -86 131 -124t183 -38v832h-42q-91 0 -156.5 -36t-108.5 -102q-36 -57 -53 -130.5t-17 -148.5q0 -52 9.5 -114.5t53.5 -138.5z"/>
<glyph glyph-name="Chi" horiz-adv-x="1455" unicode="Χ" d="M1457 0h-664v71q82 2 132.5 15.5t50.5 41.5q0 15 -23 62t-59 105q-40 64 -95 150.5t-109 165.5q-88 -116 -200 -279.5t-112 -192.5q0 -33 30.5 -48.5t134.5 -19.5v-71h-530v71q26 2 66.5 7.5t66.5 18.5q52 28 83.5 60.5t63.5 76.5q64 88 164 219.5t177 239.5 q-58 85 -148 215.5t-192 279.5q-43 63 -67.5 89t-65.5 45q-24 11 -66.5 17.5t-67.5 8.5v71h657v-71q-58 -2 -120.5 -14.5t-62.5 -38.5q0 -19 25 -66.5t59 -101.5q35 -56 78 -124t105 -157q113 153 195 276t82 160q0 32 -37.5 47t-126.5 19v71h529v-71q-25 -1 -65.5 -7.5 t-67.5 -18.5q-52 -25 -77.5 -54t-68.5 -84q-80 -103 -147.5 -193.5t-162.5 -220.5q80 -114 178.5 -259t188.5 -277q31 -45 71 -85.5t65 -55.5q24 -14 64.5 -17.5t68.5 -4.5v-71z"/>
<glyph glyph-name="Psi" horiz-adv-x="1791" unicode="Ψ" d="M1759 1348q-23 -2 -60 -7.5t-68 -16.5q-37 -13 -47 -42t-10 -59v-293q0 -126 -41 -216.5t-117 -147.5q-75 -57 -180 -85.5t-234 -32.5v-240q0 -36 14.5 -62.5t49.5 -42.5q17 -8 74 -19.5t83 -12.5v-71h-654v71q27 2 81 7.5t76 14.5q36 15 49.5 41t13.5 64v250 q-128 4 -232 31.5t-181 85.5q-76 59 -117.5 147t-41.5 218v283q0 35 -11.5 58.5t-46.5 43.5q-27 15 -65.5 23t-61.5 10v71h399v-507q0 -76 14.5 -138t56.5 -118q40 -52 110.5 -85.5t176.5 -38.5v681q0 32 -12.5 58.5t-44.5 41.5q-27 13 -63.5 23t-64.5 12v71h579v-71 q-29 -1 -67 -9t-58 -15q-34 -12 -45 -39t-11 -62v-691q110 7 179 39.5t109 85.5q38 50 54 115.5t16 139.5v507h399v-71z"/>
<glyph glyph-name="alpha" horiz-adv-x="1224" unicode="α" d="M828 523q-7 73 -23 148t-48 133q-31 59 -80.5 95.5t-122.5 36.5q-118 0 -195.5 -121t-77.5 -333q0 -81 17 -153.5t48 -125.5q33 -56 86.5 -90.5t127.5 -34.5q122 0 190 109.5t78 335.5zM1229 19q-51 -18 -107 -29t-88 -11q-84 0 -127 48.5t-60 173.5q-26 -43 -63.5 -88.5 t-78.5 -73.5q-47 -33 -95 -50.5t-116 -17.5q-83 0 -159.5 37t-135.5 106t-93 166t-34 214q0 107 36 203t101 169q62 69 147.5 108t177.5 39q119 0 202 -57.5t122 -160.5l25 191h186q-7 -71 -30.5 -212t-54.5 -308q3 -147 33.5 -245.5t78.5 -126.5q15 -9 57 -10t76 -1v-64z "/>
<glyph glyph-name="beta" horiz-adv-x="1158" unicode="β" d="M872 477q0 70 -11.5 141t-39.5 118q-30 49 -81.5 77t-132.5 28h-94v95h68q44 0 91.5 15.5t81.5 47.5q39 36 61 85t22 132q0 124 -60 191t-157 67q-58 0 -102.5 -19t-82.5 -70q-35 -47 -55.5 -130t-20.5 -196v-850q21 -64 85 -112t147 -48q128 0 204.5 114.5t76.5 313.5z M953 796q63 -57 95.5 -137.5t32.5 -177.5q0 -213 -133.5 -359t-339.5 -146q-87 0 -146.5 21t-94.5 46h-8v-487h-187v1448q0 150 22.5 238t106.5 177q55 59 139 95t189 36q78 0 148 -19t125 -60q55 -40 86 -100.5t31 -147.5q0 -80 -30 -139t-73 -95q-42 -37 -95 -59t-96 -27 l4 -9q46 -3 109.5 -27.5t114.5 -70.5z"/>
<glyph glyph-name="gamma" horiz-adv-x="1052" unicode="γ" d="M647 -225q0 -76 -9 -120.5t-24 -65.5t-33.5 -27t-42.5 -6q-51 0 -77.5 32.5t-26.5 97.5q0 70 12.5 154t36.5 175q-77 230 -150 398.5t-176 402.5q-23 51 -64 71.5t-106 23.5v65l297 22l14 -14q27 -70 73 -172.5t95 -222.5q38 -92 78.5 -215t47.5 -191q33 87 80 179 t70 146q25 59 36.5 96t11.5 68q0 60 -15 123t-15 103q0 44 33 79.5t85 35.5q53 0 84 -30t31 -87q0 -63 -30.5 -135t-70.5 -151q-60 -119 -140.5 -265t-134.5 -292q10 -89 20 -161t10 -117z"/>
<glyph glyph-name="delta" horiz-adv-x="1104" unicode="δ" d="M825 474q0 175 -63 282t-191 147q-129 0 -211 -114.5t-82 -314.5q0 -88 17 -164t52 -136q33 -58 84.5 -93t118.5 -35q68 0 120.5 34t87.5 94q34 61 50.5 137t16.5 163zM1033 482q0 -108 -36 -202.5t-98 -160.5q-65 -71 -150.5 -110t-196.5 -39q-106 0 -196.5 39 t-153.5 107t-97.5 161t-34.5 200q0 108 32.5 188.5t91.5 144.5q57 62 136.5 100t167.5 52v6q-176 64 -256 134t-80 179q0 45 22.5 91.5t73.5 87.5q49 39 131 64.5t195 25.5q172 0 275 -61t103 -161q0 -56 -24 -91t-78 -35q-60 0 -90 28t-30 64q0 42 9.5 79.5t13.5 60.5 q-19 15 -64 28t-112 13q-96 0 -161.5 -54.5t-65.5 -128.5q0 -82 67.5 -138t249.5 -154q104 -56 175 -114t111 -120q40 -63 55 -131t15 -153z"/>
<glyph glyph-name="epsilon" horiz-adv-x="959" unicode="ε" d="M940 252q-68 -141 -180.5 -211t-250.5 -70q-81 0 -156.5 16.5t-136.5 53.5q-60 36 -96 92t-36 130q0 67 26 113.5t69 79.5q41 30 90 44t98 17v10q-75 13 -125 39t-77 57q-27 32 -37 67t-10 69q0 39 18 80.5t68 83.5q45 39 123 64.5t186 25.5q173 0 268 -62.5t95 -168.5 q0 -48 -22 -85.5t-77 -37.5q-59 0 -90.5 28.5t-31.5 64.5q0 37 7 71t13 71q-20 17 -66 30t-94 13q-91 0 -143 -52.5t-52 -123.5q0 -106 48.5 -153t164.5 -47h83v-93h-108q-67 0 -109.5 -17t-67.5 -44q-24 -27 -33 -61.5t-9 -69.5q0 -100 69 -151t178 -51q112 0 191 52 t143 169z"/>
<glyph glyph-name="zeta" horiz-adv-x="827" unicode="ζ" d="M895 1353q-128 -90 -235 -186t-195 -209q-84 -109 -134.5 -233.5t-50.5 -256.5q0 -80 20.5 -136.5t57.5 -92.5q37 -35 85 -51t103 -18q21 0 41.5 -2t37.5 -2q124 -3 187 -70.5t63 -179.5q0 -122 -103 -223.5t-254 -101.5q-105 0 -149 25.5t-44 74.5q0 40 24.5 64t72.5 24 q28 0 50.5 -11t39.5 -25q16 -12 38.5 -31t42.5 -29q24 2 52.5 11.5t54.5 32.5q27 23 43 53.5t16 82.5q0 72 -43 105.5t-135 37.5q-31 1 -47 2t-53 2q-173 5 -283.5 117t-110.5 288q0 123 44.5 238t128.5 230q79 108 190 215.5t255 228.5v11l-368 -4h-6q-96 0 -141.5 30.5 t-45.5 79.5q0 39 22 68t71 29t80.5 -18t58.5 -40q30 -24 53 -40.5t73 -16.5q108 0 203 6.5t190 12.5v-92z"/>
<glyph glyph-name="eta" horiz-adv-x="1169" unicode="η" d="M1003 -444h-187v1119q0 106 -52 162.5t-126 56.5q-46 0 -88.5 -15t-80.5 -43q-32 -22 -51.5 -47.5t-30.5 -43.5v-745h-186v777q0 34 -13.5 62t-41.5 47q-18 12 -44.5 17.5t-56.5 7.5v65l328 22l14 -14v-139h5q23 24 60 57.5t69 54.5q37 24 87.5 40t111.5 16 q142 0 212.5 -88.5t70.5 -235.5v-1133z"/>
<glyph glyph-name="theta" horiz-adv-x="1139" unicode="θ" d="M764 190q38 80 59.5 202t21.5 316v35h-551v-35q0 -191 21 -316t58 -203q35 -74 85.5 -108.5t110.5 -34.5q57 0 108 33.5t87 110.5zM845 832q-1 177 -22.5 300t-59.5 199q-37 76 -87 109.5t-107 33.5q-59 0 -107 -32t-87 -110q-37 -75 -58.5 -198.5t-22.5 -301.5h551z M948 1286q53 -111 78 -239.5t25 -285.5q0 -146 -25.5 -282.5t-78.5 -244.5q-61 -124 -154.5 -194t-223.5 -70q-131 0 -225 71t-152 193q-55 114 -79.5 240.5t-24.5 285.5q0 161 23 284t79 242q57 120 153 192t227 72q132 0 226 -72t152 -192z"/>
<glyph glyph-name="iota" horiz-adv-x="605" unicode="ι" d="M598 17q-47 -16 -91.5 -27t-114.5 -11q-92 0 -140.5 56t-48.5 160l2 584q0 33 -13.5 59t-38.5 44q-19 12 -55 19.5t-66 9.5v65l344 22l14 -14v-775q0 -64 38.5 -97.5t104.5 -33.5q15 0 32 1t33 2v-64z"/>
<glyph glyph-name="kappa" horiz-adv-x="1098" unicode="κ" d="M1118 30q-58 -23 -112 -36t-106 -13q-33 0 -59 2.5t-54 18.5q-26 14 -53 45t-56 83q-48 86 -100.5 186.5t-92.5 172.5l-98 -109v-380h-186v777q0 34 -14.5 62.5t-40.5 46.5q-19 12 -45 17.5t-56 7.5v65l328 22l14 -14v-505q80 100 169.5 210t165.5 194q61 68 101.5 93 t90.5 25q55 0 88 -34t33 -91q0 -42 -31.5 -74.5t-82.5 -32.5q-28 0 -69.5 13.5t-74.5 28.5q-42 -29 -79 -75t-89 -103q73 -133 126.5 -230t101.5 -173q47 -73 93 -108.5t97 -35.5q20 0 50 3t41 5v-64z"/>
<glyph glyph-name="lambda" horiz-adv-x="999" unicode="λ" d="M335 1321q-32 3 -73.5 3t-58.5 1q-50 2 -77 36.5t-27 71.5q0 45 35 81t100 36q81 0 138 -51t98 -170q46 -132 96 -268.5t97 -270.5q59 -165 110.5 -310.5t89.5 -238.5q40 -98 67.5 -128.5t95.5 -30.5h45v-64q-50 -15 -89.5 -26.5t-84.5 -11.5q-42 0 -68.5 16t-46.5 46 q-19 29 -33 73t-26 84q-25 83 -61.5 229.5t-94.5 340.5q-67 -132 -151.5 -314.5t-136.5 -288.5q-26 -52 -38.5 -89t-25.5 -77h-228l489 988q-34 116 -67.5 193t-73.5 140z"/>
<glyph glyph-name="mu" horiz-adv-x="1186" unicode="μ" d="M1163 19q-47 -17 -87.5 -27.5t-85.5 -10.5q-78 0 -129 36.5t-64 117.5h-6q-25 -26 -57.5 -58.5t-63.5 -49.5q-39 -23 -82 -35.5t-113 -12.5q-58 0 -109.5 24t-77.5 57h-6v-58q0 -48 8 -92.5t18 -92.5q10 -50 17.5 -84t7.5 -72q0 -53 -37 -79t-75 -26q-42 0 -70 26t-28 74 q0 52 17 145.5t23 144.5q7 59 9.5 102t2.5 88v850h190v-677q0 -96 51.5 -156.5t128.5 -60.5q55 0 99.5 16t71.5 37q31 23 51 47t28 39v755h190v-784q0 -43 13 -68t43 -40q17 -9 52.5 -10t69.5 -1v-64z"/>
<glyph glyph-name="nu" horiz-adv-x="1027" unicode="ν" d="M292 998l14 -14q7 -35 16.5 -74.5t25.5 -81.5q46 -122 114.5 -301.5t113.5 -295.5q38 78 72.5 150t59.5 127q27 61 38.5 98.5t11.5 67.5q0 83 -9.5 127.5t-9.5 95.5q0 44 36.5 80t87.5 36q52 0 80.5 -29t28.5 -83q0 -66 -43.5 -148t-72.5 -140q-38 -76 -93.5 -180.5 t-111.5 -211.5q-28 -53 -48 -104t-47 -126h-87q-84 216 -153.5 402t-164.5 423q-20 51 -63 71.5t-103 23.5v65z"/>
<glyph glyph-name="xi" horiz-adv-x="903" unicode="ξ" d="M861 1455v-113h-130q-71 0 -134 -13t-123 -48q-55 -33 -90 -90.5t-35 -139.5q0 -119 85.5 -181t226.5 -62h145v-105h-196q-163 0 -248.5 -68.5t-85.5 -215.5q0 -120 70 -186.5t195 -66.5h132q124 0 188 -68t64 -182q0 -123 -105.5 -224t-251.5 -101q-105 0 -149 25.5 t-44 74.5q0 40 24.5 64t72.5 24q28 0 50.5 -11t39.5 -25q16 -12 38.5 -31t42.5 -29q24 2 52.5 11.5t54.5 32.5q27 23 43 53.5t16 82.5q0 73 -46.5 108t-133.5 35h-156q-172 0 -282 105t-110 260q0 84 33.5 153.5t90.5 121.5q54 49 123.5 78t133.5 37v6q-152 25 -231 100 t-79 180q0 59 23.5 107.5t65.5 86.5q39 35 92 60t111 42v17q-40 -1 -104 -4t-110 -3q-94 0 -138.5 26.5t-44.5 75.5q0 39 20.5 67.5t69.5 28.5q46 0 78.5 -18t60.5 -39q32 -24 56 -40.5t73 -16.5q108 0 233.5 6t222.5 12z"/>
<glyph glyph-name="omicron" horiz-adv-x="1104" unicode="ο" d="M826 501q0 75 -15 158.5t-45 141.5q-32 62 -84 99.5t-127 37.5q-77 0 -131.5 -38t-88.5 -104q-32 -61 -45 -139t-13 -151q0 -96 15.5 -177.5t49.5 -145.5t85.5 -100.5t127.5 -36.5q125 0 198 121t73 334zM1033 503q0 -104 -33 -204.5t-94 -170.5q-69 -80 -160 -119 t-204 -39q-94 0 -179 35.5t-151 103.5q-65 67 -103.5 163.5t-38.5 216.5q0 231 134.5 378t352.5 147q207 0 341.5 -139.5t134.5 -371.5z"/>
<glyph glyph-name="pi" horiz-adv-x="1231" unicode="π" d="M298 175q49 101 78 246t29 307q0 30 -1 69t-3 66h-62q-53 0 -85 -18t-53 -47q-17 -23 -26.5 -59t-13.5 -78h-63q-3 28 -5 55.5t-2 62.5q0 34 13 68t43 67q26 30 71 50.5t100 20.5h857v-122h-225v-654q0 -60 37.5 -95.5t107.5 -35.5q14 0 33.5 1t34.5 2v-64 q-47 -16 -94 -27t-117 -11q-95 0 -142.5 58t-47.5 158v668h-263q1 -26 2 -63.5t1 -80.5q0 -124 -22.5 -271t-66.5 -253q-43 -104 -98 -160.5t-128 -56.5q-60 0 -88 38.5t-28 80.5q0 36 26.5 70.5t78.5 34.5q32 0 66.5 -10.5t55.5 -16.5z"/>
<glyph glyph-name="rho" horiz-adv-x="1142" unicode="ρ" d="M861 507q0 143 -24.5 226.5t-63.5 129.5q-38 45 -82.5 59t-86.5 14q-48 0 -88.5 -14t-73.5 -47q-46 -46 -66.5 -110t-23.5 -187q-1 -55 -2 -97t-1 -83q0 -55 1 -96t1 -93q19 -61 84.5 -111.5t153.5 -50.5q117 0 194.5 122t77.5 338zM940 881q61 -66 94.5 -157.5 t33.5 -218.5q0 -112 -38 -212t-104 -171t-147.5 -109.5t-174.5 -38.5q-86 0 -148 21t-97 46h-8v-485h-187v991q0 113 25 188.5t93 149.5q59 64 143.5 96t197.5 32q96 0 177 -33.5t140 -98.5z"/>
<glyph glyph-name="sigma1" horiz-adv-x="913" unicode="ς" d="M882 -71q0 -140 -107.5 -238t-262.5 -98q-110 0 -157.5 29t-47.5 75q0 40 23 62.5t73 22.5q28 0 50.5 -10t45.5 -27q18 -13 41.5 -32t44.5 -30q68 4 123 58t55 132q0 52 -32.5 84.5t-87.5 45.5q-56 13 -114.5 18.5t-140.5 31.5q-149 47 -234.5 165t-85.5 273 q0 135 43 233.5t112 164.5q64 61 147 93t161 32q154 0 251.5 -64t97.5 -168q0 -48 -22 -85.5t-77 -37.5q-59 0 -90.5 28.5t-31.5 64.5q0 37 7 71t13 71q-21 17 -58 30.5t-90 13.5q-40 0 -88 -19.5t-91 -66.5q-41 -44 -68.5 -122t-27.5 -190q0 -136 59.5 -218.5t172.5 -113.5 q56 -15 106.5 -21t103.5 -19q93 -23 138.5 -86t45.5 -153z"/>
<glyph glyph-name="sigma" horiz-adv-x="1173" unicode="σ" d="M757 985h395v-122h-286v-5q82 -68 124.5 -161.5t42.5 -206.5q0 -101 -32.5 -196t-94.5 -166q-64 -73 -153 -115.5t-211 -42.5q-94 0 -179 35.5t-151 103.5q-65 67 -103.5 163.5t-38.5 216.5t34 213.5t98 165.5q62 68 154 107t201 39q57 0 101.5 -7t98.5 -22zM760 180 q35 67 50.5 143t15.5 174q0 77 -14.5 160.5t-43.5 138.5q-33 61 -83 95.5t-130 34.5q-81 0 -134.5 -38.5t-85.5 -99.5q-30 -56 -44 -130.5t-14 -155.5q0 -88 15.5 -171.5t49.5 -147.5t85.5 -100.5t127.5 -36.5q69 0 121 36.5t84 97.5z"/>
<glyph glyph-name="tau" horiz-adv-x="923" unicode="τ" d="M903 863h-339v-530q0 -62 2 -104t17 -72q14 -30 41.5 -44.5t85.5 -14.5q27 0 70 5.5t62 12.5v-73q-65 -27 -118 -45.5t-137 -18.5q-117 0 -164 62t-47 177v645h-90q-53 0 -85 -18t-53 -46q-17 -25 -26.5 -59.5t-13.5 -78.5h-63q-2 23 -4.5 56.5t-2.5 61.5q0 35 13 70 t43 67q27 30 70.5 49.5t100.5 19.5h638v-122z"/>
<glyph glyph-name="upsilon" horiz-adv-x="1108" unicode="υ" d="M903 169q-61 -93 -144 -145t-200 -52q-69 0 -134.5 19t-115.5 60q-53 44 -81 103.5t-28 156.5l3 467q0 52 -21.5 80.5t-77.5 28.5q-24 0 -53.5 -3.5t-43.5 -4.5v64q36 15 98.5 35.5t104.5 20.5q102 0 143.5 -53.5t41.5 -170.5v-6l-3 -417v-15q0 -87 22 -137t54 -76 q30 -25 69 -32t74 -7q134 0 219 120.5t85 306.5q0 80 -22 135.5t-75 98.5q-39 32 -67 71t-28 90q0 39 31.5 68t79.5 29q58 0 96 -36.5t57 -89.5q19 -54 27 -114t8 -130q0 -129 -30.5 -253.5t-88.5 -211.5z"/>
<glyph glyph-name="phi" horiz-adv-x="1425" unicode="φ" d="M1146 533q0 188 -64.5 295.5t-162.5 107.5q-48 0 -81.5 -31.5t-33.5 -85.5v-771q170 12 256 144t86 341zM1206 896q66 -60 107.5 -149.5t41.5 -221.5q0 -131 -47.5 -234.5t-125.5 -171.5q-77 -69 -176.5 -107t-201.5 -41v-415h-186v415q-251 11 -399.5 152.5 t-148.5 365.5q0 199 105.5 333t317.5 185l15 -81q-113 -40 -171 -145.5t-58 -291.5q0 -196 91.5 -316.5t247.5 -124.5v725q0 64 26 110t69 76q38 27 95 40.5t105 13.5q76 0 153.5 -29.5t139.5 -87.5z"/>
<glyph glyph-name="chi" horiz-adv-x="1037" unicode="χ" d="M613 257q73 -154 127.5 -261t96.5 -177q63 -105 101.5 -133t103.5 -28h56v-64q-48 -15 -95 -26.5t-92 -11.5q-41 0 -70.5 15.5t-53.5 45.5q-23 29 -43 70t-40 88q-32 75 -67.5 166.5t-83.5 210.5q-60 -110 -129 -240.5t-99 -188.5q-25 -48 -44.5 -88t-35.5 -79h-225 l438 760q-93 191 -145 287.5t-97 169.5q-44 73 -93.5 95.5t-127.5 22.5v64q35 12 93.5 28.5t91.5 16.5q41 0 70.5 -17t49.5 -45q20 -29 36.5 -66t37.5 -91q36 -92 56.5 -146t86.5 -216q52 96 116.5 222t92.5 178q20 36 41 78t40 89h225z"/>
<glyph glyph-name="psi" horiz-adv-x="1496" unicode="ψ" d="M1410 677q0 -130 -28.5 -250.5t-91.5 -215.5q-64 -96 -162.5 -159.5t-241.5 -79.5v-416h-186v416q-67 3 -153 18.5t-166 60.5q-86 50 -134 129.5t-48 196.5l3 401q0 54 -20.5 81.5t-78.5 27.5q-24 0 -53.5 -3.5t-43.5 -4.5v64q36 15 98.5 35.5t104.5 20.5q97 0 141 -50.5 t44 -173.5v-6l-3 -402v-5q0 -81 31 -144t93 -104q48 -31 100 -44.5t85 -14.5v931h186v-931q99 8 175 50.5t127 108.5q52 68 78 148t26 170q0 74 -19.5 127.5t-66.5 91.5q-38 31 -61.5 63.5t-23.5 77.5q0 56 32 84t81 28q53 0 87.5 -30t53.5 -77q20 -48 27.5 -104.5 t7.5 -115.5z"/>
<glyph glyph-name="afii10023" horiz-adv-x="1338" unicode="Ё" d="M1291 418l-27 -418h-1178v71q30 2 80 8.5t65 13.5q32 15 44.5 39t12.5 61v1020q0 33 -11 58.5t-46 41.5q-27 13 -72.5 23t-72.5 12v71h1098v-342h-75q-20 76 -86.5 161.5t-126.5 93.5q-31 4 -74 6t-98 2h-223v-564h160q77 0 112.5 14.5t62.5 48.5q22 29 37.5 77.5 t20.5 91.5h75v-555h-75q-4 48 -21.5 101.5t-36.5 77.5q-31 39 -70.5 51t-104.5 12h-160v-426q0 -64 9 -101t35 -56t71 -24.5t128 -5.5h87t91 4q38 4 78.5 14.5t57.5 28.5q46 48 96.5 145.5t64.5 143.5h72zM581 1730q0 -51 -34.5 -87t-83.5 -36t-83.5 36t-34.5 87t34.5 87 t83.5 36t83.5 -36t34.5 -87zM1031 1730q0 -51 -34.5 -87t-83.5 -36t-83.5 36t-34.5 87t34.5 87t83.5 36t83.5 -36t34.5 -87z"/>
<glyph glyph-name="afii10051" horiz-adv-x="1608" unicode="Ђ" d="M1281 180q19 47 28.5 106t9.5 119q0 171 -80 262t-225 91q-89 0 -148 -18.5t-138 -51.5v-688h-427v71q26 2 77 8t73 15q33 13 48.5 37.5t15.5 65.5v1144h-46q-31 0 -77 -1.5t-88 -6.5q-33 -4 -68.5 -39.5t-65.5 -80.5t-53 -95.5t-32 -83.5h-70v385h1224v-375h-69 q-8 33 -31.5 81.5t-53.5 92.5q-31 45 -66 77.5t-68 37.5q-31 4 -78 6t-87 2h-58v-573q78 44 180 81t198 37q202 0 320 -117.5t118 -315.5q0 -78 -29.5 -166.5t-83.5 -154.5q-58 -71 -137 -114.5t-190 -43.5q-126 0 -184.5 40.5t-58.5 102.5q0 39 23.5 73.5t73.5 34.5 q40 0 69 -19t48 -46t35 -62.5t24 -54.5q53 11 89.5 48t57.5 89z"/>
<glyph glyph-name="afii10052" horiz-adv-x="1195" unicode="Ѓ" d="M1179 1022h-75q-10 39 -27 83t-51 100q-32 52 -65.5 86t-77.5 40q-34 5 -83.5 7t-94.5 2h-204v-1138q0 -34 16 -59.5t48 -41.5q20 -9 72.5 -19t85.5 -11v-71h-637v71q30 2 80 6.5t65 11.5q30 13 43.5 38.5t13.5 61.5v1024q0 33 -11 58.5t-46 41.5q-27 13 -72.5 23 t-72.5 12v71h1093v-397zM862 1675q-44 -22 -136.5 -66.5t-209.5 -101.5l-31 39q91 87 148.5 143.5t113.5 115.5q32 34 58.5 48.5t56.5 14.5q38 0 65 -23t27 -57q0 -43 -26 -68t-66 -45z"/>
<glyph glyph-name="afii10053" horiz-adv-x="1345" unicode="Є" d="M310 630q8 -125 44 -231.5t98 -184.5q61 -77 142.5 -119.5t183.5 -42.5q61 0 113 10.5t90 27.5q36 16 59.5 31t35.5 26q-3 31 -6.5 74.5t-3.5 76.5q0 54 31 93t95 39q28 0 49.5 -10.5t36.5 -31.5q14 -20 19.5 -42t5.5 -51q0 -60 -38.5 -120.5t-111.5 -106.5 q-74 -46 -171 -73.5t-225 -27.5q-148 0 -274 50.5t-215 143.5q-90 95 -140 229.5t-50 305.5q0 170 53 308.5t145 238.5q91 99 215.5 153t263.5 54q109 0 195.5 -28t156.5 -71l40 68h80l9 -506h-82q-16 74 -48 160.5t-75 146.5q-48 68 -114 106.5t-150 38.5q-94 0 -175.5 -38 t-146.5 -118q-63 -80 -99.5 -205t-38.5 -296q41 28 68 46.5t68 40.5q34 18 69 28.5t70 10.5q52 0 91.5 -13t76.5 -29q41 -17 73 -29t88 -12q41 0 75 18.5t61 41.5l43 -54q-67 -65 -139.5 -105.5t-143.5 -40.5q-53 0 -95.5 14t-70.5 26q-36 16 -72.5 28.5t-81.5 12.5 q-54 0 -93 -16t-84 -46z"/>
<glyph glyph-name="afii10054" horiz-adv-x="1149" unicode="Ѕ" d="M981 651q45 -50 66.5 -109.5t21.5 -138.5q0 -188 -139 -310t-345 -122q-95 0 -190 29.5t-164 71.5l-43 -73h-80l-14 486h81q25 -90 58.5 -162.5t88.5 -135.5q52 -59 121.5 -94t161.5 -35q69 0 120.5 18t83.5 51t47.5 77.5t15.5 102.5q0 85 -48 158.5t-143 111.5 q-65 26 -149 57.5t-145 59.5q-120 54 -186.5 141.5t-66.5 228.5q0 81 33 151t94 125q58 52 137 81.5t165 29.5q98 0 175.5 -30t141.5 -70l41 68h80l8 -471h-81q-22 81 -49.5 155t-71.5 134q-43 58 -105 92.5t-152 34.5q-95 0 -162 -61t-67 -149q0 -92 43 -152.5t125 -99.5 q73 -35 143.5 -60.5t136.5 -54.5q60 -26 115.5 -59t96.5 -77z"/>
<glyph glyph-name="afii10055" horiz-adv-x="798" unicode="І" d="M718 0h-639v71q27 2 78 6t72 12q33 13 48 35.5t15 62.5v1028q0 35 -11 58.5t-52 39.5q-30 12 -75.5 22.5t-74.5 12.5v71h639v-71q-31 -1 -74 -7.5t-75 -16.5q-38 -12 -51 -39t-13 -60v-1027q0 -33 14.5 -58.5t49.5 -40.5q21 -8 68.5 -17.5t80.5 -10.5v-71z"/>
<glyph glyph-name="afii10056" horiz-adv-x="798" unicode="Ї" d="M718 0h-639v71q27 2 78 6t72 12q33 13 48 35.5t15 62.5v1028q0 35 -11 58.5t-52 39.5q-30 12 -75.5 22.5t-74.5 12.5v71h639v-71q-31 -1 -74 -7.5t-75 -16.5q-38 -12 -51 -39t-13 -60v-1027q0 -33 14.5 -58.5t49.5 -40.5q21 -8 68.5 -17.5t80.5 -10.5v-71zM302 1730 q0 -51 -34.5 -87t-83.5 -36t-83.5 36t-34.5 87t34.5 87t83.5 36t83.5 -36t34.5 -87zM732 1730q0 -51 -34.5 -87t-83.5 -36t-83.5 36t-34.5 87t34.5 87t83.5 36t83.5 -36t34.5 -87z"/>
<glyph glyph-name="afii10057" horiz-adv-x="1060" unicode="Ј" d="M1006 1348q-28 -1 -69.5 -7.5t-70.5 -16.5q-34 -12 -46 -40t-12 -61v-841q0 -66 -26.5 -140t-77.5 -132q-59 -68 -140.5 -106t-186.5 -38q-163 0 -264.5 91.5t-101.5 246.5q0 68 35 120.5t102 52.5q60 0 96.5 -33.5t36.5 -88.5q0 -32 -13 -64t-29 -57q-15 -23 -34 -54 t-27 -56q21 -33 65.5 -58t119.5 -25q73 0 119.5 33.5t69.5 89.5q22 52 31.5 128t9.5 170v751q0 35 -11.5 58.5t-47.5 41.5q-31 16 -77.5 24.5t-76.5 10.5v71h626v-71z"/>
<glyph glyph-name="afii10058" horiz-adv-x="2072" unicode="Љ" d="M2014 418q0 -107 -42.5 -188t-114.5 -132q-68 -49 -153.5 -73.5t-176.5 -24.5h-669v71q24 2 69.5 6t62.5 12q30 12 44 36.5t14 63.5v1146h-382q0 -349 -46.5 -609.5t-122.5 -426.5q-73 -161 -162.5 -240t-180.5 -79q-84 0 -130 42.5t-46 99.5q0 48 31 88t83 40 q39 0 67 -15t46 -35t31.5 -41.5t22.5 -34.5q38 31 85 107t93 213q44 129 75 292t31 365q0 96 -13.5 143.5t-57.5 68.5q-27 13 -81.5 22.5t-71.5 12.5v71h1140v-71q-28 -1 -73.5 -10t-65.5 -16q-34 -12 -46.5 -41t-12.5 -62v-403l98 2t95 1q113 0 214.5 -20.5t179.5 -68.5 q77 -47 121.5 -124.5t44.5 -187.5zM1766 435q0 136 -91.5 216.5t-242.5 80.5q-69 0 -109.5 -1.5t-61.5 -2.5v-520q0 -66 39 -97.5t154 -31.5q152 0 232 91.5t80 264.5z"/>
<glyph glyph-name="afii10059" horiz-adv-x="2182" unicode="Њ" d="M2124 418q0 -107 -42.5 -188t-114.5 -132q-68 -49 -153.5 -73.5t-176.5 -24.5h-672v71q24 2 70 8.5t66 15.5q31 14 44 37.5t13 60.5v517h-657v-510q0 -35 11.5 -59t45.5 -42q17 -9 60.5 -18t68.5 -10v-71h-589v71q24 2 69.5 6t62.5 12q30 12 44 36.5t14 63.5v1024 q0 32 -13 58.5t-45 41.5q-27 13 -65.5 23t-66.5 12v71h589v-71q-28 -1 -68.5 -9t-60.5 -15q-34 -12 -45.5 -40t-11.5 -61v-424h657v410q0 34 -11.5 60t-45.5 42q-23 12 -64.5 23.5t-68.5 13.5v71h601v-71q-28 -1 -73.5 -10t-65.5 -16q-34 -12 -46.5 -41t-12.5 -62v-403l98 2 t95 1q113 0 214.5 -20.5t179.5 -68.5q77 -47 121.5 -124.5t44.5 -187.5zM1876 435q0 136 -91.5 216.5t-242.5 80.5q-69 0 -109.5 -1.5t-61.5 -2.5v-520q0 -66 39 -97.5t154 -31.5q152 0 232 91.5t80 264.5z"/>
<glyph glyph-name="afii10060" horiz-adv-x="1720" unicode="Ћ" d="M1689 0h-589v71q28 2 63.5 7.5t63.5 16.5q32 13 44.5 37.5t12.5 63.5v273q0 39 -5 97t-25 93q-25 44 -74 70t-149 26q-97 0 -158.5 -17t-144.5 -58v-480q0 -35 11.5 -59t45.5 -42q8 -4 25 -9t40 -9q21 -3 41.5 -6.5t32.5 -3.5v-71h-628v71q27 2 80 8t75 15 q33 13 48.5 37.5t15.5 65.5v1144h-46q-31 0 -77 -1.5t-88 -6.5q-33 -4 -68.5 -39.5t-65.5 -80.5t-53 -95.5t-32 -83.5h-70v385h1224v-375h-69q-8 33 -31.5 81.5t-53.5 92.5q-31 45 -66 77.5t-68 37.5q-31 4 -78 6t-87 2h-58v-581q76 46 184 86t194 40q129 0 208 -31t119 -82 q41 -51 53.5 -117.5t12.5 -138.5v-311q0 -33 13 -59t45 -41q24 -11 65 -22.5t67 -12.5v-71z"/>
<glyph glyph-name="afii10061" horiz-adv-x="1423" unicode="Ќ" d="M1445 0h-391q-41 116 -80 211.5t-80 185.5q-67 151 -135.5 204t-184.5 53h-73v-454q0 -33 12.5 -59t45.5 -42q16 -7 59.5 -17t72.5 -11v-71h-589v71q23 2 67 6t62 12q30 13 43.5 38.5t13.5 61.5v1024q0 34 -11.5 59t-45.5 41q-27 13 -64 23t-65 12v71h589v-71 q-28 -1 -70 -9t-62 -15q-34 -12 -46 -40t-12 -61v-486h93q37 0 72.5 16t65.5 47q43 44 69 107.5t56 153.5q28 83 58 154t88 131q39 40 92 63t115 23q43 0 75 -10.5t54 -29.5q20 -17 30 -40t10 -50q0 -22 -6.5 -43t-18.5 -35q-14 -17 -31 -26.5t-48 -9.5q-33 0 -57.5 11 t-42.5 30t-32.5 44.5t-27.5 51.5q-28 -19 -47.5 -47t-34.5 -60t-26.5 -68t-26.5 -80q-12 -37 -28 -82.5t-37 -84.5q-22 -42 -51.5 -84t-70.5 -79v-14q111 -31 184.5 -99t123.5 -175q28 -61 61.5 -131.5t55.5 -119.5q31 -67 60 -89.5t59 -27.5q26 -4 56 -7.5t52 -5.5v-71z M974 1675q-44 -22 -136.5 -66.5t-209.5 -101.5l-31 39q91 87 148.5 143.5t113.5 115.5q32 34 58.5 48.5t56.5 14.5q38 0 65 -23t27 -57q0 -43 -26 -68t-66 -45z"/>
<glyph glyph-name="afii10062" horiz-adv-x="1345" unicode="Ў" d="M914 1650q-9 21 -22 56.5t-13 63.5q0 52 33.5 75t72.5 23q44 0 71.5 -32t27.5 -82q0 -33 -20.5 -77t-61.5 -76q-48 -37 -115.5 -59.5t-186.5 -22.5q-106 0 -180.5 23.5t-118.5 58.5q-43 34 -62.5 75t-19.5 78q0 50 27.5 82t70.5 32q40 0 73.5 -22t33.5 -76 q0 -31 -12 -62.5t-23 -57.5q42 -40 100 -51.5t111 -11.5q49 0 111 12.5t103 50.5zM188 1213q-13 24 -37.5 52.5t-59.5 47.5q-27 14 -62.5 23.5t-63.5 11.5v71h598v-71q-63 -3 -119 -14t-56 -36q0 -11 8 -29t12 -25q40 -77 125.5 -244t236.5 -451q57 123 124 277t107 251 q42 105 51 139.5t9 50.5q0 20 -19 34.5t-49 24.5q-30 9 -62 14t-67 8v71h530v-71q-26 -1 -65.5 -12t-67.5 -27q-34 -20 -54.5 -49.5t-45.5 -80.5q-78 -157 -191.5 -412t-174.5 -379t-118 -205t-115 -126q-59 -47 -108.5 -62t-107.5 -15q-80 0 -135 44t-55 103q0 50 30.5 87 t78.5 37q35 0 61.5 -16t43.5 -38q17 -21 34 -51.5t28 -47.5q75 21 125 81.5t98 145.5q-127 245 -274.5 526t-192.5 362z"/>
<glyph glyph-name="afii10145" horiz-adv-x="1659" unicode="Џ" d="M632 0h-534v71q24 2 69.5 6t62.5 12q30 12 44 36.5t14 63.5v1024q0 32 -13 58.5t-45 41.5q-27 13 -65.5 23t-66.5 12v71h583v-71q-28 -1 -67 -9t-60 -15q-34 -12 -43.5 -40t-9.5 -61v-1027q0 -45 32.5 -78t98.5 -33q41 0 90.5 -2t117.5 -2q55 0 120.5 1.5t114.5 2.5 q48 1 65.5 22.5t17.5 67.5v1038q0 32 -11 58.5t-43 41.5q-27 13 -64.5 23t-65.5 12v71h583v-71q-28 -1 -68.5 -9t-60.5 -15q-34 -12 -45.5 -40t-11.5 -61v-1023q0 -35 12 -59t46 -42q17 -9 62 -18t70 -10v-71h-538q-39 -3 -65 -38t-45 -87q-16 -46 -26.5 -102t-20.5 -118 h-77q-9 58 -17.5 109t-29.5 111q-18 51 -44 86t-66 39z"/>
<glyph glyph-name="afii10017" horiz-adv-x="1374" unicode="А" d="M849 580l-215 550l-211 -550h426zM1421 0h-591v71q78 5 129.5 20t51.5 37q0 9 -2 22t-6 23l-118 318h-497q-28 -70 -45.5 -122t-31.5 -96q-13 -43 -18 -70t-5 -44q0 -40 63 -62t142 -26v-71h-534v71q26 2 65 11.5t64 25.5q40 27 62 56.5t43 81.5q107 267 236 600t230 593 h80l473 -1224q15 -39 34 -63t53 -47q23 -14 60 -23.5t62 -10.5v-71z"/>
<glyph glyph-name="afii10018" horiz-adv-x="1334" unicode="Б" d="M1254 418q0 -107 -42.5 -188t-114.5 -132q-68 -49 -153.5 -73.5t-176.5 -24.5h-672v71q24 2 70 8.5t66 15.5q31 14 44 37.5t13 60.5v1020q0 34 -11.5 60t-45.5 42q-30 15 -67 23t-62 10v71h1066v-347h-75q-21 79 -87.5 165.5t-125.5 94.5q-31 4 -74 6t-98 2h-207v-524 l98 2t95 1q113 0 214.5 -20.5t179.5 -68.5q77 -47 121.5 -124.5t44.5 -187.5zM1006 435q0 136 -91.5 216.5t-242.5 80.5q-69 0 -109.5 -1.5t-61.5 -2.5v-520q0 -66 39 -97.5t154 -31.5q152 0 232 91.5t80 264.5z"/>
<glyph glyph-name="afii10019" horiz-adv-x="1339" unicode="В" d="M1001 422q0 126 -84.5 207t-241.5 81q-64 0 -108 -1.5t-66 -2.5v-500q0 -63 51 -95t142 -32q149 0 228 87t79 256zM863 875q37 43 51.5 94t14.5 121q0 117 -64 183.5t-202 66.5q-32 0 -80.5 -1.5t-81.5 -2.5v-545h127q82 0 140.5 21t94.5 63zM1104 661q62 -42 103 -110 t41 -165q0 -99 -43 -172t-112 -120q-67 -46 -151.5 -70t-174.5 -24h-672v71q24 2 70 8.5t66 15.5q31 14 44 37.5t13 60.5v1020q0 34 -11.5 60t-45.5 42q-30 15 -67 23t-62 10v71h655q76 0 145.5 -15t132.5 -53q59 -35 97 -95t38 -146q0 -75 -27 -133.5t-76 -100.5 q-46 -40 -105.5 -67.5t-128.5 -42.5v-9q61 -7 136.5 -30.5t134.5 -65.5z"/>
<glyph glyph-name="afii10020" horiz-adv-x="1195" unicode="Г" d="M1179 1022h-75q-10 39 -27 83t-51 100q-32 52 -65.5 86t-77.5 40q-34 5 -83.5 7t-94.5 2h-204v-1138q0 -34 16 -59.5t48 -41.5q20 -9 72.5 -19t85.5 -11v-71h-637v71q30 2 80 6.5t65 11.5q30 13 43.5 38.5t13.5 61.5v1024q0 33 -11 58.5t-46 41.5q-27 13 -72.5 23 t-72.5 12v71h1093v-397z"/>
<glyph glyph-name="afii10021" horiz-adv-x="1479" unicode="Д" d="M300 3q-40 -5 -77.5 -45.5t-67.5 -92.5q-28 -48 -50 -106.5t-31 -89.5h-75v418h138q121 182 220.5 496t99.5 559q0 75 -13.5 114.5t-51.5 57.5q-25 12 -79 21.5t-79 12.5v71h1143v-71q-28 -1 -68.5 -9t-60.5 -15q-34 -12 -45.5 -40t-11.5 -61v-1038q0 -56 28 -77.5 t90 -21.5h84v-417h-75q-10 39 -26 86t-50 110q-30 56 -63 94t-77 44h-802zM978 177v1158h-398q0 -357 -89.5 -690t-225.5 -558h620q48 0 70.5 22t22.5 68z"/>
<glyph glyph-name="afii10022" horiz-adv-x="1338" unicode="Е" d="M1291 418l-27 -418h-1178v71q30 2 80 8.5t65 13.5q32 15 44.5 39t12.5 61v1020q0 33 -11 58.5t-46 41.5q-27 13 -72.5 23t-72.5 12v71h1098v-342h-75q-20 76 -86.5 161.5t-126.5 93.5q-31 4 -74 6t-98 2h-223v-564h160q77 0 112.5 14.5t62.5 48.5q22 29 37.5 77.5 t20.5 91.5h75v-555h-75q-4 48 -21.5 101.5t-36.5 77.5q-31 39 -70.5 51t-104.5 12h-160v-426q0 -64 9 -101t35 -56t71 -24.5t128 -5.5h87t91 4q38 4 78.5 14.5t57.5 28.5q46 48 96.5 145.5t64.5 143.5h72z"/>
<glyph glyph-name="afii10024" horiz-adv-x="2016" unicode="Ж" d="M2040 0h-391q-41 116 -80 211.5t-80 185.5q-66 149 -133.5 203t-180.5 54h-61v-454q0 -33 12.5 -59t45.5 -42q16 -7 59.5 -17t72.5 -11v-71h-588v71q23 2 67 6t62 12q30 13 43.5 38.5t13.5 61.5v465h-61q-115 0 -180.5 -50.5t-135.5 -206.5q-40 -87 -83 -195t-77 -202 h-389v71q23 3 51 5.5t56 7.5q42 8 69 34t53 83q22 50 55 118.5t62 132.5q51 112 123.5 178.5t177.5 95.5v14q-40 36 -69 75t-51 84q-21 42 -35 83t-28 86q-10 34 -23 77.5t-26 73.5q-15 33 -35 60.5t-48 45.5q-11 -22 -28 -51.5t-32 -44.5q-21 -21 -41 -31t-59 -10 q-54 0 -79 36.5t-25 77.5q0 26 9.5 48t30.5 42q20 18 52.5 29t76.5 11q64 0 115 -22.5t92 -63.5q54 -55 87 -133t56 -152q28 -89 49 -150t72 -111q32 -31 66.5 -47t71.5 -16h80v476q0 34 -11.5 59t-45.5 41q-27 13 -64 23t-65 12v71h588v-71q-28 -1 -70 -9t-62 -15 q-34 -12 -46 -40t-12 -61v-486h80q37 0 72.5 16t65.5 47q43 44 70 111.5t52 149.5q23 75 56.5 153t85.5 132q39 40 92 63t115 23q43 0 75 -10.5t54 -29.5q20 -17 30 -40t10 -50q0 -22 -6.5 -43t-18.5 -35q-14 -17 -31 -26.5t-48 -9.5q-33 0 -57.5 11t-42.5 30t-32.5 44.5 t-27.5 51.5q-28 -18 -47.5 -45.5t-34.5 -59.5q-13 -28 -26.5 -73.5t-23.5 -75.5q-10 -33 -27 -83t-35 -85q-21 -42 -50.5 -84t-70.5 -79v-14q106 -30 180 -98.5t123 -175.5q28 -61 61.5 -131.5t55.5 -119.5q24 -52 51 -79.5t59 -34.5q30 -6 62.5 -10t54.5 -6v-71z"/>
<glyph glyph-name="afii10025" horiz-adv-x="1248" unicode="З" d="M1020 681q62 -42 101 -105t39 -163q0 -197 -171 -321.5t-442 -124.5q-124 0 -218 29.5t-157 75.5q-64 48 -97 108.5t-33 126.5q0 56 30 99t87 43q65 0 96.5 -32t31.5 -78q0 -34 -14 -89t-20 -76q8 -12 31.5 -33t59.5 -40q35 -20 86.5 -34.5t115.5 -14.5q73 0 141 20.5 t117 62.5q51 44 80.5 109.5t29.5 162.5q0 51 -13.5 104.5t-46.5 92.5q-35 41 -94.5 66t-152.5 25h-144v107h106q155 0 223 79t68 234q0 53 -13 98t-41 78q-29 34 -75.5 54t-114.5 20q-95 0 -162 -37.5t-115 -104.5q-45 -62 -73 -146.5t-47 -163.5h-82l8 506h80l42 -68 q63 39 162.5 69t207.5 30q113 0 213 -28.5t168 -97.5q50 -53 67 -109t17 -94q0 -45 -16 -98t-57 -100q-40 -47 -106 -86.5t-163 -63.5v-13q59 -2 130.5 -21t129.5 -58z"/>
<glyph glyph-name="afii10026" horiz-adv-x="1676" unicode="И" d="M1574 0h-587v71q24 2 70.5 6t63.5 12q30 12 44 36.5t14 63.5v885l-686 -856v-23q0 -35 11.5 -56.5t45.5 -39.5q17 -9 63 -18t72 -10v-71h-587v71q24 2 69.5 6t62.5 12q30 12 44 36.5t14 63.5v1024q0 32 -13 58.5t-45 41.5q-27 13 -65.5 23t-66.5 12v71h587v-71 q-28 -1 -69.5 -9t-61.5 -15q-34 -12 -45.5 -40t-11.5 -61v-863l686 855q0 36 -13 59.5t-45 38.5q-25 12 -69 22.5t-69 12.5v71h587v-71q-28 -1 -68.5 -9t-60.5 -15q-34 -12 -45.5 -40t-11.5 -61v-1023q0 -35 11.5 -59t45.5 -42q17 -9 60.5 -18t68.5 -10v-71z"/>
<glyph glyph-name="afii10027" horiz-adv-x="1676" unicode="Й" d="M1062 1650q-9 21 -22 56.5t-13 63.5q0 52 33.5 75t72.5 23q44 0 71.5 -32t27.5 -82q0 -33 -20.5 -77t-61.5 -76q-48 -37 -115.5 -59.5t-186.5 -22.5q-106 0 -180.5 23.5t-118.5 58.5q-43 34 -62.5 75t-19.5 78q0 50 27.5 82t70.5 32q40 0 73.5 -22t33.5 -76 q0 -31 -12 -62.5t-23 -57.5q42 -40 100 -51.5t111 -11.5q49 0 111 12.5t103 50.5zM1574 0h-587v71q24 2 70.5 6t63.5 12q30 12 44 36.5t14 63.5v885l-686 -856v-23q0 -35 11.5 -56.5t45.5 -39.5q17 -9 63 -18t72 -10v-71h-587v71q24 2 69.5 6t62.5 12q30 12 44 36.5t14 63.5 v1024q0 32 -13 58.5t-45 41.5q-27 13 -65.5 23t-66.5 12v71h587v-71q-28 -1 -69.5 -9t-61.5 -15q-34 -12 -45.5 -40t-11.5 -61v-863l686 855q0 36 -13 59.5t-45 38.5q-25 12 -69 22.5t-69 12.5v71h587v-71q-28 -1 -68.5 -9t-60.5 -15q-34 -12 -45.5 -40t-11.5 -61v-1023 q0 -35 11.5 -59t45.5 -42q17 -9 60.5 -18t68.5 -10v-71z"/>
<glyph glyph-name="afii10028" horiz-adv-x="1423" unicode="К" d="M1445 0h-391q-41 116 -80 211.5t-80 185.5q-67 151 -135.5 204t-184.5 53h-73v-454q0 -33 12.5 -59t45.5 -42q16 -7 59.5 -17t72.5 -11v-71h-589v71q23 2 67 6t62 12q30 13 43.5 38.5t13.5 61.5v1024q0 34 -11.5 59t-45.5 41q-27 13 -64 23t-65 12v71h589v-71 q-28 -1 -70 -9t-62 -15q-34 -12 -46 -40t-12 -61v-486h93q37 0 72.5 16t65.5 47q43 44 69 107.5t56 153.5q28 83 58 154t88 131q39 40 92 63t115 23q43 0 75 -10.5t54 -29.5q20 -17 30 -40t10 -50q0 -22 -6.5 -43t-18.5 -35q-14 -17 -31 -26.5t-48 -9.5q-33 0 -57.5 11 t-42.5 30t-32.5 44.5t-27.5 51.5q-28 -19 -47.5 -47t-34.5 -60t-26.5 -68t-26.5 -80q-12 -37 -28 -82.5t-37 -84.5q-22 -42 -51.5 -84t-70.5 -79v-14q111 -31 184.5 -99t123.5 -175q28 -61 61.5 -131.5t55.5 -119.5q31 -67 60 -89.5t59 -27.5q26 -4 56 -7.5t52 -5.5v-71z "/>
<glyph glyph-name="afii10029" horiz-adv-x="1549" unicode="Л" d="M390.5 1335.5q-54.5 9.5 -71.5 12.5v71h1128v-71q-28 -1 -68.5 -9t-60.5 -15q-34 -12 -45.5 -40t-11.5 -61v-1023q0 -35 11.5 -59t45.5 -42q17 -9 60.5 -18t68.5 -10v-71h-589v71q24 2 69.5 6t62.5 12q30 12 44 36.5t14 63.5v1146h-382q0 -349 -46.5 -609.5 t-122.5 -426.5q-73 -161 -162.5 -240t-180.5 -79q-84 0 -130 42.5t-46 99.5q0 44 29.5 86t84.5 42q39 0 67 -15t46 -35t31.5 -41.5t22.5 -34.5q38 31 85 107t93 213q44 129 75 292t31 365q0 96 -13.5 143.5t-57.5 68.5q-27 13 -81.5 22.5z"/>
<glyph glyph-name="afii10030" horiz-adv-x="1899" unicode="М" d="M1806 0h-627v71q34 1 87.5 7t73.5 17q31 19 45.5 43.5t14.5 61.5v1032h-15l-484 -1209h-50l-461 1234h-13v-847q0 -123 15.5 -187t47.5 -92q22 -21 91 -40t90 -20v-71h-573v71q45 4 94.5 15t76.5 33q35 28 48 86t13 194v726q0 63 -15 103t-43 65q-31 27 -76 40t-89 15v71 h484l406 -1064l347 890q19 49 32.5 102.5t14.5 71.5h463v-71q-28 -1 -71.5 -9t-63.5 -15q-34 -12 -46 -40t-12 -61v-1023q0 -35 12 -59t46 -42q18 -10 64 -18.5t73 -9.5v-71z"/>
<glyph glyph-name="afii10031" horiz-adv-x="1669" unicode="Н" d="M1567 0h-589v71q24 2 69.5 6t62.5 12q30 12 44 36.5t14 63.5v505h-667v-494q0 -35 11.5 -59t45.5 -42q17 -9 60.5 -18t68.5 -10v-71h-589v71q24 2 69.5 6t62.5 12q30 12 44 36.5t14 63.5v1024q0 32 -13 58.5t-45 41.5q-27 13 -65.5 23t-66.5 12v71h589v-71 q-28 -1 -68.5 -9t-60.5 -15q-34 -12 -45.5 -40t-11.5 -61v-440h667v430q0 32 -13 58.5t-45 41.5q-27 13 -65.5 23t-66.5 12v71h589v-71q-28 -1 -68.5 -9t-60.5 -15q-34 -12 -45.5 -40t-11.5 -61v-1023q0 -35 11.5 -59t45.5 -42q17 -9 60.5 -18t68.5 -10v-71z"/>
<glyph glyph-name="afii10032" horiz-adv-x="1524" unicode="О" d="M1095 245q56 91 81.5 206t25.5 257q0 146 -28.5 268t-83.5 208q-55 85 -138 132.5t-190 47.5q-120 0 -204 -55t-137 -147q-50 -88 -74.5 -206t-24.5 -248q0 -144 26 -260t82 -206q54 -88 136 -137.5t196 -49.5q107 0 193 50t140 140zM1244 1251q94 -98 147 -236.5 t53 -306.5q0 -169 -54 -307t-150 -235q-93 -96 -216 -148t-262 -52q-148 0 -273.5 55.5t-215.5 154.5q-90 97 -141.5 235.5t-51.5 296.5q0 173 54 308.5t149 234.5q94 98 218.5 150t260.5 52q141 0 266 -53t216 -149z"/>
<glyph glyph-name="afii10033" horiz-adv-x="1655" unicode="П" d="M1553 0h-589v71q24 2 69.5 6t62.5 12q30 12 44 36.5t14 63.5v1140h-653v-1129q0 -35 11.5 -59t45.5 -42q17 -9 60.5 -18t68.5 -10v-71h-589v71q24 2 69.5 6t62.5 12q30 12 44 36.5t14 63.5v1024q0 32 -13 58.5t-45 41.5q-27 13 -65.5 23t-66.5 12v71h1455v-71 q-28 -1 -68.5 -9t-60.5 -15q-34 -12 -45.5 -40t-11.5 -61v-1023q0 -35 11.5 -59t45.5 -42q17 -9 60.5 -18t68.5 -10v-71z"/>
<glyph glyph-name="afii10034" horiz-adv-x="1249" unicode="Р" d="M880 827q34 48 45 99.5t11 92.5q0 57 -13.5 116t-46.5 103q-35 47 -92 73t-142 26h-141v-627h102q108 0 175.5 33.5t101.5 83.5zM1184 1069q0 -111 -43.5 -196.5t-120.5 -141.5q-76 -56 -167 -82t-193 -26h-159v-430q0 -35 11.5 -61.5t47.5 -40.5q18 -7 63.5 -13t83.5 -7 v-71h-609v71q24 2 69.5 7t63.5 13q30 13 43.5 38t13.5 64v1024q0 35 -10 63t-47 42q-38 13 -75.5 18.5t-64.5 7.5v71h648q198 0 321.5 -95.5t123.5 -254.5z"/>
<glyph glyph-name="afii10035" horiz-adv-x="1315" unicode="С" d="M723 -33q-127 0 -243.5 50t-206.5 144q-89 94 -142 229.5t-53 305.5t52 308.5t144 238.5q91 99 215 153t265 54q105 0 190 -26t162 -73l41 68h80l9 -506h-82q-16 74 -48 160.5t-75 146.5q-48 68 -114 106.5t-151 38.5q-97 0 -180.5 -43t-144.5 -127q-58 -81 -91 -206 t-33 -279q0 -136 34.5 -249.5t98.5 -199.5q64 -85 151.5 -133t195.5 -48q81 0 149 25.5t118 67.5q50 44 88 100t62 122l75 -36q-86 -211 -228 -301.5t-338 -90.5z"/>
<glyph glyph-name="afii10036" horiz-adv-x="1267" unicode="Т" d="M1251 1034h-69q-9 36 -32.5 85.5t-52.5 93.5q-30 46 -65.5 80.5t-68.5 39.5q-31 4 -78 6t-87 2h-58v-1135q0 -33 14 -60.5t49 -42.5q18 -7 75.5 -19t89.5 -13v-71h-670v71q28 2 85.5 8t79.5 15q33 13 48.5 37.5t15.5 65.5v1144h-58q-31 0 -77 -1.5t-88 -6.5 q-33 -4 -68.5 -39.5t-65.5 -80.5t-53 -95.5t-32 -83.5h-70v385h1236v-385z"/>
<glyph glyph-name="afii10037" horiz-adv-x="1345" unicode="У" d="M188 1213q-13 24 -37.5 52.5t-59.5 47.5q-27 14 -62.5 23.5t-63.5 11.5v71h598v-71q-63 -3 -119 -14t-56 -36q0 -11 8 -29t12 -25q40 -77 125.5 -244t236.5 -451q57 123 124 277t107 251q42 105 51 139.5t9 50.5q0 20 -19 34.5t-49 24.5q-30 9 -62 14t-67 8v71h530v-71 q-26 -1 -65.5 -12t-67.5 -27q-34 -20 -54.5 -49.5t-45.5 -80.5q-78 -157 -191.5 -412t-174.5 -379t-118 -205t-115 -126q-59 -47 -108.5 -62t-107.5 -15q-80 0 -135 44t-55 103q0 50 30.5 87t78.5 37q35 0 61.5 -16t43.5 -38q17 -21 34 -51.5t28 -47.5q75 21 125 81.5 t98 145.5q-127 245 -274.5 526t-192.5 362z"/>
<glyph glyph-name="afii10038" horiz-adv-x="1570" unicode="Ф" d="M1325 351q-82 -64 -193.5 -98t-243.5 -34v-45q0 -35 11.5 -58t47.5 -37q18 -7 62.5 -12.5t82.5 -6.5v-70h-601v70q24 2 69.5 6.5t63.5 12.5q30 13 44 36t14 59v45q-132 0 -244.5 33t-195.5 99q-82 66 -128.5 163t-46.5 225q0 98 33.5 181t109.5 151q73 65 189 102.5 t273 37.5h10v27q0 33 -11.5 56t-46.5 38q-29 13 -67.5 21t-67.5 10v70h592v-70q-29 -1 -67 -5.5t-67 -14.5q-34 -12 -46.5 -36.5t-12.5 -58.5v-37h10q157 0 272 -37t190 -103q74 -66 108.5 -151t34.5 -181q0 -126 -48.5 -225t-129.5 -163zM1202 462q39 67 51.5 135.5 t12.5 117.5q0 64 -17 143t-53 136q-38 60 -103 99t-162 39h-42v-832q109 0 188.5 43.5t124.5 118.5zM367 462q51 -86 131 -124t183 -38v832h-42q-91 0 -156.5 -36t-108.5 -102q-36 -57 -53 -130.5t-17 -148.5q0 -52 9.5 -114.5t53.5 -138.5z"/>
<glyph glyph-name="afii10039" horiz-adv-x="1455" unicode="Х" d="M1457 0h-664v71q82 2 132.5 15.5t50.5 41.5q0 15 -23 62t-59 105q-40 64 -95 150.5t-109 165.5q-88 -116 -200 -279.5t-112 -192.5q0 -33 30.5 -48.5t134.5 -19.5v-71h-530v71q26 2 66.5 7.5t66.5 18.5q52 28 83.5 60.5t63.5 76.5q64 88 164 219.5t177 239.5 q-58 85 -148 215.5t-192 279.5q-43 63 -67.5 89t-65.5 45q-24 11 -66.5 17.5t-67.5 8.5v71h657v-71q-58 -2 -120.5 -14.5t-62.5 -38.5q0 -19 25 -66.5t59 -101.5q35 -56 78 -124t105 -157q113 153 195 276t82 160q0 32 -37.5 47t-126.5 19v71h529v-71q-25 -1 -65.5 -7.5 t-67.5 -18.5q-52 -25 -77.5 -54t-68.5 -84q-80 -103 -147.5 -193.5t-162.5 -220.5q80 -114 178.5 -259t188.5 -277q31 -45 71 -85.5t65 -55.5q24 -14 64.5 -17.5t68.5 -4.5v-71z"/>
<glyph glyph-name="afii10040" horiz-adv-x="1655" unicode="Ц" d="M1278 0h-1180v71q24 2 69.5 6t62.5 12q30 12 44 36.5t14 63.5v1024q0 32 -13 58.5t-45 41.5q-27 13 -65.5 23t-66.5 12v71h583v-71q-28 -1 -67 -9t-60 -15q-34 -12 -43.5 -40t-9.5 -61v-1027q0 -41 26 -76t95 -35q42 0 95 -1.5t122 -1.5q57 0 110.5 1t121.5 2 q48 1 65.5 22.5t17.5 67.5v1038q0 32 -11 58.5t-43 41.5q-27 13 -64.5 23t-65.5 12v71h583v-71q-28 -1 -68.5 -9t-60.5 -15q-34 -12 -45.5 -40t-11.5 -61v-1041q0 -56 28 -77.5t90 -21.5h84v-417h-75q-10 39 -26 86t-50 110q-30 56 -63 94t-77 44z"/>
<glyph glyph-name="afii10041" horiz-adv-x="1533" unicode="Ч" d="M1032 743v470q0 32 -13 58.5t-45 41.5q-27 13 -65.5 23t-66.5 12v71h589v-71q-28 -1 -68.5 -9t-60.5 -15q-34 -12 -45.5 -40t-11.5 -61v-1023q0 -35 11.5 -59t45.5 -42q17 -9 60.5 -18t68.5 -10v-71h-589v71q24 2 69.5 6t62.5 12q30 12 44 36.5t14 63.5v469 q-93 -47 -192.5 -81t-212.5 -34q-127 0 -208.5 29t-125.5 82q-42 49 -57 116.5t-15 149.5v293q0 32 -13 58.5t-45 41.5q-27 13 -65.5 23t-66.5 12v71h589v-71q-28 -1 -67 -9t-60 -15q-34 -12 -45.5 -40t-11.5 -61v-256q0 -50 4.5 -99.5t31.5 -95.5q25 -44 79.5 -72.5 t149.5 -28.5q73 0 166.5 19.5t164.5 52.5z"/>
<glyph glyph-name="afii10042" horiz-adv-x="2249" unicode="Ш" d="M2131 0h-2037v71q24 2 70.5 6t64.5 12q30 12 44.5 36.5t14.5 63.5v1024q0 32 -13 58.5t-45 41.5q-27 13 -65.5 23t-66.5 12v71h579v-71q-28 -1 -66 -9t-59 -15q-34 -12 -43.5 -40t-9.5 -61v-1037q0 -54 33 -77.5t88 -23.5q31 0 67 -1.5t91 -1.5q35 0 73.5 1t74.5 2 q46 1 64.5 17t18.5 63v1048q0 32 -11 58.5t-43 41.5q-27 13 -63.5 23t-64.5 12v71h571v-71q-28 -1 -66 -9t-59 -15q-34 -12 -43.5 -40t-9.5 -61v-1037q0 -53 32.5 -77t88.5 -24q31 0 64 -1.5t83 -1.5q36 0 74 1t85 2q46 1 64.5 17t18.5 63v1048q0 32 -11 58.5t-43 41.5 q-27 13 -63.5 23t-64.5 12v71h579v-71q-28 -1 -68.5 -9t-60.5 -15q-34 -12 -45.5 -40t-11.5 -61v-1023q0 -35 12 -59t46 -42q17 -9 62 -18t70 -10v-71z"/>
<glyph glyph-name="afii10043" horiz-adv-x="2249" unicode="Щ" d="M1852 0h-1758v71q24 2 70.5 6t64.5 12q30 12 44.5 36.5t14.5 63.5v1024q0 32 -13 58.5t-45 41.5q-27 13 -65.5 23t-66.5 12v71h579v-71q-28 -1 -66 -9t-59 -15q-34 -12 -43.5 -40t-9.5 -61v-1037q0 -54 33 -77.5t88 -23.5q31 0 67 -1.5t91 -1.5q35 0 73.5 1t74.5 2 q46 1 64.5 17t18.5 63v1048q0 32 -11 58.5t-43 41.5q-27 13 -63.5 23t-64.5 12v71h571v-71q-28 -1 -66 -9t-59 -15q-34 -12 -43.5 -40t-9.5 -61v-1037q0 -53 32.5 -77t88.5 -24q31 0 64 -1.5t83 -1.5q36 0 74 1t85 2q46 1 64.5 17t18.5 63v1048q0 32 -11 58.5t-43 41.5 q-27 13 -63.5 23t-64.5 12v71h579v-71q-28 -1 -68.5 -9t-60.5 -15q-34 -12 -45.5 -40t-11.5 -61v-1041q0 -56 28 -77.5t90 -21.5h84v-417h-75q-10 39 -26 86t-50 110q-30 56 -63 94t-77 44z"/>
<glyph glyph-name="afii10044" horiz-adv-x="1561" unicode="Ъ" d="M1503 418q0 -107 -42.5 -188t-114.5 -132q-68 -49 -153.5 -73.5t-176.5 -24.5h-692v71q31 2 84 9.5t68 14.5q31 14 46 37.5t15 60.5v1147h-52q-57 0 -99.5 -1.5t-84.5 -6.5q-52 -6 -117 -91t-94 -182h-75v360h939v-71q-29 -1 -76.5 -10t-68.5 -16q-34 -12 -46.5 -40.5 t-12.5 -62.5v-403l98 2t95 1q113 0 214.5 -20.5t179.5 -68.5q77 -47 121.5 -124.5t44.5 -187.5zM1255 435q0 136 -91.5 216.5t-242.5 80.5q-69 0 -109.5 -1.5t-61.5 -2.5v-520q0 -66 39 -97.5t154 -31.5q152 0 232 91.5t80 264.5z"/>
<glyph glyph-name="afii10045" horiz-adv-x="1982" unicode="Ы" d="M1481 1213q0 32 -13 58.5t-45 41.5q-27 13 -65.5 23t-66.5 12v71h589v-71q-28 -1 -68.5 -9t-60.5 -15q-34 -12 -45.5 -40t-11.5 -61v-1023q0 -35 11.5 -59t45.5 -42q17 -9 60.5 -18t68.5 -10v-71h-589v71q24 2 69.5 6t62.5 12q30 12 44 36.5t14 63.5v1024zM1250 418 q0 -107 -42.5 -188t-114.5 -132q-68 -48 -152.5 -73t-173.5 -25h-672v71q24 2 70 8.5t66 15.5q31 14 44 37.5t13 60.5v1016q0 34 -11.5 60t-45.5 42q-23 12 -64.5 23.5t-68.5 13.5v71h601v-71q-28 -1 -73.5 -10t-65.5 -16q-34 -12 -46.5 -41t-12.5 -62v-403l98 2t95 1 q108 0 210 -20.5t180 -68.5q77 -47 121.5 -124.5t44.5 -187.5zM1002 435q0 136 -91 216.5t-239 80.5q-69 0 -109.5 -1.5t-61.5 -2.5v-520q0 -66 39 -97.5t154 -31.5q149 0 228.5 91.5t79.5 264.5z"/>
<glyph glyph-name="afii10046" horiz-adv-x="1312" unicode="Ь" d="M1254 418q0 -107 -42.5 -188t-114.5 -132q-68 -49 -153.5 -73.5t-176.5 -24.5h-672v71q24 2 70 8.5t66 15.5q31 14 44 37.5t13 60.5v1016q0 34 -11.5 60t-45.5 42q-23 12 -64.5 23.5t-68.5 13.5v71h601v-71q-28 -1 -73.5 -10t-65.5 -16q-34 -12 -46.5 -41t-12.5 -62v-403 l98 2t95 1q113 0 214.5 -20.5t179.5 -68.5q77 -47 121.5 -124.5t44.5 -187.5zM1006 435q0 136 -91.5 216.5t-242.5 80.5q-69 0 -109.5 -1.5t-61.5 -2.5v-520q0 -66 39 -97.5t154 -31.5q152 0 232 91.5t80 264.5z"/>
<glyph glyph-name="afii10047" horiz-adv-x="1347" unicode="Э" d="M1268 752q0 -176 -52 -322t-145 -248q-94 -104 -218.5 -159.5t-277.5 -55.5q-144 0 -245.5 30.5t-163.5 77.5q-64 48 -92 103.5t-28 109.5q0 63 30.5 102.5t89.5 39.5q63 0 90.5 -35t27.5 -82q0 -35 -8 -88t-13 -75q7 -6 25 -21t58 -34q39 -18 81.5 -30.5t115.5 -12.5 q104 0 197 47.5t155 132.5q64 88 102.5 214t41.5 298q-28 -20 -67.5 -47t-68.5 -41q-39 -19 -68 -28.5t-71 -9.5q-52 0 -91.5 12t-75.5 27q-32 13 -76.5 26t-85.5 13q-42 0 -72 -17t-64 -43l-43 54q62 62 139 104t144 42q51 0 91.5 -12t74.5 -26q32 -13 72 -25.5t82 -12.5 q57 0 99 18t80 46q-10 262 -124 401.5t-299 139.5q-93 0 -164.5 -38t-123.5 -103q-50 -63 -80 -146t-47 -165h-82l7 506h79l39 -68q69 42 173.5 70.5t212.5 28.5q142 0 258 -47.5t202 -138.5q85 -91 132 -219t47 -293z"/>
<glyph glyph-name="afii10048" horiz-adv-x="2183" unicode="Ю" d="M1759 245q52 88 77 205.5t25 257.5q0 144 -27 267.5t-80 208.5q-53 86 -133.5 133t-185.5 47q-118 0 -198.5 -54.5t-132.5 -147.5q-46 -82 -70 -201t-24 -253q0 -144 24.5 -260t77.5 -206q52 -88 132 -137.5t191 -49.5q109 0 191.5 51.5t132.5 138.5zM1908 1251 q90 -96 142.5 -234.5t52.5 -308.5q0 -167 -52.5 -305.5t-145.5 -236.5q-91 -96 -211.5 -148t-256.5 -52q-144 0 -264 54t-208 150q-88 98 -136.5 229t-51.5 293h-278v-492q0 -35 11.5 -59t45.5 -42q17 -9 60.5 -18t68.5 -10v-71h-587v71q24 2 69.5 6t62.5 12q30 12 44 36.5 t14 63.5v1024q0 32 -13 58.5t-45 41.5q-27 13 -65.5 23t-66.5 12v71h587v-71q-28 -1 -68.5 -9t-60.5 -15q-34 -12 -45.5 -40t-11.5 -61v-442h280q12 156 68.5 279t144.5 211t203.5 135t241.5 47q140 0 261.5 -53.5t209.5 -148.5z"/>
<glyph glyph-name="afii10049" horiz-adv-x="1427" unicode="Я" d="M926 729v609h-172q-130 0 -206.5 -83.5t-76.5 -216.5q0 -152 88 -230.5t233 -78.5h134zM1336 0h-600v71q24 2 69.5 7t63.5 13q30 13 43.5 38t13.5 64v450h-94q-115 0 -178 -47t-133 -203q-45 -101 -79.5 -186t-78.5 -207h-389v71q23 3 51.5 6t56.5 8q41 8 66 30.5 t55 85.5q26 57 61 131t54 116q45 99 105.5 151t152.5 83v14q-71 15 -133.5 41.5t-110.5 68.5q-48 43 -75.5 103.5t-27.5 141.5q0 90 37 159t100 116q60 45 142 69t171 24h657v-71q-28 -1 -73 -10t-66 -16q-34 -12 -46 -41t-12 -62v-1026q0 -35 11 -61.5t47 -40.5 q18 -7 63 -13t76 -7v-71z"/>
<glyph glyph-name="afii10065" horiz-adv-x="1032" unicode="а" d="M657 546q-85 -25 -149 -49t-119 -60q-50 -34 -79 -80.5t-29 -110.5q0 -83 43.5 -122t110.5 -39q71 0 125 34.5t91 81.5zM1006 18q-47 -17 -82.5 -27.5t-80.5 -10.5q-78 0 -124.5 36.5t-59.5 106.5h-6q-65 -72 -139.5 -110t-179.5 -38q-111 0 -182.5 68t-71.5 178 q0 57 16 102t48 81q25 30 66 53.5t77 37.5q45 17 182.5 63t185.5 72v99q0 13 -5.5 50t-23.5 70q-20 37 -56.5 64.5t-103.5 27.5q-46 0 -85.5 -15.5t-55.5 -32.5q0 -20 9.5 -59t9.5 -72q0 -35 -31.5 -64t-87.5 -29q-50 0 -73.5 35.5t-23.5 79.5q0 46 32.5 88t84.5 75 q45 28 109 47.5t125 19.5q84 0 146.5 -11.5t113.5 -49.5q51 -37 77.5 -100.5t26.5 -163.5q0 -143 -3 -253.5t-3 -241.5q0 -39 13.5 -62t41.5 -39q15 -9 47.5 -10t66.5 -1v-64z"/>
<glyph glyph-name="afii10066" horiz-adv-x="1107" unicode="б" d="M177 731l8 -2q48 120 147.5 199.5t233.5 79.5q112 0 201 -37.5t149 -105.5q59 -66 89.5 -159t30.5 -202q0 -107 -33 -206t-96 -170q-66 -75 -155 -116.5t-211 -41.5q-92 0 -177.5 37t-148.5 112q-65 76 -102.5 197t-37.5 284q0 157 21.5 278.5t54.5 223.5 q45 141 143 228.5t241 95.5q71 4 150.5 8t124.5 8q41 3 81 23.5t80 71.5l57 -41q-22 -30 -59.5 -78t-65.5 -77q-23 -25 -39 -41t-31 -23q-16 -9 -39 -13t-60 -6q-43 -2 -104.5 -7t-106.5 -6q-69 -3 -119 -31.5t-86 -68.5t-58 -89t-34 -86q-19 -63 -31.5 -121.5t-17.5 -117.5 zM762 181q35 68 51 145t16 177q0 80 -13 157.5t-44 138.5q-32 62 -81.5 97.5t-127.5 35.5q-81 0 -135 -39t-88 -101q-32 -61 -46 -138.5t-14 -150.5q0 -116 16.5 -196t47.5 -136q33 -61 84 -93t127 -32q69 0 121.5 36.5t85.5 98.5z"/>
<glyph glyph-name="afii10067" horiz-adv-x="1061" unicode="в" d="M733 756q0 50 -18.5 81.5t-49.5 49.5t-69.5 24.5t-79.5 6.5q-26 0 -57.5 -1.5t-55.5 -2.5v-360h97q69 0 116 16t71 43q25 26 35.5 62t10.5 81zM985 275q0 -73 -33 -126t-91 -87q-53 -31 -121 -46.5t-145 -15.5h-521v66q23 2 47.5 4t42.5 8q28 9 41.5 31.5t13.5 58.5v640 q0 33 -14 55.5t-42 34.5q-26 12 -50.5 16t-45.5 6v66q89 0 220.5 1t274.5 1q76 0 141.5 -10.5t116.5 -35.5q53 -26 82 -70.5t29 -107.5q0 -99 -61.5 -156.5t-161.5 -78.5v-11q51 -7 100.5 -23t88.5 -44q40 -29 64 -71.5t24 -104.5zM785 290q0 88 -65 139t-186 51 q-53 0 -83.5 -2t-47.5 -2v-326q0 -39 33 -60.5t101 -21.5q72 0 122 19t78 52q27 32 37.5 70t10.5 81z"/>
<glyph glyph-name="afii10068" horiz-adv-x="901" unicode="г" d="M571 0h-497v66q23 2 47.5 4t42.5 8q28 9 41.5 31.5t13.5 58.5v640q0 33 -14 55.5t-42 34.5q-26 12 -54 16t-48 6v66h822v-327h-62q-7 22 -25 64t-41 79q-23 40 -50.5 69.5t-57.5 33.5q-28 3 -68 4.5t-68 1.5h-106v-733q0 -34 14 -56t42 -34q22 -10 52.5 -15t57.5 -7v-66z "/>
<glyph glyph-name="afii10069" horiz-adv-x="1146" unicode="д" d="M226 81h431q44 0 63 15.5t19 47.5v760h-275q-6 -253 -69.5 -463.5t-168.5 -359.5zM112 81q99 131 172.5 344t73.5 349q0 52 -13 77t-41 39q-19 10 -62 18.5t-70 11.5v66h898v-66q-29 -2 -50.5 -5t-39.5 -7q-28 -8 -41.5 -31.5t-13.5 -58.5v-639q0 -53 20.5 -75.5 t86.5 -22.5h64v-370h-72q-21 101 -71 191t-108 102h-581q-54 -9 -109.5 -100t-75.5 -193h-72v370h105z"/>
<glyph glyph-name="afii10070" horiz-adv-x="990" unicode="е" d="M727 608q0 56 -9.5 120t-30.5 107q-23 46 -63 75t-103 29q-105 0 -174.5 -87.5t-75.5 -243.5h456zM948 232q-62 -118 -166 -188t-239 -70q-119 0 -208.5 42t-147.5 114t-86.5 168t-28.5 203q0 96 30.5 188.5t89.5 166.5q57 71 141.5 114.5t189.5 43.5q108 0 185 -34 t125 -93q46 -56 68.5 -132t22.5 -165v-66h-653q0 -97 18.5 -176t58.5 -139q39 -58 102 -91.5t150 -33.5q89 0 153.5 41.5t124.5 149.5z"/>
<glyph glyph-name="afii10072" horiz-adv-x="1612" unicode="ж" d="M1597 0h-332q-25 82 -45 140.5t-59 135.5q-47 94 -101.5 136t-143.5 42h-19v-278q0 -34 13.5 -56t41.5 -34q21 -10 44.5 -14t49.5 -6v-66h-473v66q23 2 46.5 3t41.5 7q28 9 41 31.5t13 58.5v288h-19q-93 0 -146 -41.5t-101 -136.5q-36 -70 -56.5 -129t-47.5 -147h-330v66 q17 2 43.5 5.5t45.5 7.5q36 7 56 24.5t40 58.5q10 23 28 63.5t42 88.5q37 74 87 121t140 66v13q-54 34 -83.5 89.5t-47.5 109.5q-15 47 -31 98.5t-36 68.5q-50 -60 -76 -81t-66 -21q-47 0 -75.5 29.5t-28.5 72.5q0 51 34.5 84.5t113.5 33.5q58 0 95.5 -15t83.5 -67 q25 -29 42 -72.5t33 -94.5q15 -48 34.5 -95.5t45.5 -75.5q24 -25 54 -37t67 -12h59v281q0 33 -13.5 55.5t-41.5 34.5q-26 12 -50 15t-44 5v66h473v-66q-31 -2 -50 -3.5t-38 -6.5q-28 -8 -41 -31.5t-13 -58.5v-291h59q33 0 66 13t55 36q28 30 47.5 79t32.5 92 q15 49 32.5 93.5t42.5 73.5q43 49 84 65.5t95 16.5q77 0 112.5 -34t35.5 -84q0 -44 -29 -73t-75 -29q-43 0 -69.5 23t-72.5 79q-22 -17 -38 -69.5t-29 -96.5q-19 -62 -50.5 -115.5t-80.5 -84.5v-13q91 -18 141.5 -66t87.5 -121q18 -35 40.5 -85.5t29.5 -66.5 q15 -34 38.5 -55t55.5 -27q25 -5 49 -9t40 -5v-66z"/>
<glyph glyph-name="afii10073" horiz-adv-x="970" unicode="з" d="M887 285q0 -139 -123.5 -225t-322.5 -86q-89 0 -161.5 20.5t-121.5 55.5q-47 35 -72 79t-25 96q0 45 24 74t75 29q54 0 82 -29t28 -61q0 -29 -8.5 -69t-14.5 -62q26 -26 76 -42.5t117 -16.5q104 0 173 62t69 175q0 34 -9 69t-34 62t-68 44t-113 17h-105v93h86 q120 0 168 50.5t48 156.5q0 74 -46 117.5t-127 43.5q-59 0 -105 -25.5t-85 -69.5q-35 -40 -61.5 -93.5t-43.5 -100.5h-67l6 357h67l36 -55q50 23 120.5 43t158.5 20q110 0 179 -26.5t107 -63.5q37 -36 50 -76.5t13 -66.5q0 -34 -10.5 -69.5t-39.5 -67.5q-28 -32 -77.5 -59.5 t-124.5 -42.5v-13q47 -2 96.5 -15t91.5 -41q45 -31 69.5 -77.5t24.5 -110.5z"/>
<glyph glyph-name="afii10074" horiz-adv-x="1254" unicode="и" d="M1184 0h-479v66q23 2 47.5 4t42.5 8q28 9 43 31.5t15 58.5v518l-454 -491v-17q0 -34 14 -56t42 -34q22 -10 46.5 -15t51.5 -7v-66h-479v66q23 2 47.5 4t42.5 8q28 9 41.5 31.5t13.5 58.5v640q0 33 -14 55.5t-42 34.5q-26 12 -50.5 16t-45.5 6v66h479v-66q-29 -2 -50.5 -5 t-39.5 -7q-28 -8 -41.5 -31.5t-13.5 -58.5v-510l454 492q0 44 -14 65t-42 33q-26 12 -51.5 16t-46.5 6v66h479v-66q-29 -2 -50.5 -5t-39.5 -7q-28 -8 -41.5 -31.5t-13.5 -58.5v-640q0 -35 12 -56.5t41 -33.5q21 -10 45.5 -15t50.5 -7v-66z"/>
<glyph glyph-name="afii10075" horiz-adv-x="1254" unicode="й" d="M964 1391q0 -31 -18.5 -74t-54.5 -75q-42 -37 -101.5 -60t-161.5 -23q-96 0 -159 23.5t-103 59.5q-38 35 -54.5 75.5t-16.5 73.5q0 48 28.5 78.5t68.5 30.5q37 0 69 -22t32 -72q0 -29 -12 -64.5t-19 -51.5q27 -33 71.5 -49t94.5 -16q44 0 93 15.5t76 49.5 q-8 19 -19.5 54.5t-11.5 61.5q0 50 32 72t68 22q41 0 69.5 -30.5t28.5 -78.5zM1184 0h-479v66q23 2 47.5 4t42.5 8q28 9 43 31.5t15 58.5v518l-454 -491v-17q0 -34 14 -56t42 -34q22 -10 46.5 -15t51.5 -7v-66h-479v66q23 2 47.5 4t42.5 8q28 9 41.5 31.5t13.5 58.5v640 q0 33 -14 55.5t-42 34.5q-26 12 -50.5 16t-45.5 6v66h479v-66q-29 -2 -50.5 -5t-39.5 -7q-28 -8 -41.5 -31.5t-13.5 -58.5v-510l454 492q0 44 -14 65t-42 33q-26 12 -51.5 16t-46.5 6v66h479v-66q-29 -2 -50.5 -5t-39.5 -7q-28 -8 -41.5 -31.5t-13.5 -58.5v-640 q0 -35 12 -56.5t41 -33.5q21 -10 45.5 -15t50.5 -7v-66z"/>
<glyph glyph-name="afii10076" horiz-adv-x="1129" unicode="к" d="M1118 0h-339q-25 82 -45 140.5t-59 135.5q-47 94 -103.5 136t-145.5 42h-23v-276q0 -34 14 -56t42 -34q21 -10 45.5 -15t50.5 -7v-66h-481v66q23 2 47.5 4t42.5 8q28 9 41.5 31.5t13.5 58.5v640q0 33 -14 55.5t-42 34.5q-26 12 -50.5 16t-45.5 6v66h481v-66 q-29 -2 -50.5 -5t-39.5 -7q-28 -8 -41.5 -31.5t-13.5 -58.5v-289h63q33 0 66 13t55 36q28 30 50 79t37 92q16 45 36.5 93t41.5 74q37 45 79.5 63.5t93.5 18.5q77 0 113 -33t36 -83q0 -43 -28.5 -74t-75.5 -31q-45 0 -70.5 23t-70.5 77q-19 -17 -36.5 -71.5t-33.5 -95.5 q-30 -81 -61.5 -125t-73.5 -71v-13q91 -18 144.5 -66t90.5 -121q18 -35 40.5 -85.5t29.5 -66.5q20 -45 48 -61.5t52 -20.5q23 -5 46.5 -8.5t42.5 -5.5v-66z"/>
<glyph glyph-name="afii10077" horiz-adv-x="1190" unicode="л" d="M1120 0h-482v66q23 2 47 4t42 8q28 9 43 31.5t15 58.5v736h-274q0 -244 -34 -420t-88 -287q-53 -109 -120 -163t-137 -54q-72 0 -109 37.5t-37 87.5q0 36 23.5 68t68.5 32q42 0 76 -24t66 -67q24 22 56.5 81.5t59.5 147.5q30 95 49 197t19 234q0 52 -13 77t-41 39 q-19 10 -62 18.5t-70 11.5v66h898v-66q-29 -2 -50.5 -5t-39.5 -7q-28 -8 -41.5 -31.5t-13.5 -58.5v-640q0 -35 12 -56.5t41 -33.5q21 -10 45.5 -15t50.5 -7v-66z"/>
<glyph glyph-name="afii10078" horiz-adv-x="1465" unicode="м" d="M1395 0h-483v66q23 2 47.5 4t42.5 8q29 9 44.5 32.5t15.5 57.5v714h-24l-334 -866h-62l-314 883h-22v-691q0 -51 14.5 -80t41.5 -40q21 -10 45.5 -15t50.5 -7v-66h-384v66q23 2 47.5 4t42.5 8q30 10 42.5 39.5t12.5 80.5v600q0 39 -14 63.5t-42 36.5q-26 12 -50.5 16 t-45.5 6v66h410l247 -706l218 585q10 29 22 69t13 52h414v-66q-29 -2 -50.5 -5t-39.5 -7q-28 -8 -41.5 -31.5t-13.5 -58.5v-640q0 -35 12 -56.5t41 -33.5q21 -10 45.5 -15t50.5 -7v-66z"/>
<glyph glyph-name="afii10079" horiz-adv-x="1247" unicode="н" d="M1177 0h-482v66q23 2 47.5 4t42.5 8q28 9 43 31.5t15 58.5v314h-439v-304q0 -34 14 -56t42 -34q21 -10 45.5 -15t50.5 -7v-66h-482v66q23 2 47.5 4t42.5 8q28 9 41.5 31.5t13.5 58.5v640q0 33 -14 55.5t-42 34.5q-26 12 -50.5 16t-45.5 6v66h482v-66q-29 -2 -50.5 -5 t-39.5 -7q-28 -8 -41.5 -31.5t-13.5 -58.5v-254h439v244q0 33 -14 55.5t-42 34.5q-26 12 -50.5 16t-45.5 6v66h482v-66q-29 -2 -50.5 -5t-39.5 -7q-28 -8 -41.5 -31.5t-13.5 -58.5v-640q0 -35 12 -56.5t41 -33.5q21 -10 45.5 -15t50.5 -7v-66z"/>
<glyph glyph-name="afii10080" horiz-adv-x="1104" unicode="о" d="M826 501q0 75 -15 158.5t-45 141.5q-32 62 -84 99.5t-127 37.5q-77 0 -131.5 -38t-88.5 -104q-32 -61 -45 -139t-13 -151q0 -96 15.5 -177.5t49.5 -145.5t85.5 -100.5t127.5 -36.5q125 0 198 121t73 334zM1033 503q0 -104 -33 -204.5t-94 -170.5q-69 -80 -160 -119 t-204 -39q-94 0 -179 35.5t-151 103.5q-65 67 -103.5 163.5t-38.5 216.5q0 231 134.5 378t352.5 147q207 0 341.5 -139.5t134.5 -371.5z"/>
<glyph glyph-name="afii10081" horiz-adv-x="1232" unicode="п" d="M1162 0h-482v66q23 2 47 4t42 8q28 9 43 31.5t15 58.5v736h-422v-726q0 -34 14 -56t42 -34q21 -10 45 -15t50 -7v-66h-482v66q23 2 47.5 4t42.5 8q28 9 41.5 31.5t13.5 58.5v640q0 33 -14 55.5t-42 34.5q-26 12 -50.5 16t-45.5 6v66h1091v-66q-29 -2 -50.5 -5t-39.5 -7 q-28 -8 -41.5 -31.5t-13.5 -58.5v-640q0 -35 12 -56.5t41 -33.5q21 -10 45.5 -15t50.5 -7v-66z"/>
<glyph glyph-name="afii10082" horiz-adv-x="1170" unicode="р" d="M810 160q40 62 59 144t19 183q0 74 -16 151t-50 134q-34 58 -89 94t-132 36q-74 0 -126 -32.5t-90 -77.5v-583q9 -27 29.5 -56t45.5 -50q31 -25 67 -40.5t88 -15.5q56 0 108 29.5t87 83.5zM973 869q59 -70 91.5 -162.5t32.5 -211.5q0 -117 -39 -213.5t-103 -164.5 q-67 -69 -149 -106t-174 -37q-89 0 -146 20t-93 47h-8v-296q0 -36 14 -60t43 -35q24 -9 68.5 -17.5t73.5 -9.5v-67h-551v67q31 2 60 5t52 10q30 10 42 35t12 59v1049q0 30 -15 58t-39 45q-18 12 -50 18.5t-62 8.5v65l336 22l14 -12v-111l8 -2q52 60 129 100t153 40 q92 0 168.5 -39t131.5 -105z"/>
<glyph glyph-name="afii10083" horiz-adv-x="930" unicode="с" d="M528 -26q-214 0 -335 142t-121 381q0 104 32.5 194.5t94.5 164.5q59 71 148 114.5t194 43.5q145 0 236 -69.5t91 -189.5q0 -50 -24 -88.5t-79 -38.5q-59 0 -91.5 30t-32.5 67q0 45 12 92.5t14 69.5q-18 31 -53.5 41.5t-76.5 10.5q-48 0 -91.5 -20.5t-84.5 -75.5 q-37 -50 -60 -135t-23 -203q0 -186 82.5 -303.5t216.5 -117.5q97 0 162.5 47t121.5 141l64 -42q-66 -118 -174 -187t-223 -69z"/>
<glyph glyph-name="afii10084" horiz-adv-x="964" unicode="т" d="M942 670h-61q-9 28 -26.5 66t-38.5 72q-22 37 -49.5 65.5t-57.5 32.5q-31 3 -69 4.5t-65 1.5v-734q0 -34 14 -56t42 -34q22 -10 50 -15t55 -7v-66h-502v66q23 2 52.5 4t47.5 8q28 9 41.5 31.5t13.5 58.5v744q-32 -1 -72 -2.5t-63 -3.5q-26 -2 -55.5 -33t-51.5 -65 q-21 -34 -39 -75.5t-25 -62.5h-61v316h920v-316z"/>
<glyph glyph-name="afii10085" horiz-adv-x="1008" unicode="у" d="M-3 -322q0 50 27.5 81.5t68.5 31.5q32 0 55 -12t41 -31q15 -15 32 -41t27 -43q50 27 119.5 141t100.5 200q-95 237 -172 424t-161 387q-19 46 -64 71.5t-90 32.5v66h450v-70q-30 -1 -72 -12.5t-42 -26.5q0 -6 4.5 -20t10.5 -29q38 -99 116 -285.5t121 -298.5 q45 107 93.5 221.5t108.5 270.5q7 19 20 52.5t13 57.5q0 26 -45.5 48.5t-86.5 27.5v64h366v-62q-30 -5 -79 -34.5t-73 -83.5q-119 -276 -211.5 -503t-140.5 -334q-63 -140 -112.5 -218.5t-96.5 -123.5q-46 -42 -83.5 -56.5t-77.5 -14.5q-78 0 -122.5 37t-44.5 85z"/>
<glyph glyph-name="afii10086" horiz-adv-x="1542" unicode="ф" d="M678 114v759q-26 21 -62.5 36t-80.5 15q-57 0 -103.5 -25t-81.5 -79q-34 -53 -52.5 -135.5t-18.5 -194.5q0 -114 18.5 -194t52.5 -132q33 -52 80.5 -76.5t104.5 -24.5q48 0 83 15t60 36zM1263 498q0 112 -18 193t-52 133q-35 53 -81.5 76.5t-104.5 23.5q-51 0 -82 -14 t-61 -37v-759q31 -24 58 -37.5t85 -13.5q56 0 104 25t81 80q37 60 54 142t17 188zM1467 498q0 -120 -34.5 -217t-92.5 -161q-60 -67 -136.5 -101.5t-167.5 -34.5q-49 0 -92 12.5t-75 28.5h-5v-280q0 -36 14 -60t43 -35q24 -9 65 -17.5t67 -9.5v-67h-551v67q31 2 65 5t57 10 q30 10 42 35t12 59v293h-5q-36 -17 -73 -29t-94 -12q-88 0 -166.5 33.5t-137.5 98.5t-93 159.5t-34 214.5q0 115 33 211t93 165q56 65 137.5 101t167.5 36q48 0 90 -12t77 -29h5v293q0 35 -13.5 60t-40.5 43q-18 12 -49.5 18.5t-62.5 8.5v65l338 22l14 -12v-498h5 q26 14 76 27.5t91 13.5q91 0 169 -33.5t137 -99.5q59 -65 92 -159t33 -213z"/>
<glyph glyph-name="afii10087" horiz-adv-x="1034" unicode="х" d="M1022 0h-452v66q45 5 76.5 10t31.5 26q0 9 -10 28t-20 35q-25 39 -68.5 104.5t-106.5 156.5q-52 -65 -96 -126.5t-92 -130.5q-7 -10 -14.5 -25t-7.5 -24q0 -22 28.5 -36.5t85.5 -19.5v-64h-365v62q68 20 109.5 48.5t76.5 70.5q31 40 86.5 110t143.5 190 q-51 73 -124.5 178.5t-121.5 175.5q-26 38 -59.5 61.5t-94.5 23.5v66h429v-66q-32 0 -63 -4t-31 -18q0 -9 6 -20t15 -24q22 -34 68.5 -105t100.5 -150q35 48 81.5 112t85.5 122q4 7 8 17.5t4 20.5q0 21 -34.5 33.5t-65.5 17.5v64h364v-62q-77 -20 -120 -47.5t-73 -63.5 q-33 -41 -78.5 -101t-127.5 -168q91 -128 148 -210t115 -169q29 -44 64.5 -69.5t97.5 -29.5v-66z"/>
<glyph glyph-name="afii10088" horiz-adv-x="1234" unicode="ц" d="M933 0h-859v66q23 2 47.5 4t42.5 8q28 9 41.5 31.5t13.5 58.5v640q0 33 -12 55t-41 35q-26 12 -50.5 16t-45.5 6v66h482v-66q-29 -2 -50 -5t-39 -7q-28 -8 -43 -32t-15 -58v-644q0 -54 25 -74.5t69 -21.5q25 0 58 -1.5t75 -1.5q32 0 66.5 1t67.5 2q42 1 51.5 18.5 t9.5 59.5v652q0 33 -14 55.5t-42 34.5q-26 12 -49.5 16t-45.5 6v66h482v-66q-29 -2 -50.5 -5t-39.5 -7q-28 -8 -41.5 -31.5t-13.5 -58.5v-642q0 -53 20.5 -75.5t86.5 -22.5h64v-370h-72q-20 100 -70.5 190t-108.5 102z"/>
<glyph glyph-name="afii10089" horiz-adv-x="1172" unicode="ч" d="M1102 0h-483v66q23 2 47.5 4t42.5 8q28 9 43 31.5t15 58.5v262q-81 -34 -143 -55.5t-149 -21.5q-157 0 -230.5 62t-73.5 197v196q0 34 -14 56t-42 34q-26 12 -50.5 16t-45.5 6v66h482v-66q-29 -2 -50.5 -5t-39.5 -7q-28 -8 -41 -31.5t-13 -58.5v-156q0 -107 43.5 -154 t145.5 -47q45 0 102.5 9t118.5 30v308q0 33 -14 55.5t-42 34.5q-26 12 -50.5 16t-45.5 6v66h483v-66q-29 -2 -50.5 -5t-39.5 -7q-28 -8 -41.5 -31.5t-13.5 -58.5v-640q0 -35 12 -56.5t41 -33.5q21 -10 45.5 -15t50.5 -7v-66z"/>
<glyph glyph-name="afii10090" horiz-adv-x="1768" unicode="ш" d="M1702 0h-1632v66q23 2 49.5 4t44.5 8q28 9 41.5 31.5t13.5 58.5v640q0 33 -12 55t-41 35q-26 12 -50.5 16t-45.5 6v66h472v-66q-29 -2 -48 -5t-37 -7q-31 -9 -41.5 -35t-10.5 -55v-644q0 -54 25 -74.5t69 -21.5q23 0 49 -1.5t64 -1.5q30 0 55 1t63 2q43 2 52 19t9 59v652 q0 33 -10 55.5t-38 34.5q-26 12 -48.5 16t-44.5 6v66h465v-66q-29 -2 -49.5 -5t-38.5 -7q-30 -8 -40 -34t-10 -56v-646q0 -54 25.5 -73.5t68.5 -20.5q22 0 52.5 -1.5t62.5 -1.5q21 0 53.5 1t62.5 2q43 2 52 19t9 59v652q0 33 -10 55.5t-38 34.5q-26 12 -48.5 16t-44.5 6v66 h472v-66q-29 -2 -50.5 -5t-39.5 -7q-28 -8 -41.5 -31.5t-13.5 -58.5v-640q0 -35 12 -56.5t41 -33.5q22 -10 47.5 -15t52.5 -7v-66z"/>
<glyph glyph-name="afii10091" horiz-adv-x="1770" unicode="щ" d="M1469 0h-1399v66q23 2 49.5 4t44.5 8q28 9 41.5 31.5t13.5 58.5v640q0 33 -12 55t-41 35q-26 12 -50.5 16t-45.5 6v66h472v-66q-29 -2 -48 -5t-37 -7q-31 -9 -41.5 -35t-10.5 -55v-644q0 -54 25 -74.5t69 -21.5q23 0 49 -1.5t64 -1.5q30 0 55 1t63 2q43 2 52 19t9 59v652 q0 33 -10 55.5t-38 34.5q-26 12 -48.5 16t-44.5 6v66h465v-66q-29 -2 -49.5 -5t-38.5 -7q-30 -8 -40 -34t-10 -56v-646q0 -54 25.5 -73.5t68.5 -20.5q22 0 52.5 -1.5t62.5 -1.5q21 0 53.5 1t62.5 2q43 2 52 19t9 59v652q0 33 -10 55.5t-38 34.5q-26 12 -48.5 16t-44.5 6v66 h472v-66q-29 -2 -50.5 -5t-39.5 -7q-28 -8 -41.5 -31.5t-13.5 -58.5v-642q0 -53 20.5 -75.5t86.5 -22.5h64v-370h-72q-17 85 -67 182t-112 110z"/>
<glyph glyph-name="afii10092" horiz-adv-x="1183" unicode="ъ" d="M1139 303q0 -79 -34 -136.5t-88 -94.5q-54 -36 -120 -54t-138 -18h-530v66q23 2 52.5 4t47.5 8q28 9 41.5 31.5t13.5 58.5v744q-35 -1 -73.5 -2.5t-66.5 -3.5q-26 -2 -55.5 -32.5t-51.5 -64.5q-26 -43 -40.5 -77.5t-23.5 -59.5h-61v314h717v-66q-30 -2 -58.5 -4.5 t-47.5 -7.5q-31 -9 -43 -34t-12 -56v-235q40 1 68.5 2.5t82.5 1.5q97 0 170.5 -15.5t127.5 -47.5q58 -34 90 -87t32 -134zM937 308q0 84 -61 143.5t-178 59.5q-49 0 -81 -3.5t-49 -3.5v-352q0 -42 30.5 -63t110.5 -21q68 0 113.5 22t69.5 56q26 37 35.5 77t9.5 85z"/>
<glyph glyph-name="afii10093" horiz-adv-x="1552" unicode="ы" d="M1482 0h-481v66q23 2 46.5 4t41.5 8q28 9 43 31.5t15 58.5v640q0 33 -14 55.5t-42 34.5q-26 12 -50.5 16t-45.5 6v66h483v-66q-29 -2 -50.5 -5t-39.5 -7q-28 -8 -41.5 -31.5t-13.5 -58.5v-640q0 -35 12 -56.5t41 -33.5q21 -10 45.5 -15t50.5 -7v-66zM974 303 q0 -79 -34 -136.5t-88 -94.5q-54 -36 -120 -54t-138 -18h-520v66q23 2 47.5 4t42.5 8q28 9 41.5 31.5t13.5 58.5v640q0 33 -14 55.5t-42 34.5q-26 12 -50.5 16t-45.5 6v66h497v-66q-30 -2 -58.5 -4.5t-47.5 -7.5q-31 -9 -43 -34t-12 -56v-235q40 1 68.5 2.5t82.5 1.5 q97 0 170.5 -15.5t127.5 -47.5q58 -34 90 -87t32 -134zM772 308q0 84 -61 143.5t-178 59.5q-49 0 -81 -3.5t-49 -3.5v-352q0 -42 30.5 -63t110.5 -21q68 0 113.5 22t69.5 56q26 37 35.5 77t9.5 85z"/>
<glyph glyph-name="afii10094" horiz-adv-x="1018" unicode="ь" d="M974 303q0 -79 -34 -136.5t-88 -94.5q-54 -36 -120 -54t-138 -18h-520v66q23 2 47.5 4t42.5 8q28 9 41.5 31.5t13.5 58.5v640q0 33 -14 55.5t-42 34.5q-26 12 -50.5 16t-45.5 6v66h497v-66q-30 -2 -58.5 -4.5t-47.5 -7.5q-31 -9 -43 -34t-12 -56v-235q40 1 68.5 2.5 t82.5 1.5q97 0 170.5 -15.5t127.5 -47.5q58 -34 90 -87t32 -134zM772 308q0 84 -61 143.5t-178 59.5q-49 0 -81 -3.5t-49 -3.5v-352q0 -42 30.5 -63t110.5 -21q68 0 113.5 22t69.5 56q26 37 35.5 77t9.5 85z"/>
<glyph glyph-name="afii10095" horiz-adv-x="996" unicode="э" d="M924 536q0 -115 -33 -219.5t-95 -178.5q-67 -79 -156.5 -121.5t-215.5 -42.5q-90 0 -158 19.5t-113 52.5q-46 33 -69 77t-23 93q0 45 24 74t75 29q52 0 81 -29t29 -62q0 -29 -8.5 -64.5t-14.5 -57.5q6 -4 18 -13.5t36 -19.5q26 -11 52.5 -18t72.5 -7q70 0 126.5 31.5 t95.5 89.5q39 59 59 135t20 170h-396v93h398q-1 111 -23.5 181.5t-56.5 111.5q-36 43 -82 60.5t-94 17.5q-59 0 -107 -26t-85 -67q-37 -43 -58.5 -88.5t-37.5 -90.5h-67l6 347h68l31 -47q54 29 126.5 38t132.5 9q109 0 191 -38.5t138 -103.5q55 -65 84 -151.5t29 -183.5z "/>
<glyph glyph-name="afii10096" horiz-adv-x="1617" unicode="ю" d="M746 107q-62 68 -97 161.5t-37 213.5h-209v-304q0 -34 14 -56t42 -34q21 -10 45.5 -15t50.5 -7v-66h-481v66q23 2 47.5 4t42.5 8q28 9 41.5 31.5t13.5 58.5v640q0 33 -14 55.5t-42 34.5q-26 12 -50.5 16t-45.5 6v66h481v-66q-29 -2 -50.5 -5t-39.5 -7q-28 -8 -41.5 -31.5 t-13.5 -58.5v-254h212q19 200 142.5 325t322.5 125q111 0 197.5 -40t144.5 -106q61 -69 92.5 -160.5t31.5 -204.5q0 -106 -31.5 -205t-91.5 -170q-63 -74 -150 -116t-208 -42q-93 0 -175 35.5t-144 101.5zM1278 180q31 63 46 143.5t15 177.5q0 82 -12 159.5t-43 140.5 q-30 62 -80.5 99.5t-125.5 37.5q-81 0 -133 -40t-82 -102q-30 -60 -42 -137t-12 -153q0 -93 14.5 -176.5t46.5 -146.5q32 -64 82 -100.5t126 -36.5q68 0 118.5 36.5t81.5 97.5z"/>
<glyph glyph-name="afii10097" horiz-adv-x="1122" unicode="я" d="M415 476v6q-135 27 -196.5 89.5t-61.5 158.5q0 118 106.5 187t269.5 69h515v-66q-29 -2 -50.5 -5t-39.5 -7q-28 -8 -41.5 -31.5t-13.5 -58.5v-640q0 -35 12 -56.5t41 -33.5q21 -10 45.5 -15t50.5 -7v-66h-483v66q23 2 47.5 4t42.5 8q28 9 43 31.5t15 58.5v277h-42 q-93 0 -145.5 -35.5t-100.5 -133.5q-35 -73 -57.5 -135t-46.5 -141h-337v66q23 3 43.5 6t44.5 7q31 6 56.5 24t44.5 59q10 23 27.5 61.5t41.5 86.5q32 63 71.5 103t97.5 63zM717 518v397h-112q-105 0 -174 -49t-69 -145q0 -99 73 -151t208 -52h74z"/>
<glyph glyph-name="afii10071" horiz-adv-x="990" unicode="ё" d="M727 608q0 56 -9.5 120t-30.5 107q-23 46 -63 75t-103 29q-105 0 -174.5 -87.5t-75.5 -243.5h456zM948 232q-62 -118 -166 -188t-239 -70q-119 0 -208.5 42t-147.5 114t-86.5 168t-28.5 203q0 96 30.5 188.5t89.5 166.5q57 71 141.5 114.5t189.5 43.5q108 0 185 -34 t125 -93q46 -56 68.5 -132t22.5 -165v-66h-653q0 -97 18.5 -176t58.5 -139q39 -58 102 -91.5t150 -33.5q89 0 153.5 41.5t124.5 149.5zM432 1364q0 -51 -34.5 -87t-83.5 -36t-83.5 36t-34.5 87t34.5 87t83.5 36t83.5 -36t34.5 -87zM862 1364q0 -51 -34.5 -87t-83.5 -36 t-83.5 36t-34.5 87t34.5 87t83.5 36t83.5 -36t34.5 -87z"/>
<glyph glyph-name="afii10099" horiz-adv-x="1169" unicode="ђ" d="M672 -360q75 0 108 93.5t34 293.5q0 57 1.5 145.5t1.5 195.5q0 75 -0.5 153.5t-2.5 153.5q-2 106 -51.5 162.5t-121.5 56.5q-52 0 -96.5 -16.5t-79.5 -40.5q-34 -25 -52 -50t-28 -42v-567q0 -34 13.5 -56t41.5 -34q22 -10 45.5 -15t51.5 -7v-66h-484v66q23 2 48 4.5 t42 7.5q28 9 42 31.5t14 58.5v1002h-243v85h243v61q0 34 -15.5 68t-40.5 51q-18 13 -63.5 18.5t-73.5 7.5v64l365 23l14 -15v-278h351v-85h-351v-325h4q33 33 60 58.5t71 53.5q38 24 89.5 40t115.5 16q136 0 206.5 -86.5t70.5 -237.5q0 -50 1.5 -130t1.5 -183 q0 -67 -0.5 -143.5t-2.5 -172.5q-5 -234 -121.5 -369t-284.5 -135q-89 0 -134 35.5t-45 83.5q0 45 24.5 76.5t69.5 31.5q52 0 87 -36.5t74 -106.5z"/>
<glyph glyph-name="afii10100" horiz-adv-x="901" unicode="ѓ" d="M571 0h-497v66q23 2 47.5 4t42.5 8q28 9 41.5 31.5t13.5 58.5v640q0 33 -14 55.5t-42 34.5q-26 12 -54 16t-48 6v66h822v-327h-62q-7 22 -25 64t-41 79q-23 40 -50.5 69.5t-57.5 33.5q-28 3 -68 4.5t-68 1.5h-106v-733q0 -34 14 -56t42 -34q22 -10 52.5 -15t57.5 -7v-66z M764 1460q0 -38 -17.5 -62t-51.5 -51q-50 -40 -130.5 -102t-173.5 -135l-38 32q90 133 125.5 187.5t76.5 120.5q31 51 60 69.5t67 18.5q36 0 59 -24.5t23 -53.5z"/>
<glyph glyph-name="afii10101" horiz-adv-x="996" unicode="є" d="M346 165q37 -54 94.5 -85t131.5 -31q70 0 114.5 22.5t53.5 30.5q-6 25 -13 55t-7 61q0 33 29.5 62t82.5 29q49 0 73 -29t24 -73q0 -98 -114.5 -165.5t-275.5 -67.5q-121 0 -209.5 40t-145.5 110q-58 70 -85.5 165.5t-27.5 204.5q0 106 34.5 197t97.5 165q61 72 146.5 115 t184.5 43q75 0 138.5 -11t112.5 -37l32 47h67v-347h-66q-12 41 -32 89.5t-51 87.5q-34 43 -79.5 69.5t-113.5 26.5q-40 0 -81.5 -17.5t-83.5 -62.5q-39 -41 -69 -116t-39 -176h400v-93h-401v-13q0 -97 19 -167.5t59 -128.5z"/>
<glyph glyph-name="afii10102" horiz-adv-x="885" unicode="ѕ" d="M723 483q41 -36 63 -83t22 -115q0 -137 -102.5 -224t-265.5 -87q-86 0 -158.5 31t-103.5 57l-20 -65h-75l-10 343h69q8 -39 34 -91t63 -94q39 -44 93.5 -74t122.5 -30q96 0 148 43.5t52 124.5q0 42 -16.5 72.5t-48.5 53.5q-33 23 -81 41.5t-107 36.5q-47 14 -104.5 38.5 t-98.5 57.5q-44 35 -72 86t-28 120q0 121 90 205t241 84q58 0 118.5 -15t98.5 -36l23 52h72l15 -317h-69q-21 106 -90.5 172.5t-169.5 66.5q-82 0 -129 -41t-47 -99q0 -45 15.5 -75t46.5 -51q30 -20 75.5 -37.5t112.5 -39.5q66 -21 124.5 -49t96.5 -62z"/>
<glyph glyph-name="afii10103" horiz-adv-x="600" unicode="і" d="M425 1387q0 -57 -37.5 -99.5t-92.5 -42.5q-51 0 -88.5 40.5t-37.5 92.5q0 55 37.5 96t88.5 41q57 0 93.5 -38.5t36.5 -89.5zM551 0h-477v66q23 2 47.5 4t42.5 8q28 9 41.5 31.5t13.5 58.5v609q0 32 -14.5 58.5t-40.5 44.5q-19 12 -55 20.5t-66 10.5v65l348 22l14 -14 v-804q0 -35 13.5 -58t42.5 -34q22 -9 43 -14.5t47 -7.5v-66z"/>
<glyph glyph-name="afii10104" horiz-adv-x="600" unicode="ї" d="M216 1364q0 -51 -33 -87t-82 -36t-82 36t-33 87t33 87t82 36t82 -36t33 -87zM566 1364q0 -51 -33 -87t-82 -36t-82 36t-33 87t33 87t82 36t82 -36t33 -87zM551 0h-477v66q23 2 47.5 4t42.5 8q28 9 41.5 31.5t13.5 58.5v609q0 32 -14.5 58.5t-40.5 44.5q-19 12 -55 20.5 t-66 10.5v65l348 22l14 -14v-804q0 -35 13.5 -58t42.5 -34q22 -9 43 -14.5t47 -7.5v-66z"/>
<glyph glyph-name="afii10105" horiz-adv-x="598" unicode="ј" d="M446 1388q0 -57 -37.5 -99.5t-92.5 -42.5q-51 0 -88.5 40.5t-37.5 92.5q0 55 37.5 96t88.5 41q57 0 93.5 -38.5t36.5 -89.5zM431 60q0 -110 -32 -206.5t-85 -159.5q-57 -67 -128.5 -102.5t-157.5 -35.5q-89 0 -134 35.5t-45 83.5q0 43 24 75.5t70 32.5q31 0 55 -13 t42 -34q16 -18 32.5 -44.5t31.5 -51.5q76 0 108.5 92t32.5 295v742q0 32 -15.5 61.5t-40.5 47.5q-16 11 -76.5 22t-91.5 14v62l396 22l14 -14v-924z"/>
<glyph glyph-name="afii10106" horiz-adv-x="1584" unicode="љ" d="M1540 303q0 -79 -34 -136.5t-88 -94.5q-54 -36 -120 -54t-138 -18h-522v66q23 2 48.5 4t43.5 8q28 9 41.5 31.5t13.5 58.5v736h-274q0 -244 -34 -420t-88 -287q-53 -109 -120 -163t-137 -54q-72 0 -109 37.5t-37 87.5q0 36 23.5 68t68.5 32q44 0 78.5 -26t63.5 -65 q24 22 56.5 81.5t59.5 147.5q30 95 49 197t19 234q0 52 -13 77t-41 39q-19 10 -62 18.5t-70 11.5v66h912v-66q-30 -2 -58.5 -4.5t-47.5 -7.5q-31 -9 -43 -34t-12 -56v-235q40 1 68.5 2.5t82.5 1.5q97 0 170.5 -15.5t127.5 -47.5q58 -34 90 -87t32 -134zM1338 308 q0 84 -61 143.5t-178 59.5q-49 0 -81 -3.5t-49 -3.5v-352q0 -42 30.5 -63t110.5 -21q68 0 113.5 22t69.5 56q26 37 35.5 77t9.5 85z"/>
<glyph glyph-name="afii10107" horiz-adv-x="1634" unicode="њ" d="M1590 303q0 -79 -34 -136.5t-88 -94.5q-54 -36 -120 -54t-138 -18h-520v66q23 2 47.5 4t42.5 8q28 9 41.5 31.5t13.5 58.5v319h-432v-309q0 -34 14 -56t42 -34q21 -10 45.5 -15t50.5 -7v-66h-481v66q23 2 47.5 4t42.5 8q28 9 41.5 31.5t13.5 58.5v640q0 33 -14 55.5 t-42 34.5q-26 12 -50.5 16t-45.5 6v66h481v-66q-29 -2 -50.5 -5t-39.5 -7q-28 -8 -41.5 -31.5t-13.5 -58.5v-249h432v239q0 33 -14 55.5t-42 34.5q-26 12 -50.5 16t-45.5 6v66h497v-66q-30 -2 -58.5 -4.5t-47.5 -7.5q-31 -9 -43 -34t-12 -56v-235q40 1 68.5 2.5t82.5 1.5 q97 0 170.5 -15.5t127.5 -47.5q58 -34 90 -87t32 -134zM1388 308q0 84 -61 143.5t-178 59.5q-49 0 -81 -3.5t-49 -3.5v-352q0 -42 30.5 -63t110.5 -21q68 0 113.5 22t69.5 56q26 37 35.5 77t9.5 85z"/>
<glyph glyph-name="afii10108" horiz-adv-x="1192" unicode="ћ" d="M1143 0h-484v66q23 2 51 4t46 8q28 9 41.5 31.5t13.5 58.5v507q0 105 -49.5 162t-120.5 57q-52 0 -96.5 -16.5t-79.5 -40.5q-34 -25 -52 -50t-28 -42v-567q0 -34 13.5 -56t41.5 -34q22 -10 45.5 -15t51.5 -7v-66h-484v66q23 2 48 4.5t42 7.5q28 9 42 31.5t14 58.5v1002 h-243v85h243v61q0 34 -15.5 68t-40.5 51q-18 13 -63.5 18.5t-73.5 7.5v64l365 23l14 -15v-278h351v-85h-351v-325h4q33 33 60 58.5t71 53.5q38 24 89.5 40t115.5 16q132 0 203 -83.5t71 -240.5v-513q0 -35 12.5 -56.5t41.5 -33.5q23 -9 41.5 -13.5t48.5 -6.5v-66z"/>
<glyph glyph-name="afii10109" horiz-adv-x="1129" unicode="ќ" d="M1118 0h-339q-25 82 -45 140.5t-59 135.5q-47 94 -103.5 136t-145.5 42h-23v-276q0 -34 14 -56t42 -34q21 -10 45.5 -15t50.5 -7v-66h-481v66q23 2 47.5 4t42.5 8q28 9 41.5 31.5t13.5 58.5v640q0 33 -14 55.5t-42 34.5q-26 12 -50.5 16t-45.5 6v66h481v-66 q-29 -2 -50.5 -5t-39.5 -7q-28 -8 -41.5 -31.5t-13.5 -58.5v-289h63q33 0 66 13t55 36q28 30 50 79t37 92q16 45 36.5 93t41.5 74q37 45 79.5 63.5t93.5 18.5q77 0 113 -33t36 -83q0 -43 -28.5 -74t-75.5 -31q-45 0 -70.5 23t-70.5 77q-19 -17 -36.5 -71.5t-33.5 -95.5 q-30 -81 -61.5 -125t-73.5 -71v-13q91 -18 144.5 -66t90.5 -121q18 -35 40.5 -85.5t29.5 -66.5q20 -45 48 -61.5t52 -20.5q23 -5 46.5 -8.5t42.5 -5.5v-66zM858 1460q0 -38 -17.5 -62t-51.5 -51q-50 -40 -130.5 -102t-173.5 -135l-38 32q90 133 125.5 187.5t76.5 120.5 q31 51 60 69.5t67 18.5q36 0 59 -24.5t23 -53.5z"/>
<glyph glyph-name="afii10110" horiz-adv-x="1008" unicode="ў" d="M852 1391q0 -31 -18.5 -74t-54.5 -75q-42 -37 -101.5 -60t-161.5 -23q-96 0 -159 23.5t-103 59.5q-38 35 -54.5 75.5t-16.5 73.5q0 48 28.5 78.5t68.5 30.5q37 0 69 -22t32 -72q0 -29 -12 -64.5t-19 -51.5q27 -33 71.5 -49t94.5 -16q44 0 93 15.5t76 49.5 q-8 19 -19.5 54.5t-11.5 61.5q0 50 32 72t68 22q41 0 69.5 -30.5t28.5 -78.5zM-3 -322q0 50 27.5 81.5t68.5 31.5q32 0 55 -12t41 -31q15 -15 32 -41t27 -43q50 27 119.5 141t100.5 200q-95 237 -172 424t-161 387q-19 46 -64 71.5t-90 32.5v66h450v-70q-30 -1 -72 -12.5 t-43 -24.5q1 -7 6.5 -22t10.5 -29q37 -99 115 -285.5t121 -298.5q45 107 93.5 221.5t108.5 270.5q7 19 20 52.5t13 57.5q0 26 -45.5 48.5t-86.5 27.5v64h366v-62q-30 -5 -79 -34.5t-73 -83.5q-119 -276 -211.5 -503t-140.5 -334q-63 -140 -112.5 -218.5t-96.5 -123.5 q-46 -42 -83.5 -56.5t-77.5 -14.5q-78 0 -122.5 37t-44.5 85z"/>
<glyph glyph-name="afii10193" horiz-adv-x="1235" unicode="џ" d="M458 0h-384v66q23 2 47.5 4t42.5 8q28 9 41.5 31.5t13.5 58.5v640q0 33 -12 55t-41 35q-26 12 -50.5 16t-45.5 6v66h482v-66q-29 -2 -50 -5t-39 -7q-28 -8 -43 -32t-15 -58v-648q0 -55 26 -75t68 -21q25 0 59 -1.5t76 -1.5q31 0 67 1t68 2q42 1 51.5 18.5t9.5 59.5v656 q0 33 -14 55.5t-42 34.5q-26 12 -49.5 16t-45.5 6v66h482v-66q-29 -2 -50.5 -5t-39.5 -7q-28 -8 -41.5 -31.5t-13.5 -58.5v-640q0 -35 12.5 -56.5t40.5 -33.5q21 -10 45.5 -15t50.5 -7v-66h-379q-33 -7 -52.5 -37.5t-34.5 -77.5q-12 -35 -23 -96t-18 -93h-72q-9 45 -18 96 t-23 93q-15 48 -34 77.5t-53 37.5z"/>
<glyph glyph-name="afii10050" horiz-adv-x="1180" unicode="Ґ" d="M723 0h-637v71q30 2 80 6.5t65 11.5q30 13 43.5 38.5t13.5 61.5v1024q0 33 -11 58.5t-46 41.5q-27 13 -72.5 23t-72.5 12v71h607q36 0 87.5 1.5t93.5 7.5q41 6 77.5 40t64.5 84q29 51 48.5 100.5t27.5 84.5h75v-397h-666v-1138q0 -34 16 -59.5t48 -41.5q20 -9 72.5 -19 t85.5 -11v-71z"/>
<glyph glyph-name="afii10098" horiz-adv-x="882" unicode="ґ" d="M571 0h-497v66q23 2 47.5 4t42.5 8q28 9 41.5 31.5t13.5 58.5v640q0 33 -14 55.5t-42 34.5q-26 12 -54 16t-48 6v66h438q28 0 68.5 1.5t67.5 4.5q49 6 103 94.5t71 151.5h62v-327h-466v-733q0 -34 14 -56t42 -34q22 -10 52.5 -15t57.5 -7v-66z"/>
<glyph glyph-name="endash" horiz-adv-x="1317" unicode="–" d="M1215 497h-1113v125h1113v-125z"/>
<glyph glyph-name="emdash" horiz-adv-x="1755" unicode="—" d="M1653 497h-1551v125h1551v-125z"/>
<glyph glyph-name="quoteleft" horiz-adv-x="464" unicode="‘" d="M372 1466q-47 -27 -76 -46.5t-59 -51.5q-28 -29 -43 -62.5t-21 -85.5h48q62 0 97.5 -30.5t35.5 -89.5q0 -42 -31.5 -78.5t-86.5 -36.5q-86 0 -123 56.5t-37 148.5q0 65 28 118.5t68 95.5q41 43 87 73t77 49z"/>
<glyph glyph-name="quoteright" horiz-adv-x="464" unicode="’" d="M388 1325q0 -66 -28.5 -120.5t-68.5 -94.5q-40 -41 -88 -73.5t-77 -47.5l-34 59q41 24 78.5 49.5t57.5 48.5q27 30 43 62.5t20 85.5h-48q-63 0 -98 32t-35 89q0 41 32 77.5t87 36.5q85 0 122 -56.5t37 -147.5z"/>
<glyph glyph-name="quotesinglbase" horiz-adv-x="464" unicode="‚" d="M388 33q0 -66 -28.5 -120.5t-68.5 -94.5q-40 -41 -88 -73.5t-77 -47.5l-34 59q41 24 78.5 49.5t57.5 48.5q27 30 43 62.5t20 85.5h-48q-63 0 -98 32t-35 89q0 41 32 77.5t87 36.5q85 0 122 -56.5t37 -147.5z"/>
<glyph glyph-name="quotedblleft" horiz-adv-x="840" unicode="“" d="M745 1466q-47 -27 -76 -46.5t-59 -51.5q-29 -31 -43.5 -63.5t-20.5 -84.5h48q62 0 97.5 -30.5t35.5 -89.5q0 -42 -31.5 -78.5t-86.5 -36.5q-86 0 -123 56.5t-37 148.5q0 65 28 118.5t68 95.5q41 43 87 73t77 49zM375 1466q-47 -27 -76 -46.5t-59 -51.5q-28 -30 -43 -63 t-21 -85h48q62 0 97.5 -30.5t35.5 -89.5q0 -42 -31.5 -78.5t-86.5 -36.5q-86 0 -123 56.5t-37 148.5q0 65 28 118.5t68 95.5q41 43 87 73t77 49z"/>
<glyph glyph-name="quotedblright" horiz-adv-x="840" unicode="”" d="M761 1325q0 -66 -29 -120.5t-68 -94.5q-40 -41 -88 -73.5t-77 -47.5l-34 59q41 24 78.5 49.5t57.5 48.5q27 30 43 62.5t20 85.5h-48q-63 0 -98 32t-35 89q0 41 32 77.5t87 36.5q85 0 122 -56.5t37 -147.5zM391 1325q0 -66 -29 -120.5t-68 -94.5q-40 -41 -88 -73.5 t-77 -47.5l-34 59q41 24 78.5 49.5t57.5 48.5q27 30 43 62.5t20 85.5h-48q-63 0 -98 32t-35 89q0 41 32 77.5t87 36.5q85 0 122 -56.5t37 -147.5z"/>
<glyph glyph-name="dagger" horiz-adv-x="967" unicode="†" d="M864 1068q0 -34 -21 -52.5t-54 -18.5q-25 0 -108 19.5t-173 29.5q15 -247 31.5 -484.5t16.5 -267.5q0 -33 -16.5 -54t-54.5 -21q-34 0 -52.5 21t-18.5 54q0 22 11 190.5t33 561.5q-98 -10 -176.5 -29.5t-104.5 -19.5q-33 0 -54 18t-21 53q0 37 21 54t54 17 q30 0 108.5 -22t172.5 -31q-12 107 -29 188t-17 106q0 33 19 54t54 21q37 0 55 -21t18 -54q0 -27 -19.5 -111t-30.5 -183q108 12 181.5 32.5t99.5 20.5q33 0 54 -16.5t21 -54.5z"/>
<glyph glyph-name="daggerdbl" horiz-adv-x="967" unicode="‡" d="M864 596q0 -37 -21 -54t-54 -17q-25 0 -108 21.5t-173 31.5q10 -99 30 -183t20 -111q0 -33 -17.5 -54t-55.5 -21q-34 0 -53.5 21t-19.5 54q0 31 17 104t29 190q-111 -14 -183 -33.5t-98 -19.5q-33 0 -54 16.5t-21 54.5q0 34 21 52.5t54 18.5q30 0 99.5 -18.5t181.5 -30.5 q-4 54 -14 100t-14 98v32q3 51 14 98t14 100q-98 -10 -176.5 -29.5t-104.5 -19.5q-33 0 -54 18t-21 53q0 37 21 54t54 17q26 0 96.5 -19.5t184.5 -33.5q-12 107 -29 188t-17 106q0 33 19 54t54 21q37 0 55 -21t18 -54q0 -27 -19.5 -111t-30.5 -183q108 12 181.5 32.5 t99.5 20.5q33 0 54 -16.5t21 -54.5q0 -34 -21 -52.5t-54 -18.5q-25 0 -108 19.5t-173 29.5q3 -54 14 -100.5t14 -97.5v-32q-4 -52 -14 -98t-14 -100q108 12 181.5 30.5t99.5 18.5q33 0 54 -18t21 -53z"/>
<glyph glyph-name="ellipsis" horiz-adv-x="1653" unicode="…" d="M410 109q0 -54 -39.5 -91.5t-91.5 -37.5q-53 0 -92 38t-39 91t38.5 92t92.5 39q53 0 92 -39t39 -92zM961 109q0 -54 -39.5 -91.5t-91.5 -37.5q-53 0 -92 38t-39 91t38.5 92t92.5 39q53 0 92 -39t39 -92zM1512 109q0 -53 -39 -91t-92 -38t-92 38t-39 91t38.5 92t92.5 39 t92.5 -39t38.5 -92z"/>
<glyph glyph-name="perthousand" horiz-adv-x="2469" unicode="‰" d="M2191 338q0 130 -43 213t-127 83q-86 0 -128.5 -83t-42.5 -213q0 -133 43 -214.5t127 -81.5t127.5 81.5t43.5 214.5zM2360 338q0 -176 -95 -273t-245 -97t-244.5 97t-94.5 273q0 166 92.5 268t247.5 102q153 0 246 -102t93 -268zM1499 1424l-1179 -1424h-138l1176 1424 h141zM1396 338q0 130 -43 213t-127 83q-86 0 -128.5 -83t-42.5 -213q0 -133 43 -214.5t127 -81.5t127.5 81.5t43.5 214.5zM1565 338q0 -176 -95 -273t-245 -97t-244.5 97t-94.5 273q0 166 92.5 268t247.5 102q153 0 246 -102t93 -268zM619 1083q0 130 -43 213t-127 83 q-86 0 -128.5 -83t-42.5 -213q0 -133 43 -214.5t127 -81.5t127.5 81.5t43.5 214.5zM788 1083q0 -176 -95 -273t-245 -97t-244.5 97t-94.5 273q0 166 92.5 268t247.5 102q153 0 246 -102t93 -268z"/>
<glyph glyph-name="minute" horiz-adv-x="658" unicode="′" d="M562 1354q0 -25 -13.5 -57.5t-30.5 -57.5q-46 -71 -88.5 -141.5t-161.5 -260.5h-72q34 137 64 263t46 199q20 88 57 122.5t92 34.5q47 0 77 -30t30 -72z"/>
<glyph glyph-name="second" horiz-adv-x="1059" unicode="″" d="M961 1354q0 -25 -14 -57.5t-30 -57.5q-46 -71 -88.5 -141.5t-161.5 -260.5h-72q34 137 64 264t46 198q20 88 57 122.5t92 34.5q47 0 77 -30t30 -72zM562 1354q0 -25 -13.5 -57.5t-30.5 -57.5q-46 -71 -88.5 -141.5t-161.5 -260.5h-72q34 137 64 263t46 199 q20 88 57 122.5t92 34.5q47 0 77 -30t30 -72z"/>
<glyph glyph-name="guilsinglleft" horiz-adv-x="850" unicode="‹" d="M641 160l-49 -40l-375 332q-10 9 -26 27.5t-16 48.5t15.5 48.5t29.5 31.5l372 329l49 -41l-269 -367z"/>
<glyph glyph-name="guilsinglright" horiz-adv-x="850" unicode="›" d="M675 528q0 -32 -16.5 -50t-25.5 -26l-375 -332l-49 40l269 369l-269 367l49 41l372 -329q11 -9 28 -32t17 -48z"/>
<glyph glyph-name="radicalex" horiz-adv-x="1317" unicode="‾" d="M1322 1603h-1337v101h1337v-101z"/>
<glyph glyph-name="fraction" horiz-adv-x="166" unicode="⁄" d="M519 1419l-739 -1419h-135l737 1419h137z"/>
<glyph glyph-name="fraction" horiz-adv-x="166" unicode="∕" d="M519 1419l-739 -1419h-135l737 1419h137z"/>
<glyph glyph-name="Euro" horiz-adv-x="1315" unicode="€" d="M1289 359q-86 -211 -223 -301.5t-333 -90.5q-127 0 -236.5 49t-198.5 144q-62 65 -109.5 165.5t-61.5 204.5h-127l36 96h81q-2 26 -2 34.5v35.5q0 16 1.5 50.5t3.5 53.5h-120l36 96h97q19 93 59 181.5t107 164.5q89 101 206.5 154.5t258.5 53.5q105 0 185 -26t157 -73 l41 68h80l9 -506h-82q-16 74 -48 160.5t-75 146.5q-48 68 -109 106.5t-146 38.5q-97 0 -174 -43t-136 -128q-43 -63 -66.5 -138t-34.5 -160h394l-36 -96h-367q-1 -14 -1.5 -46t-0.5 -44q0 -32 0.5 -48.5t1.5 -35.5h301l-36 -96h-255q14 -82 40 -149.5t65 -120.5 q63 -85 149.5 -132.5t186.5 -47.5q81 0 144 25.5t113 67.5q50 44 88 100t62 122z"/>
<glyph glyph-name="trademark" horiz-adv-x="1930" unicode="™" d="M776 1221h-48q-10 33 -40.5 82.5t-59.5 55.5q-22 2 -43 3t-35 1h-49v-524q0 -14 4.5 -23.5t20.5 -16.5q10 -3 37 -8.5t50 -5.5v-52h-353v52q20 0 49 3.5t38 6.5q15 5 20 16t5 22v530h-49q-15 0 -40 -1.5t-38 -2.5q-31 -5 -60.5 -55.5t-39.5 -82.5h-48v198h679v-198z M1856 733h-346v52q16 0 45.5 2.5t39.5 7.5q16 11 22 18t6 22v451h-15l-244 -531h-32l-237 541h-15v-364q0 -53 6.5 -80.5t22.5 -41.5q13 -8 44 -16.5t54 -8.5v-52h-315v50q16 3 47.5 7.5t47.5 15.5q17 13 23 36t6 86v347q0 24 -7.5 40t-21.5 28q-15 12 -37.5 17.5t-51.5 7.5 v51h278l211 -472l176 387q11 25 16.5 47.5t8.5 37.5h268v-51q-17 -1 -43.5 -5t-37.5 -8q-15 -3 -19 -14t-4 -22v-484q0 -14 4 -22.5t19 -15.5q10 -3 34.5 -7.5t46.5 -4.5v-52z"/>
<glyph glyph-name="partialdiff" horiz-adv-x="1180" unicode="∂" d="M459 1329q1 -20 4.5 -49.5t3.5 -59.5q-1 -54 -25.5 -86t-88.5 -32q-53 0 -79.5 32.5t-26.5 75.5q0 39 24.5 81.5t67.5 77.5q45 38 115.5 62.5t159.5 24.5q125 0 213.5 -46t146.5 -124q57 -78 83.5 -178t26.5 -210q0 -137 -36 -302t-110 -298q-93 -167 -210.5 -248.5 t-253.5 -81.5q-185 0 -286 115t-101 302q0 208 143.5 368t317.5 160q123 0 202.5 -46.5t124.5 -134.5q5 44 7.5 87t2.5 100q0 86 -14 175t-43 147q-31 64 -84 100t-132 36q-54 0 -91.5 -15t-61.5 -33zM728 238q42 74 73.5 169.5t42.5 161.5q-3 45 -16 83.5t-43 72.5 q-28 33 -70.5 52t-100.5 19q-130 0 -230.5 -141.5t-100.5 -330.5q0 -58 8.5 -105.5t31.5 -87.5q22 -38 59.5 -60.5t92.5 -22.5q78 0 142.5 54t110.5 136z"/>
<glyph glyph-name="product" horiz-adv-x="1709" unicode="∏" d="M1616 1419v-90h-205v-1543q0 -35 11.5 -59t45.5 -42q17 -9 60.5 -18t68.5 -10v-71h-589v71q24 2 69.5 6t62.5 12q30 12 44 36.5t14 63.5v1554h-687v-1543q0 -35 11.5 -59t45.5 -42q17 -9 60.5 -18t68.5 -10v-71h-589v71q24 2 69.5 6t62.5 12q30 12 44 36.5t14 63.5v1554 h-200v90h1518z"/>
<glyph glyph-name="summation" horiz-adv-x="1444" unicode="∑" d="M33 1419h1190l43 -401h-70q-44 109 -125 203.5t-148 108.5q-30 6 -78 8t-98 2h-434l580 -761v-27l-659 -787h797q53 0 98 25.5t79 65.5q36 42 64 94t46 96l67 -21l-118 -439h-1246v49l696 839l-684 900v45z"/>
<glyph glyph-name="minus" horiz-adv-x="1317" unicode="−" d="M1168 497h-1019v125h1019v-125z"/>
<glyph glyph-name="radical" horiz-adv-x="1370" unicode="√" d="M1430 1704l-753 -1830h-67l-383 936h-184v93h360l288 -723l622 1524h117z"/>
<glyph glyph-name="infinity" horiz-adv-x="1468" unicode="∞" d="M688 453q-79 189 -146.5 269t-167.5 80q-99 0 -155.5 -67t-56.5 -167q0 -113 67 -179.5t174 -66.5q97 0 173 34t112 97zM1306 561q0 112 -66.5 178t-174.5 66q-101 0 -174 -33t-111 -98q78 -185 144.5 -267t169.5 -82q99 0 155.5 67t56.5 169zM1392 564 q0 -176 -100.5 -296.5t-239.5 -120.5q-98 0 -180 60.5t-149 180.5q-56 -123 -136 -181.5t-173 -58.5q-149 0 -243.5 114.5t-94.5 300.5q0 181 101 299t239 118q97 0 178.5 -59t150.5 -182q53 119 133.5 179.5t175.5 60.5q150 0 244 -115t94 -300z"/>
<glyph glyph-name="approxequal" horiz-adv-x="1317" unicode="≈" d="M1166 909q-18 -50 -47 -96.5t-68 -84.5q-45 -44 -95 -71t-118 -27t-125.5 18.5t-106.5 41.5q-42 20 -96 40.5t-96 20.5q-70 0 -108.5 -44.5t-79.5 -121.5l-75 31q15 42 44 89t71 89q38 39 96 67.5t116 28.5q72 0 129 -19t106 -42q52 -24 94.5 -42t95.5 -18q67 0 108.5 48 t79.5 123zM1166 527q-18 -50 -47 -96.5t-68 -84.5q-45 -44 -95 -71t-118 -27t-125.5 18.5t-106.5 41.5q-42 20 -96 40.5t-96 20.5q-70 0 -108.5 -44.5t-79.5 -121.5l-75 31q15 42 44 89t71 89q38 39 96 67.5t116 28.5q72 0 129 -19t106 -42q52 -24 94.5 -42t95.5 -18 q67 0 108.5 48t79.5 123z"/>
<glyph glyph-name="notequal" horiz-adv-x="1317" unicode="≠" d="M1163 311h-517l-90 -311h-117l90 311h-375v125h412l71 247h-483v125h517l90 311h117l-90 -311h375v-125h-412l-70 -247h482v-125z"/>
<glyph glyph-name="lessequal" horiz-adv-x="1317" unicode="≤" d="M1136 125v-125h-955v125h955zM1136 201l-955 391v115l955 391v-138l-774 -310l774 -311v-138z"/>
<glyph glyph-name="greaterequal" horiz-adv-x="1317" unicode="≥" d="M1136 0h-955v125h955v-125zM1136 592l-955 -391v138l774 311l-774 310v138l955 -391v-115z"/>
<glyph glyph-name="lozenge" horiz-adv-x="1150" unicode="◊" d="M928 574l-353 405l-353 -405l353 -404zM1085 574l-510 -574l-510 574l510 575z"/>
<glyph glyph-name="foursuperior" d="M581 811v453l-393 -453h393zM906 702h-159v-232h-166v232h-495v126l543 623h118v-640h159v-109z" unicode=""/>
<glyph glyph-name="Dieresis" d="M405 1730q0 -51 -34.5 -87t-83.5 -36t-83.5 36t-34.5 87t34.5 87t83.5 36t83.5 -36t34.5 -87zM855 1730q0 -51 -34.5 -87t-83.5 -36t-83.5 36t-34.5 87t34.5 87t83.5 36t83.5 -36t34.5 -87z" unicode=""/>
<glyph glyph-name="Acute" d="M633 1675q-44 -22 -136.5 -66.5t-209.5 -101.5l-31 39q91 87 148.5 143.5t113.5 115.5q32 34 58.5 48.5t56.5 14.5q38 0 65 -23t27 -57q0 -43 -26 -68t-66 -45z" unicode=""/>
<glyph glyph-name="Grave" d="M768 1546l-31 -39q-117 58 -209.5 102t-136.5 66q-49 25 -70.5 48.5t-21.5 64.5q0 35 25 57.5t67 22.5q30 0 55.5 -13.5t59.5 -49.5q46 -48 103.5 -105.5t158.5 -153.5z" unicode=""/>
<glyph glyph-name="Circumflex" d="M837 1539l-48 -32l-279 212l-275 -212l-48 32l234 284q18 22 35.5 33.5t57.5 11.5q41 0 56.5 -11t30.5 -30z" unicode=""/>
<glyph glyph-name="Caron" d="M837 1836l-234 -284q-21 -26 -32.5 -35.5t-60.5 -9.5q-41 0 -56.5 11t-30.5 30l-236 288l48 32l279 -214l275 214z" unicode=""/>
</font>
</defs>
</svg>
